G04 EAGLE Gerber RS-274X export*
G75*
%MOMM*%
%FSLAX34Y34*%
%LPD*%
%INBottom Copper*%
%IPPOS*%
%AMOC8*
5,1,8,0,0,1.08239X$1,22.5*%
G01*
%ADD10C,1.524000*%
%ADD11P,1.649562X8X22.500000*%
%ADD12C,1.320800*%
%ADD13P,2.336880X8X22.500000*%
%ADD14C,0.756400*%
%ADD15C,0.609600*%
%ADD16C,0.076200*%


D10*
X375920Y25400D02*
X360680Y25400D01*
X360680Y50800D02*
X375920Y50800D01*
D11*
X381000Y190500D03*
X381000Y215900D03*
D12*
X165608Y25400D02*
X152400Y25400D01*
X152400Y50800D02*
X165608Y50800D01*
X76200Y50800D02*
X62992Y50800D01*
X62992Y25400D02*
X76200Y25400D01*
D10*
X45720Y25400D02*
X30480Y25400D01*
X30480Y50800D02*
X45720Y50800D01*
D13*
X190500Y76200D03*
D14*
X381000Y88900D03*
X393700Y50800D03*
D15*
X393700Y63500D01*
X381000Y76200D01*
X381000Y88900D01*
X374650Y50800D02*
X368300Y50800D01*
X374650Y50800D02*
X393700Y31750D01*
D14*
X393700Y25400D03*
D15*
X393700Y31750D01*
D14*
X234950Y25400D03*
X311150Y38100D03*
D15*
X311150Y12700D01*
X304800Y6350D01*
X234950Y12700D02*
X234950Y25400D01*
X234950Y12700D02*
X241300Y6350D01*
X304800Y6350D01*
D16*
X190881Y76581D02*
X190881Y89916D01*
X190881Y76581D02*
X190119Y76581D01*
X190119Y89916D01*
X184819Y89916D01*
X176784Y81881D01*
X176784Y76581D01*
X190119Y76581D01*
X190119Y76200D01*
X50800Y76200D01*
X50800Y355600D01*
X355600Y355600D01*
X355600Y76200D01*
X190881Y76200D01*
X190881Y76581D01*
X204216Y76581D01*
X204216Y81881D01*
X196181Y89916D01*
X190881Y89916D01*
X226121Y198641D02*
X226121Y207759D01*
X222631Y216184D01*
X216184Y222631D01*
X207759Y226121D01*
X198641Y226121D01*
X190216Y222631D01*
X183769Y216184D01*
X180279Y207759D01*
X180279Y198641D01*
X183769Y190216D01*
X190216Y183769D01*
X198641Y180279D01*
X207759Y180279D01*
X216184Y183769D01*
X222631Y190216D01*
X226121Y198641D01*
X176784Y81280D02*
X50800Y81280D01*
X190119Y81280D02*
X190881Y81280D01*
X204216Y81280D02*
X355600Y81280D01*
X184311Y89408D02*
X50800Y89408D01*
X190119Y89408D02*
X190881Y89408D01*
X196689Y89408D02*
X355600Y89408D01*
X355600Y97536D02*
X50800Y97536D01*
X50800Y105664D02*
X355600Y105664D01*
X355600Y113792D02*
X50800Y113792D01*
X50800Y121920D02*
X355600Y121920D01*
X355600Y130048D02*
X50800Y130048D01*
X50800Y138176D02*
X355600Y138176D01*
X355600Y146304D02*
X50800Y146304D01*
X50800Y154432D02*
X355600Y154432D01*
X355600Y162560D02*
X50800Y162560D01*
X50800Y170688D02*
X355600Y170688D01*
X355600Y178816D02*
X50800Y178816D01*
X50800Y186944D02*
X187041Y186944D01*
X219359Y186944D02*
X355600Y186944D01*
X181757Y195072D02*
X50800Y195072D01*
X224643Y195072D02*
X355600Y195072D01*
X180279Y203200D02*
X50800Y203200D01*
X226121Y203200D02*
X355600Y203200D01*
X181757Y211328D02*
X50800Y211328D01*
X224643Y211328D02*
X355600Y211328D01*
X187041Y219456D02*
X50800Y219456D01*
X219359Y219456D02*
X355600Y219456D01*
X355600Y227584D02*
X50800Y227584D01*
X50800Y235712D02*
X355600Y235712D01*
X355600Y243840D02*
X50800Y243840D01*
X50800Y251968D02*
X355600Y251968D01*
X355600Y260096D02*
X50800Y260096D01*
X50800Y268224D02*
X355600Y268224D01*
X355600Y276352D02*
X50800Y276352D01*
X50800Y284480D02*
X355600Y284480D01*
X355600Y292608D02*
X50800Y292608D01*
X50800Y300736D02*
X355600Y300736D01*
X355600Y308864D02*
X50800Y308864D01*
X50800Y316992D02*
X355600Y316992D01*
X355600Y325120D02*
X50800Y325120D01*
X50800Y333248D02*
X355600Y333248D01*
X355600Y341376D02*
X50800Y341376D01*
X50800Y349504D02*
X355600Y349504D01*
X56896Y355600D02*
X56896Y76200D01*
X65024Y76200D02*
X65024Y355600D01*
X73152Y355600D02*
X73152Y76200D01*
X81280Y76200D02*
X81280Y355600D01*
X89408Y355600D02*
X89408Y76200D01*
X97536Y76200D02*
X97536Y355600D01*
X105664Y355600D02*
X105664Y76200D01*
X113792Y76200D02*
X113792Y355600D01*
X121920Y355600D02*
X121920Y76200D01*
X130048Y76200D02*
X130048Y355600D01*
X138176Y355600D02*
X138176Y76200D01*
X146304Y76200D02*
X146304Y355600D01*
X154432Y355600D02*
X154432Y76200D01*
X162560Y76200D02*
X162560Y355600D01*
X170688Y355600D02*
X170688Y76200D01*
X178816Y76200D02*
X178816Y76581D01*
X178816Y83913D02*
X178816Y355600D01*
X186944Y76581D02*
X186944Y76200D01*
X186944Y89916D02*
X186944Y187041D01*
X186944Y219359D02*
X186944Y355600D01*
X195072Y76581D02*
X195072Y76200D01*
X195072Y89916D02*
X195072Y181757D01*
X195072Y224643D02*
X195072Y355600D01*
X203200Y76581D02*
X203200Y76200D01*
X203200Y82897D02*
X203200Y180279D01*
X203200Y226121D02*
X203200Y355600D01*
X211328Y181757D02*
X211328Y76200D01*
X211328Y224643D02*
X211328Y355600D01*
X219456Y187041D02*
X219456Y76200D01*
X219456Y219359D02*
X219456Y355600D01*
X227584Y355600D02*
X227584Y76200D01*
X235712Y76200D02*
X235712Y355600D01*
X243840Y355600D02*
X243840Y76200D01*
X251968Y76200D02*
X251968Y355600D01*
X260096Y355600D02*
X260096Y76200D01*
X268224Y76200D02*
X268224Y355600D01*
X276352Y355600D02*
X276352Y76200D01*
X284480Y76200D02*
X284480Y355600D01*
X292608Y355600D02*
X292608Y76200D01*
X300736Y76200D02*
X300736Y355600D01*
X308864Y355600D02*
X308864Y76200D01*
X316992Y76200D02*
X316992Y355600D01*
X325120Y355600D02*
X325120Y76200D01*
X333248Y76200D02*
X333248Y355600D01*
X341376Y355600D02*
X341376Y76200D01*
X349504Y76200D02*
X349504Y355600D01*
M02*
