G04 EAGLE Gerber RS-274X export*
G75*
%MOMM*%
%FSLAX34Y34*%
%LPD*%
%INTop Copper*%
%IPPOS*%
%AMOC8*
5,1,8,0,0,1.08239X$1,22.5*%
G01*
%ADD10P,1.429621X8X292.500000*%
%ADD11P,1.429621X8X112.500000*%
%ADD12C,1.524000*%
%ADD13P,1.649562X8X22.500000*%
%ADD14C,1.320800*%
%ADD15P,1.429621X8X22.500000*%
%ADD16R,0.510000X0.800000*%
%ADD17C,1.270000*%
%ADD18C,0.635000*%
%ADD19C,0.756400*%

G36*
X402708Y2556D02*
X402708Y2556D01*
X402827Y2563D01*
X402865Y2576D01*
X402906Y2581D01*
X403016Y2624D01*
X403129Y2661D01*
X403164Y2683D01*
X403201Y2698D01*
X403297Y2767D01*
X403398Y2831D01*
X403426Y2861D01*
X403459Y2884D01*
X403535Y2976D01*
X403616Y3063D01*
X403636Y3098D01*
X403661Y3129D01*
X403712Y3237D01*
X403770Y3341D01*
X403780Y3381D01*
X403797Y3417D01*
X403819Y3534D01*
X403849Y3649D01*
X403853Y3709D01*
X403857Y3729D01*
X403855Y3750D01*
X403859Y3810D01*
X403859Y76200D01*
X403844Y76318D01*
X403837Y76437D01*
X403824Y76475D01*
X403819Y76516D01*
X403776Y76626D01*
X403739Y76739D01*
X403717Y76774D01*
X403702Y76811D01*
X403633Y76907D01*
X403569Y77008D01*
X403539Y77036D01*
X403516Y77069D01*
X403424Y77145D01*
X403337Y77226D01*
X403302Y77246D01*
X403271Y77271D01*
X403163Y77322D01*
X403059Y77380D01*
X403019Y77390D01*
X402983Y77407D01*
X402866Y77429D01*
X402751Y77459D01*
X402691Y77463D01*
X402671Y77467D01*
X402650Y77465D01*
X402590Y77469D01*
X237041Y77469D01*
X236904Y77452D01*
X236765Y77439D01*
X236746Y77432D01*
X236726Y77429D01*
X236597Y77378D01*
X236466Y77331D01*
X236449Y77320D01*
X236430Y77312D01*
X236318Y77231D01*
X236203Y77153D01*
X236189Y77137D01*
X236173Y77126D01*
X236084Y77019D01*
X235992Y76914D01*
X235983Y76896D01*
X235970Y76881D01*
X235911Y76755D01*
X235848Y76631D01*
X235843Y76611D01*
X235835Y76593D01*
X235808Y76457D01*
X235778Y76321D01*
X235779Y76300D01*
X235775Y76281D01*
X235783Y76142D01*
X235788Y76003D01*
X235793Y75983D01*
X235794Y75963D01*
X235837Y75831D01*
X235876Y75697D01*
X235886Y75680D01*
X235893Y75661D01*
X235967Y75543D01*
X236038Y75423D01*
X236056Y75402D01*
X236063Y75392D01*
X236078Y75378D01*
X236144Y75303D01*
X242875Y68571D01*
X246000Y65447D01*
X246000Y58122D01*
X246012Y58024D01*
X246015Y57925D01*
X246032Y57866D01*
X246040Y57806D01*
X246076Y57714D01*
X246104Y57619D01*
X246134Y57567D01*
X246157Y57511D01*
X246215Y57430D01*
X246265Y57345D01*
X246331Y57270D01*
X246343Y57253D01*
X246353Y57245D01*
X246371Y57224D01*
X249429Y54167D01*
X249429Y47433D01*
X244667Y42671D01*
X237933Y42671D01*
X233171Y47433D01*
X233171Y54167D01*
X236229Y57224D01*
X236289Y57303D01*
X236357Y57375D01*
X236386Y57428D01*
X236423Y57476D01*
X236463Y57566D01*
X236511Y57653D01*
X236526Y57712D01*
X236550Y57767D01*
X236565Y57865D01*
X236590Y57961D01*
X236596Y58061D01*
X236600Y58081D01*
X236598Y58094D01*
X236600Y58122D01*
X236600Y61028D01*
X236588Y61126D01*
X236585Y61225D01*
X236568Y61283D01*
X236560Y61343D01*
X236524Y61435D01*
X236496Y61530D01*
X236466Y61582D01*
X236443Y61639D01*
X236385Y61719D01*
X236335Y61804D01*
X236269Y61880D01*
X236257Y61896D01*
X236247Y61904D01*
X236229Y61925D01*
X227025Y71129D01*
X226947Y71189D01*
X226875Y71257D01*
X226822Y71286D01*
X226774Y71323D01*
X226683Y71363D01*
X226596Y71411D01*
X226538Y71426D01*
X226482Y71450D01*
X226384Y71465D01*
X226288Y71490D01*
X226188Y71496D01*
X226168Y71500D01*
X226156Y71498D01*
X226128Y71500D01*
X224659Y71500D01*
X224560Y71488D01*
X224461Y71485D01*
X224403Y71468D01*
X224343Y71460D01*
X224251Y71424D01*
X224156Y71396D01*
X224104Y71366D01*
X224047Y71343D01*
X223967Y71285D01*
X223882Y71235D01*
X223807Y71169D01*
X223790Y71157D01*
X223782Y71147D01*
X223761Y71129D01*
X219688Y67055D01*
X212112Y67055D01*
X206755Y72412D01*
X206755Y76200D01*
X206740Y76318D01*
X206733Y76437D01*
X206720Y76475D01*
X206715Y76516D01*
X206672Y76626D01*
X206635Y76739D01*
X206613Y76774D01*
X206598Y76811D01*
X206529Y76907D01*
X206465Y77008D01*
X206435Y77036D01*
X206412Y77069D01*
X206320Y77145D01*
X206233Y77226D01*
X206198Y77246D01*
X206167Y77271D01*
X206059Y77322D01*
X205955Y77380D01*
X205915Y77390D01*
X205879Y77407D01*
X205762Y77429D01*
X205647Y77459D01*
X205587Y77463D01*
X205567Y77467D01*
X205546Y77465D01*
X205486Y77469D01*
X191770Y77469D01*
X191652Y77454D01*
X191533Y77447D01*
X191495Y77434D01*
X191455Y77429D01*
X191344Y77386D01*
X191231Y77349D01*
X191197Y77327D01*
X191159Y77312D01*
X191063Y77243D01*
X190962Y77179D01*
X190934Y77149D01*
X190902Y77126D01*
X190826Y77034D01*
X190744Y76947D01*
X190725Y76912D01*
X190699Y76881D01*
X190648Y76773D01*
X190591Y76669D01*
X190580Y76629D01*
X190563Y76593D01*
X190541Y76476D01*
X190511Y76361D01*
X190507Y76301D01*
X190503Y76281D01*
X190505Y76260D01*
X190501Y76200D01*
X190501Y76199D01*
X190499Y76199D01*
X190499Y76200D01*
X190484Y76318D01*
X190477Y76437D01*
X190464Y76475D01*
X190459Y76516D01*
X190415Y76626D01*
X190379Y76739D01*
X190357Y76774D01*
X190342Y76811D01*
X190272Y76907D01*
X190209Y77008D01*
X190179Y77036D01*
X190155Y77069D01*
X190064Y77145D01*
X189977Y77226D01*
X189942Y77246D01*
X189910Y77271D01*
X189803Y77322D01*
X189698Y77380D01*
X189659Y77390D01*
X189623Y77407D01*
X189506Y77429D01*
X189391Y77459D01*
X189330Y77463D01*
X189310Y77467D01*
X189290Y77465D01*
X189230Y77469D01*
X162814Y77469D01*
X162696Y77454D01*
X162577Y77447D01*
X162539Y77434D01*
X162498Y77429D01*
X162388Y77386D01*
X162275Y77349D01*
X162240Y77327D01*
X162203Y77312D01*
X162107Y77243D01*
X162006Y77179D01*
X161978Y77149D01*
X161945Y77126D01*
X161869Y77034D01*
X161788Y76947D01*
X161768Y76912D01*
X161743Y76881D01*
X161692Y76773D01*
X161634Y76669D01*
X161624Y76629D01*
X161607Y76593D01*
X161585Y76476D01*
X161555Y76361D01*
X161551Y76301D01*
X161547Y76281D01*
X161549Y76260D01*
X161545Y76200D01*
X161545Y72412D01*
X156737Y67604D01*
X156664Y67510D01*
X156585Y67421D01*
X156567Y67385D01*
X156542Y67353D01*
X156495Y67244D01*
X156441Y67138D01*
X156432Y67098D01*
X156416Y67061D01*
X156397Y66944D01*
X156371Y66828D01*
X156372Y66787D01*
X156366Y66747D01*
X156377Y66629D01*
X156381Y66510D01*
X156392Y66471D01*
X156396Y66431D01*
X156436Y66318D01*
X156469Y66204D01*
X156490Y66169D01*
X156503Y66131D01*
X156570Y66033D01*
X156631Y65930D01*
X156670Y65885D01*
X156682Y65868D01*
X156697Y65855D01*
X156737Y65809D01*
X163246Y59300D01*
X163324Y59240D01*
X163396Y59172D01*
X163449Y59143D01*
X163497Y59106D01*
X163588Y59066D01*
X163675Y59018D01*
X163733Y59003D01*
X163789Y58979D01*
X163887Y58964D01*
X163983Y58939D01*
X164083Y58933D01*
X164103Y58929D01*
X164115Y58931D01*
X164143Y58929D01*
X168467Y58929D01*
X173229Y54167D01*
X173229Y47433D01*
X168467Y42671D01*
X161733Y42671D01*
X156971Y47433D01*
X156971Y51757D01*
X156959Y51855D01*
X156956Y51954D01*
X156939Y52012D01*
X156931Y52072D01*
X156895Y52164D01*
X156867Y52259D01*
X156837Y52311D01*
X156814Y52368D01*
X156756Y52448D01*
X156706Y52533D01*
X156640Y52609D01*
X156628Y52625D01*
X156618Y52633D01*
X156600Y52654D01*
X150825Y58429D01*
X150747Y58489D01*
X150675Y58557D01*
X150622Y58586D01*
X150574Y58623D01*
X150483Y58663D01*
X150396Y58711D01*
X150338Y58726D01*
X150282Y58750D01*
X150184Y58765D01*
X150088Y58790D01*
X149988Y58796D01*
X149968Y58800D01*
X149956Y58798D01*
X149928Y58800D01*
X133560Y58800D01*
X133422Y58783D01*
X133283Y58770D01*
X133264Y58763D01*
X133244Y58760D01*
X133115Y58709D01*
X132984Y58662D01*
X132967Y58651D01*
X132948Y58643D01*
X132836Y58562D01*
X132721Y58484D01*
X132708Y58468D01*
X132691Y58457D01*
X132602Y58349D01*
X132510Y58245D01*
X132501Y58227D01*
X132488Y58212D01*
X132429Y58086D01*
X132366Y57962D01*
X132361Y57942D01*
X132353Y57924D01*
X132327Y57788D01*
X132296Y57652D01*
X132297Y57631D01*
X132293Y57612D01*
X132302Y57473D01*
X132306Y57334D01*
X132312Y57314D01*
X132313Y57294D01*
X132356Y57162D01*
X132394Y57028D01*
X132405Y57011D01*
X132411Y56992D01*
X132485Y56874D01*
X132556Y56754D01*
X132574Y56733D01*
X132581Y56723D01*
X132596Y56709D01*
X132662Y56634D01*
X135129Y54167D01*
X135129Y47433D01*
X130367Y42671D01*
X123633Y42671D01*
X120276Y46029D01*
X120197Y46089D01*
X120125Y46157D01*
X120072Y46186D01*
X120024Y46223D01*
X119934Y46263D01*
X119847Y46311D01*
X119788Y46326D01*
X119733Y46350D01*
X119635Y46365D01*
X119539Y46390D01*
X119439Y46396D01*
X119419Y46400D01*
X119406Y46398D01*
X119378Y46400D01*
X102932Y46400D01*
X102834Y46388D01*
X102735Y46385D01*
X102677Y46368D01*
X102617Y46360D01*
X102525Y46324D01*
X102430Y46296D01*
X102377Y46266D01*
X102321Y46243D01*
X102241Y46185D01*
X102156Y46135D01*
X102080Y46069D01*
X102064Y46057D01*
X102056Y46047D01*
X102035Y46028D01*
X101582Y45575D01*
X95218Y45575D01*
X94548Y46246D01*
X94454Y46319D01*
X94364Y46398D01*
X94328Y46416D01*
X94296Y46441D01*
X94187Y46488D01*
X94081Y46543D01*
X94042Y46551D01*
X94004Y46567D01*
X93887Y46586D01*
X93771Y46612D01*
X93730Y46611D01*
X93690Y46617D01*
X93572Y46606D01*
X93453Y46603D01*
X93414Y46591D01*
X93374Y46588D01*
X93261Y46547D01*
X93147Y46514D01*
X93113Y46494D01*
X93074Y46480D01*
X92976Y46413D01*
X92873Y46353D01*
X92828Y46313D01*
X92811Y46301D01*
X92798Y46286D01*
X92753Y46246D01*
X92082Y45575D01*
X85718Y45575D01*
X85265Y46028D01*
X85187Y46089D01*
X85115Y46157D01*
X85062Y46186D01*
X85014Y46223D01*
X84923Y46263D01*
X84836Y46311D01*
X84778Y46326D01*
X84722Y46350D01*
X84624Y46365D01*
X84528Y46390D01*
X84428Y46396D01*
X84408Y46400D01*
X84396Y46398D01*
X84368Y46400D01*
X83932Y46400D01*
X83834Y46388D01*
X83735Y46385D01*
X83677Y46368D01*
X83617Y46360D01*
X83525Y46324D01*
X83430Y46296D01*
X83377Y46266D01*
X83321Y46243D01*
X83241Y46185D01*
X83156Y46135D01*
X83080Y46069D01*
X83064Y46057D01*
X83056Y46047D01*
X83035Y46028D01*
X82582Y45575D01*
X76218Y45575D01*
X75765Y46028D01*
X75687Y46089D01*
X75615Y46157D01*
X75562Y46186D01*
X75514Y46223D01*
X75423Y46263D01*
X75336Y46311D01*
X75278Y46326D01*
X75222Y46350D01*
X75124Y46365D01*
X75028Y46390D01*
X74928Y46396D01*
X74908Y46400D01*
X74896Y46398D01*
X74868Y46400D01*
X58422Y46400D01*
X58324Y46388D01*
X58225Y46385D01*
X58166Y46368D01*
X58106Y46360D01*
X58014Y46324D01*
X57919Y46296D01*
X57867Y46266D01*
X57811Y46243D01*
X57730Y46185D01*
X57645Y46135D01*
X57570Y46069D01*
X57553Y46057D01*
X57545Y46047D01*
X57524Y46029D01*
X54167Y42671D01*
X47412Y42671D01*
X47400Y42682D01*
X47347Y42711D01*
X47300Y42748D01*
X47209Y42788D01*
X47122Y42836D01*
X47063Y42851D01*
X47008Y42875D01*
X46910Y42890D01*
X46814Y42915D01*
X46714Y42921D01*
X46694Y42925D01*
X46681Y42923D01*
X46653Y42925D01*
X38158Y42925D01*
X38148Y42924D01*
X38139Y42925D01*
X37990Y42904D01*
X37842Y42885D01*
X37833Y42882D01*
X37824Y42881D01*
X37672Y42829D01*
X34839Y41655D01*
X15961Y41655D01*
X12600Y43047D01*
X10027Y45620D01*
X8635Y48981D01*
X8635Y52619D01*
X10027Y55980D01*
X12600Y58553D01*
X15961Y59945D01*
X27373Y59945D01*
X27471Y59957D01*
X27570Y59960D01*
X27628Y59977D01*
X27688Y59985D01*
X27780Y60021D01*
X27875Y60049D01*
X27927Y60079D01*
X27984Y60102D01*
X28064Y60160D01*
X28149Y60210D01*
X28225Y60276D01*
X28241Y60288D01*
X28249Y60298D01*
X28270Y60316D01*
X36153Y68200D01*
X44240Y68200D01*
X44378Y68217D01*
X44517Y68230D01*
X44536Y68237D01*
X44556Y68240D01*
X44685Y68291D01*
X44816Y68338D01*
X44833Y68349D01*
X44852Y68357D01*
X44964Y68438D01*
X45079Y68516D01*
X45092Y68532D01*
X45109Y68543D01*
X45198Y68651D01*
X45290Y68755D01*
X45299Y68773D01*
X45312Y68788D01*
X45371Y68914D01*
X45434Y69038D01*
X45439Y69058D01*
X45447Y69076D01*
X45473Y69212D01*
X45504Y69348D01*
X45503Y69369D01*
X45507Y69388D01*
X45498Y69527D01*
X45494Y69666D01*
X45488Y69686D01*
X45487Y69706D01*
X45444Y69838D01*
X45406Y69972D01*
X45395Y69989D01*
X45389Y70008D01*
X45315Y70126D01*
X45244Y70246D01*
X45226Y70267D01*
X45219Y70277D01*
X45204Y70291D01*
X45138Y70366D01*
X42671Y72833D01*
X42671Y76200D01*
X42656Y76318D01*
X42649Y76437D01*
X42636Y76475D01*
X42631Y76516D01*
X42588Y76626D01*
X42551Y76739D01*
X42529Y76774D01*
X42514Y76811D01*
X42445Y76907D01*
X42381Y77008D01*
X42351Y77036D01*
X42328Y77069D01*
X42236Y77145D01*
X42149Y77226D01*
X42114Y77246D01*
X42083Y77271D01*
X41975Y77322D01*
X41871Y77380D01*
X41831Y77390D01*
X41795Y77407D01*
X41678Y77429D01*
X41563Y77459D01*
X41503Y77463D01*
X41483Y77467D01*
X41462Y77465D01*
X41402Y77469D01*
X3810Y77469D01*
X3692Y77454D01*
X3573Y77447D01*
X3535Y77434D01*
X3494Y77429D01*
X3384Y77386D01*
X3271Y77349D01*
X3236Y77327D01*
X3199Y77312D01*
X3103Y77243D01*
X3002Y77179D01*
X2974Y77149D01*
X2941Y77126D01*
X2865Y77034D01*
X2784Y76947D01*
X2764Y76912D01*
X2739Y76881D01*
X2688Y76773D01*
X2630Y76669D01*
X2620Y76629D01*
X2603Y76593D01*
X2581Y76476D01*
X2551Y76361D01*
X2547Y76301D01*
X2543Y76281D01*
X2545Y76260D01*
X2541Y76200D01*
X2541Y3810D01*
X2556Y3692D01*
X2563Y3573D01*
X2576Y3535D01*
X2581Y3494D01*
X2624Y3384D01*
X2661Y3271D01*
X2683Y3236D01*
X2698Y3199D01*
X2767Y3103D01*
X2831Y3002D01*
X2861Y2974D01*
X2884Y2941D01*
X2976Y2865D01*
X3063Y2784D01*
X3098Y2764D01*
X3129Y2739D01*
X3237Y2688D01*
X3341Y2630D01*
X3381Y2620D01*
X3417Y2603D01*
X3534Y2581D01*
X3649Y2551D01*
X3709Y2547D01*
X3729Y2543D01*
X3750Y2545D01*
X3810Y2541D01*
X402590Y2541D01*
X402708Y2556D01*
G37*
%LPC*%
G36*
X86158Y8000D02*
X86158Y8000D01*
X74700Y19458D01*
X74700Y27047D01*
X74954Y27300D01*
X75014Y27378D01*
X75082Y27450D01*
X75111Y27503D01*
X75148Y27551D01*
X75188Y27642D01*
X75236Y27729D01*
X75251Y27787D01*
X75275Y27843D01*
X75290Y27941D01*
X75315Y28037D01*
X75321Y28137D01*
X75325Y28157D01*
X75323Y28169D01*
X75325Y28197D01*
X75325Y29732D01*
X76218Y30625D01*
X82595Y30625D01*
X82628Y30599D01*
X82717Y30520D01*
X82753Y30502D01*
X82785Y30477D01*
X82895Y30430D01*
X83001Y30376D01*
X83040Y30367D01*
X83077Y30351D01*
X83195Y30332D01*
X83311Y30306D01*
X83351Y30307D01*
X83391Y30301D01*
X83510Y30312D01*
X83629Y30316D01*
X83668Y30327D01*
X83708Y30331D01*
X83820Y30371D01*
X83934Y30404D01*
X83969Y30425D01*
X84007Y30438D01*
X84106Y30505D01*
X84208Y30566D01*
X84253Y30606D01*
X84270Y30617D01*
X84284Y30632D01*
X84329Y30672D01*
X84790Y31133D01*
X85369Y31468D01*
X86016Y31641D01*
X87626Y31641D01*
X87626Y25105D01*
X87641Y24987D01*
X87648Y24868D01*
X87660Y24830D01*
X87666Y24790D01*
X87709Y24679D01*
X87746Y24566D01*
X87768Y24532D01*
X87783Y24494D01*
X87852Y24398D01*
X87916Y24297D01*
X87946Y24269D01*
X87969Y24237D01*
X88061Y24161D01*
X88148Y24079D01*
X88183Y24060D01*
X88214Y24034D01*
X88322Y23983D01*
X88426Y23926D01*
X88466Y23916D01*
X88502Y23898D01*
X88619Y23876D01*
X88734Y23846D01*
X88794Y23842D01*
X88814Y23839D01*
X88822Y23839D01*
X88825Y23839D01*
X88840Y23839D01*
X88895Y23836D01*
X88905Y23836D01*
X89023Y23851D01*
X89142Y23858D01*
X89180Y23871D01*
X89221Y23876D01*
X89331Y23920D01*
X89444Y23956D01*
X89479Y23978D01*
X89516Y23993D01*
X89612Y24063D01*
X89713Y24126D01*
X89741Y24156D01*
X89774Y24180D01*
X89850Y24271D01*
X89931Y24358D01*
X89951Y24393D01*
X89976Y24425D01*
X90027Y24532D01*
X90085Y24637D01*
X90095Y24676D01*
X90112Y24712D01*
X90134Y24829D01*
X90164Y24945D01*
X90168Y25005D01*
X90172Y25025D01*
X90170Y25045D01*
X90174Y25105D01*
X90174Y31641D01*
X91784Y31641D01*
X92431Y31468D01*
X92456Y31453D01*
X92579Y31401D01*
X92698Y31345D01*
X92725Y31340D01*
X92749Y31329D01*
X92881Y31310D01*
X93011Y31285D01*
X93037Y31287D01*
X93064Y31283D01*
X93196Y31297D01*
X93328Y31305D01*
X93353Y31313D01*
X93380Y31316D01*
X93505Y31362D01*
X93630Y31403D01*
X93653Y31417D01*
X93678Y31427D01*
X93787Y31502D01*
X93899Y31573D01*
X93918Y31593D01*
X93940Y31608D01*
X94026Y31708D01*
X94117Y31805D01*
X94130Y31828D01*
X94148Y31849D01*
X94206Y31967D01*
X94271Y32083D01*
X94277Y32109D01*
X94289Y32134D01*
X94317Y32263D01*
X94350Y32391D01*
X94352Y32429D01*
X94356Y32445D01*
X94355Y32466D01*
X94360Y32552D01*
X94360Y32787D01*
X94359Y32796D01*
X94360Y32805D01*
X94339Y32954D01*
X94320Y33102D01*
X94317Y33111D01*
X94316Y33120D01*
X94264Y33272D01*
X93753Y34504D01*
X93753Y36616D01*
X94561Y38566D01*
X96054Y40059D01*
X98004Y40867D01*
X100116Y40867D01*
X102066Y40059D01*
X103559Y38566D01*
X104367Y36616D01*
X104367Y34504D01*
X103856Y33272D01*
X103854Y33263D01*
X103849Y33255D01*
X103812Y33110D01*
X103772Y32965D01*
X103772Y32956D01*
X103770Y32947D01*
X103760Y32787D01*
X103760Y31369D01*
X103775Y31251D01*
X103782Y31132D01*
X103795Y31094D01*
X103800Y31053D01*
X103843Y30943D01*
X103880Y30830D01*
X103902Y30795D01*
X103917Y30758D01*
X103986Y30662D01*
X104050Y30561D01*
X104080Y30533D01*
X104103Y30500D01*
X104195Y30424D01*
X104282Y30343D01*
X104317Y30323D01*
X104348Y30298D01*
X104456Y30247D01*
X104560Y30189D01*
X104600Y30179D01*
X104636Y30162D01*
X104753Y30140D01*
X104868Y30110D01*
X104928Y30106D01*
X104948Y30102D01*
X104969Y30104D01*
X105029Y30100D01*
X119678Y30100D01*
X119776Y30112D01*
X119875Y30115D01*
X119934Y30132D01*
X119994Y30140D01*
X120086Y30176D01*
X120181Y30204D01*
X120233Y30234D01*
X120289Y30257D01*
X120370Y30315D01*
X120455Y30365D01*
X120530Y30431D01*
X120547Y30443D01*
X120555Y30453D01*
X120576Y30471D01*
X123633Y33529D01*
X130367Y33529D01*
X135129Y28767D01*
X135129Y22033D01*
X132662Y19566D01*
X132577Y19457D01*
X132488Y19350D01*
X132480Y19331D01*
X132467Y19315D01*
X132412Y19187D01*
X132353Y19062D01*
X132349Y19042D01*
X132341Y19023D01*
X132319Y18885D01*
X132293Y18749D01*
X132294Y18729D01*
X132291Y18709D01*
X132304Y18570D01*
X132313Y18432D01*
X132319Y18413D01*
X132321Y18393D01*
X132368Y18261D01*
X132411Y18130D01*
X132422Y18112D01*
X132428Y18093D01*
X132507Y17978D01*
X132581Y17861D01*
X132596Y17847D01*
X132607Y17830D01*
X132711Y17738D01*
X132813Y17643D01*
X132830Y17633D01*
X132845Y17620D01*
X132970Y17556D01*
X133091Y17489D01*
X133111Y17484D01*
X133129Y17475D01*
X133265Y17445D01*
X133399Y17410D01*
X133427Y17408D01*
X133439Y17405D01*
X133460Y17406D01*
X133560Y17400D01*
X149928Y17400D01*
X150026Y17412D01*
X150125Y17415D01*
X150183Y17432D01*
X150243Y17440D01*
X150335Y17476D01*
X150430Y17504D01*
X150482Y17534D01*
X150539Y17557D01*
X150619Y17615D01*
X150704Y17665D01*
X150780Y17731D01*
X150796Y17743D01*
X150804Y17753D01*
X150825Y17771D01*
X156600Y23546D01*
X156660Y23624D01*
X156728Y23696D01*
X156757Y23749D01*
X156794Y23797D01*
X156834Y23888D01*
X156882Y23975D01*
X156897Y24033D01*
X156921Y24089D01*
X156936Y24187D01*
X156961Y24283D01*
X156967Y24383D01*
X156971Y24403D01*
X156969Y24415D01*
X156971Y24443D01*
X156971Y28767D01*
X161733Y33529D01*
X168467Y33529D01*
X173229Y28767D01*
X173229Y22033D01*
X168467Y17271D01*
X164143Y17271D01*
X164045Y17259D01*
X163946Y17256D01*
X163888Y17239D01*
X163828Y17231D01*
X163736Y17195D01*
X163641Y17167D01*
X163589Y17137D01*
X163532Y17114D01*
X163452Y17056D01*
X163367Y17006D01*
X163291Y16940D01*
X163275Y16928D01*
X163267Y16918D01*
X163246Y16900D01*
X154347Y8000D01*
X86158Y8000D01*
G37*
%LPD*%
%LPC*%
G36*
X237933Y17271D02*
X237933Y17271D01*
X233171Y22033D01*
X233171Y28767D01*
X237933Y33529D01*
X242257Y33529D01*
X242355Y33541D01*
X242454Y33544D01*
X242512Y33561D01*
X242572Y33569D01*
X242664Y33605D01*
X242759Y33633D01*
X242811Y33663D01*
X242868Y33686D01*
X242948Y33744D01*
X243033Y33794D01*
X243109Y33860D01*
X243125Y33872D01*
X243133Y33882D01*
X243154Y33900D01*
X257692Y48438D01*
X257752Y48516D01*
X257820Y48588D01*
X257849Y48641D01*
X257886Y48689D01*
X257926Y48780D01*
X257974Y48867D01*
X257989Y48925D01*
X258013Y48981D01*
X258028Y49079D01*
X258053Y49175D01*
X258059Y49275D01*
X258063Y49295D01*
X258061Y49307D01*
X258063Y49335D01*
X258063Y52417D01*
X259301Y55405D01*
X261587Y57691D01*
X264575Y58929D01*
X281017Y58929D01*
X284005Y57691D01*
X286291Y55405D01*
X287529Y52417D01*
X287529Y49183D01*
X286291Y46195D01*
X284005Y43909D01*
X281017Y42671D01*
X265743Y42671D01*
X265645Y42659D01*
X265546Y42656D01*
X265488Y42639D01*
X265428Y42631D01*
X265336Y42595D01*
X265241Y42567D01*
X265189Y42537D01*
X265132Y42514D01*
X265052Y42456D01*
X264967Y42406D01*
X264891Y42340D01*
X264875Y42328D01*
X264867Y42318D01*
X264846Y42300D01*
X249800Y27254D01*
X249740Y27176D01*
X249672Y27104D01*
X249643Y27051D01*
X249606Y27003D01*
X249566Y26912D01*
X249518Y26825D01*
X249503Y26767D01*
X249479Y26711D01*
X249464Y26613D01*
X249439Y26517D01*
X249433Y26417D01*
X249429Y26397D01*
X249431Y26385D01*
X249429Y26357D01*
X249429Y22033D01*
X244667Y17271D01*
X237933Y17271D01*
G37*
%LPD*%
%LPC*%
G36*
X371561Y41655D02*
X371561Y41655D01*
X369341Y42575D01*
X369332Y42577D01*
X369324Y42582D01*
X369179Y42619D01*
X369035Y42659D01*
X369025Y42659D01*
X369016Y42661D01*
X368856Y42671D01*
X353983Y42671D01*
X350995Y43909D01*
X348709Y46195D01*
X347471Y49183D01*
X347471Y52417D01*
X348709Y55405D01*
X350995Y57691D01*
X353983Y58929D01*
X368856Y58929D01*
X368865Y58930D01*
X368874Y58929D01*
X369023Y58950D01*
X369171Y58969D01*
X369180Y58972D01*
X369189Y58973D01*
X369341Y59025D01*
X371561Y59945D01*
X390439Y59945D01*
X393800Y58553D01*
X396373Y55980D01*
X397765Y52619D01*
X397765Y48981D01*
X396373Y45620D01*
X393800Y43047D01*
X390439Y41655D01*
X371561Y41655D01*
G37*
%LPD*%
%LPC*%
G36*
X371561Y16255D02*
X371561Y16255D01*
X369341Y17175D01*
X369332Y17177D01*
X369324Y17182D01*
X369179Y17219D01*
X369035Y17259D01*
X369025Y17259D01*
X369016Y17261D01*
X368856Y17271D01*
X353983Y17271D01*
X350995Y18509D01*
X348709Y20795D01*
X347471Y23783D01*
X347471Y27017D01*
X348709Y30005D01*
X350995Y32291D01*
X353983Y33529D01*
X368856Y33529D01*
X368865Y33530D01*
X368874Y33529D01*
X369023Y33550D01*
X369171Y33569D01*
X369180Y33572D01*
X369189Y33573D01*
X369341Y33625D01*
X371561Y34545D01*
X390439Y34545D01*
X393800Y33153D01*
X396373Y30580D01*
X397765Y27219D01*
X397765Y23581D01*
X396373Y20220D01*
X393800Y17647D01*
X390439Y16255D01*
X371561Y16255D01*
G37*
%LPD*%
%LPC*%
G36*
X27939Y15239D02*
X27939Y15239D01*
X27939Y22861D01*
X40386Y22861D01*
X40504Y22876D01*
X40623Y22883D01*
X40661Y22896D01*
X40702Y22901D01*
X40812Y22944D01*
X40925Y22981D01*
X40960Y23003D01*
X40997Y23018D01*
X41093Y23088D01*
X41194Y23151D01*
X41222Y23181D01*
X41255Y23204D01*
X41331Y23296D01*
X41399Y23369D01*
X48769Y23369D01*
X48769Y16255D01*
X47012Y16255D01*
X43385Y19882D01*
X43338Y19919D01*
X43297Y19962D01*
X43213Y20016D01*
X43134Y20077D01*
X43079Y20101D01*
X43029Y20133D01*
X42934Y20164D01*
X42842Y20204D01*
X42783Y20213D01*
X42726Y20232D01*
X42627Y20238D01*
X42528Y20254D01*
X42468Y20248D01*
X42409Y20252D01*
X42311Y20233D01*
X42211Y20224D01*
X42155Y20204D01*
X42097Y20193D01*
X42006Y20150D01*
X41912Y20116D01*
X41863Y20083D01*
X41809Y20057D01*
X41731Y19994D01*
X41649Y19938D01*
X41609Y19893D01*
X41563Y19855D01*
X41461Y19731D01*
X40770Y18781D01*
X39639Y17650D01*
X38345Y16710D01*
X36920Y15984D01*
X35399Y15489D01*
X33820Y15239D01*
X27939Y15239D01*
G37*
%LPD*%
%LPC*%
G36*
X41394Y27431D02*
X41394Y27431D01*
X41365Y27478D01*
X41335Y27506D01*
X41312Y27538D01*
X41220Y27614D01*
X41133Y27696D01*
X41098Y27715D01*
X41067Y27741D01*
X40959Y27792D01*
X40855Y27850D01*
X40816Y27860D01*
X40779Y27877D01*
X40662Y27899D01*
X40547Y27929D01*
X40487Y27933D01*
X40467Y27937D01*
X40446Y27935D01*
X40386Y27939D01*
X27939Y27939D01*
X27939Y35561D01*
X33820Y35561D01*
X35399Y35311D01*
X36920Y34816D01*
X38345Y34090D01*
X39507Y33246D01*
X39508Y33246D01*
X39639Y33150D01*
X40770Y32019D01*
X41461Y31069D01*
X41501Y31026D01*
X41535Y30976D01*
X41610Y30910D01*
X41678Y30837D01*
X41729Y30805D01*
X41773Y30766D01*
X41862Y30720D01*
X41947Y30667D01*
X42004Y30648D01*
X42057Y30621D01*
X42154Y30599D01*
X42249Y30568D01*
X42309Y30565D01*
X42367Y30552D01*
X42467Y30555D01*
X42567Y30548D01*
X42625Y30559D01*
X42685Y30561D01*
X42781Y30589D01*
X42879Y30608D01*
X42933Y30633D01*
X42990Y30650D01*
X43076Y30700D01*
X43167Y30743D01*
X43213Y30781D01*
X43264Y30811D01*
X43385Y30918D01*
X47012Y34545D01*
X48769Y34545D01*
X48769Y27431D01*
X41394Y27431D01*
G37*
%LPD*%
%LPC*%
G36*
X257255Y27431D02*
X257255Y27431D01*
X257272Y27541D01*
X257717Y28910D01*
X258371Y30193D01*
X259217Y31357D01*
X260235Y32375D01*
X261399Y33221D01*
X262682Y33875D01*
X264051Y34320D01*
X265472Y34545D01*
X277369Y34545D01*
X277369Y27431D01*
X257255Y27431D01*
G37*
%LPD*%
%LPC*%
G36*
X265472Y16255D02*
X265472Y16255D01*
X264051Y16480D01*
X262682Y16925D01*
X261399Y17579D01*
X260235Y18425D01*
X259217Y19443D01*
X258371Y20607D01*
X257717Y21890D01*
X257272Y23259D01*
X257255Y23369D01*
X277369Y23369D01*
X277369Y16255D01*
X265472Y16255D01*
G37*
%LPD*%
%LPC*%
G36*
X7921Y27939D02*
X7921Y27939D01*
X8364Y29300D01*
X9090Y30725D01*
X10030Y32019D01*
X11161Y33150D01*
X12455Y34090D01*
X13880Y34816D01*
X15401Y35311D01*
X16980Y35561D01*
X22861Y35561D01*
X22861Y27939D01*
X7921Y27939D01*
G37*
%LPD*%
%LPC*%
G36*
X16980Y15239D02*
X16980Y15239D01*
X15401Y15489D01*
X13880Y15984D01*
X12455Y16710D01*
X11161Y17650D01*
X10030Y18781D01*
X9090Y20075D01*
X8364Y21500D01*
X7921Y22861D01*
X22861Y22861D01*
X22861Y15239D01*
X16980Y15239D01*
G37*
%LPD*%
%LPC*%
G36*
X193039Y66039D02*
X193039Y66039D01*
X193039Y73661D01*
X200661Y73661D01*
X200661Y71991D01*
X194709Y66039D01*
X193039Y66039D01*
G37*
%LPD*%
%LPC*%
G36*
X186291Y66039D02*
X186291Y66039D01*
X180339Y71991D01*
X180339Y73661D01*
X187961Y73661D01*
X187961Y66039D01*
X186291Y66039D01*
G37*
%LPD*%
%LPC*%
G36*
X52831Y27431D02*
X52831Y27431D01*
X52831Y34545D01*
X54588Y34545D01*
X59945Y29188D01*
X59945Y27431D01*
X52831Y27431D01*
G37*
%LPD*%
%LPC*%
G36*
X52831Y16255D02*
X52831Y16255D01*
X52831Y23369D01*
X59945Y23369D01*
X59945Y21612D01*
X54588Y16255D01*
X52831Y16255D01*
G37*
%LPD*%
%LPC*%
G36*
X281431Y27431D02*
X281431Y27431D01*
X281431Y34337D01*
X281541Y34320D01*
X282910Y33875D01*
X284193Y33221D01*
X285357Y32375D01*
X286375Y31357D01*
X287221Y30193D01*
X287875Y28910D01*
X288320Y27541D01*
X288337Y27431D01*
X281431Y27431D01*
G37*
%LPD*%
%LPC*%
G36*
X281431Y23369D02*
X281431Y23369D01*
X288337Y23369D01*
X288320Y23259D01*
X287875Y21890D01*
X287221Y20607D01*
X286375Y19443D01*
X285357Y18425D01*
X284193Y17579D01*
X282910Y16925D01*
X281541Y16480D01*
X281431Y16463D01*
X281431Y23369D01*
G37*
%LPD*%
%LPC*%
G36*
X25399Y25399D02*
X25399Y25399D01*
X25399Y25401D01*
X25401Y25401D01*
X25401Y25399D01*
X25399Y25399D01*
G37*
%LPD*%
D10*
X50800Y50800D03*
X50800Y25400D03*
D11*
X127000Y25400D03*
X127000Y50800D03*
D12*
X33020Y50800D02*
X17780Y50800D01*
X17780Y25400D02*
X33020Y25400D01*
D13*
X215900Y76200D03*
X190500Y76200D03*
D14*
X266192Y50800D02*
X279400Y50800D01*
X279400Y25400D02*
X266192Y25400D01*
X355600Y25400D02*
X368808Y25400D01*
X368808Y50800D02*
X355600Y50800D01*
D12*
X373380Y50800D02*
X388620Y50800D01*
X388620Y25400D02*
X373380Y25400D01*
D13*
X152400Y76200D03*
D15*
X165100Y50800D03*
X241300Y50800D03*
X50800Y76200D03*
X127000Y76200D03*
X165100Y25400D03*
X241300Y25400D03*
D16*
X98400Y51100D03*
X88900Y51100D03*
X79400Y51100D03*
X79400Y25100D03*
X88900Y25100D03*
X98400Y25100D03*
D17*
X50800Y50800D02*
X25400Y50800D01*
D18*
X50800Y50800D02*
X51100Y51100D01*
X79400Y51100D01*
X88900Y51100D01*
X38100Y63500D02*
X25400Y50800D01*
X38100Y63500D02*
X152400Y63500D01*
X165100Y50800D01*
D17*
X355600Y50800D02*
X381000Y50800D01*
X381000Y25400D02*
X355600Y25400D01*
D18*
X165100Y25400D02*
X152400Y12700D01*
X88105Y12700D02*
X79400Y21405D01*
X79400Y25100D01*
X88105Y12700D02*
X152400Y12700D01*
X98700Y25400D02*
X98400Y25100D01*
X98700Y25400D02*
X127000Y25400D01*
D19*
X99060Y35560D03*
D18*
X99060Y25760D01*
X98400Y25100D01*
X98400Y51100D02*
X126700Y51100D01*
X127000Y50800D01*
X241300Y50800D02*
X241300Y63500D01*
X228600Y76200D01*
X215900Y76200D01*
X241300Y25400D02*
X266700Y50800D01*
X279400Y50800D01*
M02*
