G04 EAGLE Gerber RS-274X export*
G75*
%MOMM*%
%FSLAX34Y34*%
%LPD*%
%INTop Copper*%
%IPPOS*%
%AMOC8*
5,1,8,0,0,1.08239X$1,22.5*%
G01*
%ADD10R,1.800000X1.600000*%
%ADD11C,1.524000*%
%ADD12P,1.649562X8X22.500000*%
%ADD13C,1.320800*%
%ADD14R,1.803000X1.600000*%
%ADD15R,1.600000X1.803000*%
%ADD16R,0.550000X1.350000*%
%ADD17P,2.336880X8X22.500000*%
%ADD18C,0.609600*%
%ADD19C,1.270000*%
%ADD20C,0.756400*%


D10*
X330200Y24100D03*
X330200Y52100D03*
X254000Y52100D03*
X254000Y24100D03*
D11*
X360680Y25400D02*
X375920Y25400D01*
X375920Y50800D02*
X360680Y50800D01*
D12*
X381000Y190500D03*
X381000Y215900D03*
D13*
X165608Y25400D02*
X152400Y25400D01*
X152400Y50800D02*
X165608Y50800D01*
X76200Y50800D02*
X62992Y50800D01*
X62992Y25400D02*
X76200Y25400D01*
D11*
X45720Y25400D02*
X30480Y25400D01*
X30480Y50800D02*
X45720Y50800D01*
D14*
X381000Y141220D03*
X381000Y112780D03*
D15*
X188980Y50800D03*
X217420Y50800D03*
X188980Y25400D03*
X217420Y25400D03*
D16*
X301600Y51851D03*
X292100Y51851D03*
X282600Y51851D03*
X282600Y24349D03*
X292100Y24349D03*
X301600Y24349D03*
D17*
X190500Y76200D03*
D18*
X329200Y25100D02*
X330200Y24100D01*
X381000Y88900D02*
X381000Y112780D01*
D19*
X331500Y25400D02*
X330200Y24100D01*
D18*
X331500Y25400D02*
X368300Y25400D01*
X329200Y25100D02*
X302351Y25100D01*
X301600Y24349D01*
X292851Y25100D02*
X292100Y24349D01*
X292851Y25100D02*
X302351Y25100D01*
D20*
X381000Y88900D03*
X393700Y50800D03*
D18*
X393700Y44450D01*
X374650Y25400D01*
X368300Y25400D01*
D19*
X331500Y50800D02*
X330200Y52100D01*
D18*
X292100Y51851D02*
X292100Y63500D01*
X294640Y66040D01*
X330200Y50800D02*
X331500Y50800D01*
X314960Y66040D02*
X294640Y66040D01*
X314960Y66040D02*
X330200Y50800D01*
X368300Y50800D02*
X400050Y82550D01*
X400050Y196850D01*
X381000Y215900D01*
D20*
X393700Y25400D03*
D18*
X368300Y50800D02*
X331500Y50800D01*
X393700Y25400D02*
X393700Y12700D01*
X152400Y50800D02*
X146050Y50800D01*
X133350Y38100D01*
X133350Y19050D01*
X146050Y6350D01*
X387350Y6350D01*
X393700Y12700D01*
X76200Y25400D02*
X38100Y25400D01*
X38100Y50800D02*
X76200Y50800D01*
D20*
X234950Y25400D03*
X311150Y38100D03*
D18*
X311150Y42301D02*
X301600Y51851D01*
X311150Y42301D02*
X311150Y38100D01*
X234950Y25400D02*
X217420Y25400D01*
X254000Y52100D02*
X255000Y51100D01*
X254000Y52100D02*
X218720Y52100D01*
X217420Y50800D01*
X255751Y51851D02*
X282600Y51851D01*
X255751Y51851D02*
X255000Y51100D01*
X255000Y25100D02*
X254000Y24100D01*
X255751Y24349D02*
X282600Y24349D01*
X255751Y24349D02*
X255000Y25100D01*
X190500Y52320D02*
X188980Y50800D01*
X190500Y52320D02*
X190500Y76200D01*
X381000Y141220D02*
X381000Y190500D01*
X188980Y25400D02*
X152400Y25400D01*
M02*
