G04 EAGLE Gerber RS-274X export*
G75*
%MOMM*%
%FSLAX34Y34*%
%LPD*%
%INBottom Copper*%
%IPPOS*%
%AMOC8*
5,1,8,0,0,1.08239X$1,22.5*%
G01*
%ADD10P,1.429621X8X292.500000*%
%ADD11P,1.429621X8X112.500000*%
%ADD12C,1.524000*%
%ADD13P,1.649562X8X22.500000*%
%ADD14C,1.320800*%
%ADD15P,1.429621X8X22.500000*%
%ADD16C,0.756400*%
%ADD17C,0.635000*%
%ADD18C,0.076200*%
%ADD19C,0.812800*%

G36*
X403118Y2544D02*
X403118Y2544D01*
X403137Y2542D01*
X403239Y2564D01*
X403341Y2580D01*
X403358Y2590D01*
X403378Y2594D01*
X403467Y2647D01*
X403558Y2696D01*
X403572Y2710D01*
X403589Y2720D01*
X403656Y2799D01*
X403728Y2874D01*
X403736Y2892D01*
X403749Y2907D01*
X403788Y3003D01*
X403831Y3097D01*
X403833Y3117D01*
X403841Y3135D01*
X403859Y3302D01*
X403859Y76200D01*
X403856Y76220D01*
X403858Y76239D01*
X403836Y76341D01*
X403820Y76443D01*
X403810Y76460D01*
X403806Y76480D01*
X403753Y76569D01*
X403704Y76660D01*
X403690Y76674D01*
X403680Y76691D01*
X403601Y76758D01*
X403526Y76829D01*
X403508Y76838D01*
X403493Y76851D01*
X403397Y76890D01*
X403303Y76933D01*
X403283Y76935D01*
X403265Y76943D01*
X403098Y76961D01*
X225806Y76961D01*
X225786Y76958D01*
X225767Y76960D01*
X225665Y76938D01*
X225563Y76921D01*
X225546Y76912D01*
X225526Y76908D01*
X225437Y76855D01*
X225346Y76806D01*
X225332Y76792D01*
X225315Y76782D01*
X225248Y76703D01*
X225176Y76628D01*
X225168Y76610D01*
X225155Y76595D01*
X225116Y76499D01*
X225073Y76405D01*
X225071Y76385D01*
X225063Y76367D01*
X225045Y76200D01*
X225045Y72412D01*
X219688Y67055D01*
X212112Y67055D01*
X206755Y72412D01*
X206755Y76200D01*
X206752Y76220D01*
X206754Y76239D01*
X206732Y76341D01*
X206716Y76443D01*
X206706Y76460D01*
X206702Y76480D01*
X206649Y76569D01*
X206600Y76660D01*
X206586Y76674D01*
X206576Y76691D01*
X206497Y76758D01*
X206422Y76829D01*
X206404Y76838D01*
X206389Y76851D01*
X206293Y76890D01*
X206199Y76933D01*
X206179Y76935D01*
X206161Y76943D01*
X205994Y76961D01*
X191262Y76961D01*
X191242Y76958D01*
X191223Y76960D01*
X191121Y76938D01*
X191019Y76921D01*
X191002Y76912D01*
X190982Y76908D01*
X190893Y76855D01*
X190802Y76806D01*
X190788Y76792D01*
X190771Y76782D01*
X190704Y76703D01*
X190633Y76628D01*
X190624Y76610D01*
X190611Y76595D01*
X190573Y76499D01*
X190529Y76405D01*
X190527Y76385D01*
X190519Y76367D01*
X190501Y76200D01*
X190501Y76199D01*
X190499Y76199D01*
X190499Y76200D01*
X190496Y76220D01*
X190498Y76239D01*
X190476Y76341D01*
X190459Y76443D01*
X190450Y76460D01*
X190446Y76480D01*
X190393Y76569D01*
X190344Y76660D01*
X190330Y76674D01*
X190320Y76691D01*
X190241Y76758D01*
X190166Y76829D01*
X190148Y76838D01*
X190133Y76851D01*
X190037Y76890D01*
X189943Y76933D01*
X189923Y76935D01*
X189905Y76943D01*
X189738Y76961D01*
X162306Y76961D01*
X162286Y76958D01*
X162267Y76960D01*
X162165Y76938D01*
X162063Y76921D01*
X162046Y76912D01*
X162026Y76908D01*
X161937Y76855D01*
X161846Y76806D01*
X161832Y76792D01*
X161815Y76782D01*
X161748Y76703D01*
X161676Y76628D01*
X161668Y76610D01*
X161655Y76595D01*
X161616Y76499D01*
X161573Y76405D01*
X161571Y76385D01*
X161563Y76367D01*
X161545Y76200D01*
X161545Y72412D01*
X156188Y67055D01*
X148612Y67055D01*
X144390Y71277D01*
X144316Y71330D01*
X144247Y71390D01*
X144217Y71402D01*
X144190Y71421D01*
X144103Y71448D01*
X144019Y71482D01*
X143978Y71486D01*
X143955Y71493D01*
X143923Y71492D01*
X143852Y71500D01*
X134111Y71500D01*
X134021Y71486D01*
X133930Y71478D01*
X133901Y71466D01*
X133869Y71461D01*
X133788Y71418D01*
X133704Y71382D01*
X133672Y71356D01*
X133651Y71345D01*
X133629Y71322D01*
X133573Y71277D01*
X130367Y68071D01*
X123633Y68071D01*
X118871Y72833D01*
X118871Y76200D01*
X118868Y76220D01*
X118870Y76239D01*
X118848Y76341D01*
X118832Y76443D01*
X118822Y76460D01*
X118818Y76480D01*
X118765Y76569D01*
X118716Y76660D01*
X118702Y76674D01*
X118692Y76691D01*
X118613Y76758D01*
X118538Y76829D01*
X118520Y76838D01*
X118505Y76851D01*
X118409Y76890D01*
X118315Y76933D01*
X118295Y76935D01*
X118277Y76943D01*
X118110Y76961D01*
X66143Y76961D01*
X66072Y76950D01*
X66001Y76948D01*
X65952Y76930D01*
X65900Y76921D01*
X65837Y76888D01*
X65770Y76863D01*
X65729Y76831D01*
X65683Y76806D01*
X65634Y76754D01*
X65578Y76710D01*
X65549Y76666D01*
X65513Y76628D01*
X65483Y76563D01*
X65445Y76503D01*
X65432Y76452D01*
X65410Y76405D01*
X65402Y76334D01*
X65384Y76264D01*
X65389Y76212D01*
X65383Y76161D01*
X65398Y76090D01*
X65404Y76019D01*
X65424Y75971D01*
X65435Y75920D01*
X65472Y75859D01*
X65500Y75793D01*
X65545Y75737D01*
X65561Y75709D01*
X65579Y75694D01*
X65605Y75662D01*
X100177Y41090D01*
X100251Y41037D01*
X100320Y40977D01*
X100350Y40965D01*
X100376Y40946D01*
X100463Y40919D01*
X100548Y40885D01*
X100589Y40881D01*
X100612Y40874D01*
X100644Y40875D01*
X100715Y40867D01*
X101258Y40867D01*
X104367Y37758D01*
X104367Y33362D01*
X101258Y30253D01*
X96862Y30253D01*
X93753Y33362D01*
X93753Y33905D01*
X93739Y33995D01*
X93731Y34086D01*
X93719Y34116D01*
X93714Y34148D01*
X93671Y34228D01*
X93635Y34312D01*
X93609Y34344D01*
X93598Y34365D01*
X93575Y34387D01*
X93530Y34443D01*
X57573Y70401D01*
X57557Y70412D01*
X57544Y70428D01*
X57457Y70484D01*
X57373Y70544D01*
X57354Y70550D01*
X57337Y70561D01*
X57237Y70586D01*
X57138Y70617D01*
X57118Y70616D01*
X57099Y70621D01*
X56996Y70613D01*
X56892Y70610D01*
X56873Y70603D01*
X56854Y70602D01*
X56759Y70561D01*
X56661Y70526D01*
X56646Y70513D01*
X56627Y70505D01*
X56496Y70401D01*
X54167Y68071D01*
X47433Y68071D01*
X42671Y72833D01*
X42671Y76200D01*
X42668Y76220D01*
X42670Y76239D01*
X42648Y76341D01*
X42632Y76443D01*
X42622Y76460D01*
X42618Y76480D01*
X42565Y76569D01*
X42516Y76660D01*
X42502Y76674D01*
X42492Y76691D01*
X42413Y76758D01*
X42338Y76830D01*
X42320Y76838D01*
X42305Y76851D01*
X42209Y76890D01*
X42115Y76933D01*
X42095Y76935D01*
X42077Y76943D01*
X41910Y76961D01*
X3302Y76961D01*
X3282Y76958D01*
X3263Y76960D01*
X3161Y76938D01*
X3059Y76922D01*
X3042Y76912D01*
X3022Y76908D01*
X2933Y76855D01*
X2842Y76806D01*
X2828Y76792D01*
X2811Y76782D01*
X2744Y76703D01*
X2672Y76628D01*
X2664Y76610D01*
X2651Y76595D01*
X2612Y76499D01*
X2569Y76405D01*
X2567Y76385D01*
X2559Y76367D01*
X2541Y76200D01*
X2541Y3302D01*
X2544Y3282D01*
X2542Y3263D01*
X2564Y3161D01*
X2580Y3059D01*
X2590Y3042D01*
X2594Y3022D01*
X2647Y2933D01*
X2696Y2842D01*
X2710Y2828D01*
X2720Y2811D01*
X2799Y2744D01*
X2874Y2672D01*
X2892Y2664D01*
X2907Y2651D01*
X3003Y2612D01*
X3097Y2569D01*
X3117Y2567D01*
X3135Y2559D01*
X3302Y2541D01*
X403098Y2541D01*
X403118Y2544D01*
G37*
%LPC*%
G36*
X371561Y41655D02*
X371561Y41655D01*
X369248Y42613D01*
X369184Y42628D01*
X369123Y42653D01*
X369041Y42662D01*
X369009Y42669D01*
X368989Y42668D01*
X368957Y42671D01*
X353983Y42671D01*
X350995Y43909D01*
X348709Y46195D01*
X347471Y49183D01*
X347471Y52417D01*
X348709Y55405D01*
X350995Y57691D01*
X353983Y58929D01*
X368957Y58929D01*
X369021Y58939D01*
X369087Y58940D01*
X369167Y58963D01*
X369199Y58968D01*
X369217Y58978D01*
X369248Y58987D01*
X371561Y59945D01*
X390439Y59945D01*
X393800Y58553D01*
X396373Y55980D01*
X397765Y52619D01*
X397765Y48981D01*
X396373Y45620D01*
X393800Y43047D01*
X390439Y41655D01*
X371561Y41655D01*
G37*
%LPD*%
%LPC*%
G36*
X371561Y16255D02*
X371561Y16255D01*
X369248Y17213D01*
X369184Y17228D01*
X369123Y17253D01*
X369041Y17262D01*
X369009Y17269D01*
X368989Y17268D01*
X368957Y17271D01*
X353983Y17271D01*
X350995Y18509D01*
X348709Y20795D01*
X347471Y23783D01*
X347471Y27017D01*
X348709Y30005D01*
X350995Y32291D01*
X353983Y33529D01*
X368957Y33529D01*
X369021Y33539D01*
X369087Y33540D01*
X369167Y33563D01*
X369199Y33568D01*
X369217Y33578D01*
X369248Y33587D01*
X371561Y34545D01*
X390439Y34545D01*
X393800Y33153D01*
X396373Y30580D01*
X397765Y27219D01*
X397765Y23581D01*
X396373Y20220D01*
X393800Y17647D01*
X390439Y16255D01*
X371561Y16255D01*
G37*
%LPD*%
%LPC*%
G36*
X15961Y41655D02*
X15961Y41655D01*
X12600Y43047D01*
X10027Y45620D01*
X8635Y48981D01*
X8635Y52619D01*
X10027Y55980D01*
X12600Y58553D01*
X15961Y59945D01*
X34839Y59945D01*
X38200Y58553D01*
X40773Y55980D01*
X41424Y54408D01*
X41448Y54369D01*
X41464Y54326D01*
X41512Y54265D01*
X41553Y54199D01*
X41589Y54170D01*
X41617Y54134D01*
X41683Y54092D01*
X41743Y54042D01*
X41786Y54026D01*
X41824Y54001D01*
X41900Y53982D01*
X41972Y53954D01*
X42018Y53952D01*
X42063Y53941D01*
X42140Y53947D01*
X42218Y53944D01*
X42262Y53956D01*
X42308Y53960D01*
X42380Y53990D01*
X42454Y54012D01*
X42492Y54038D01*
X42534Y54056D01*
X42641Y54142D01*
X42656Y54152D01*
X42659Y54156D01*
X42665Y54161D01*
X47433Y58929D01*
X54167Y58929D01*
X58929Y54167D01*
X58929Y47433D01*
X54167Y42671D01*
X47433Y42671D01*
X42665Y47439D01*
X42628Y47466D01*
X42597Y47500D01*
X42529Y47537D01*
X42466Y47583D01*
X42422Y47596D01*
X42381Y47618D01*
X42305Y47632D01*
X42230Y47655D01*
X42185Y47654D01*
X42139Y47662D01*
X42062Y47651D01*
X41985Y47649D01*
X41941Y47633D01*
X41896Y47626D01*
X41827Y47591D01*
X41754Y47564D01*
X41718Y47535D01*
X41677Y47515D01*
X41622Y47459D01*
X41562Y47410D01*
X41537Y47372D01*
X41505Y47339D01*
X41439Y47219D01*
X41429Y47203D01*
X41427Y47199D01*
X41424Y47192D01*
X40773Y45620D01*
X38200Y43047D01*
X34839Y41655D01*
X15961Y41655D01*
G37*
%LPD*%
%LPC*%
G36*
X264575Y42671D02*
X264575Y42671D01*
X261587Y43909D01*
X259301Y46195D01*
X258063Y49183D01*
X258063Y52417D01*
X259301Y55405D01*
X261587Y57691D01*
X264575Y58929D01*
X281017Y58929D01*
X284005Y57691D01*
X286291Y55405D01*
X287529Y52417D01*
X287529Y49183D01*
X286291Y46195D01*
X284005Y43909D01*
X281017Y42671D01*
X264575Y42671D01*
G37*
%LPD*%
%LPC*%
G36*
X237933Y42671D02*
X237933Y42671D01*
X233171Y47433D01*
X233171Y54167D01*
X237933Y58929D01*
X244667Y58929D01*
X249429Y54167D01*
X249429Y47433D01*
X244667Y42671D01*
X237933Y42671D01*
G37*
%LPD*%
%LPC*%
G36*
X161733Y42671D02*
X161733Y42671D01*
X156971Y47433D01*
X156971Y54167D01*
X161733Y58929D01*
X168467Y58929D01*
X173229Y54167D01*
X173229Y47433D01*
X168467Y42671D01*
X161733Y42671D01*
G37*
%LPD*%
%LPC*%
G36*
X123633Y42671D02*
X123633Y42671D01*
X118871Y47433D01*
X118871Y54167D01*
X123633Y58929D01*
X130367Y58929D01*
X135129Y54167D01*
X135129Y47433D01*
X130367Y42671D01*
X123633Y42671D01*
G37*
%LPD*%
%LPC*%
G36*
X237933Y17271D02*
X237933Y17271D01*
X233171Y22033D01*
X233171Y28767D01*
X237933Y33529D01*
X244667Y33529D01*
X249429Y28767D01*
X249429Y22033D01*
X244667Y17271D01*
X237933Y17271D01*
G37*
%LPD*%
%LPC*%
G36*
X161733Y17271D02*
X161733Y17271D01*
X156971Y22033D01*
X156971Y28767D01*
X161733Y33529D01*
X168467Y33529D01*
X173229Y28767D01*
X173229Y22033D01*
X168467Y17271D01*
X161733Y17271D01*
G37*
%LPD*%
%LPC*%
G36*
X123633Y17271D02*
X123633Y17271D01*
X118871Y22033D01*
X118871Y28767D01*
X123633Y33529D01*
X130367Y33529D01*
X135129Y28767D01*
X135129Y22033D01*
X130367Y17271D01*
X123633Y17271D01*
G37*
%LPD*%
%LPC*%
G36*
X26923Y26923D02*
X26923Y26923D01*
X26923Y35561D01*
X33820Y35561D01*
X35399Y35311D01*
X36920Y34816D01*
X38345Y34090D01*
X39639Y33150D01*
X40770Y32019D01*
X41710Y30725D01*
X41735Y30677D01*
X41744Y30664D01*
X41750Y30649D01*
X41817Y30565D01*
X41881Y30479D01*
X41894Y30469D01*
X41904Y30457D01*
X41994Y30399D01*
X42082Y30337D01*
X42097Y30333D01*
X42111Y30324D01*
X42214Y30298D01*
X42318Y30267D01*
X42334Y30268D01*
X42349Y30264D01*
X42456Y30272D01*
X42563Y30276D01*
X42578Y30282D01*
X42594Y30283D01*
X42693Y30325D01*
X42793Y30363D01*
X42806Y30373D01*
X42821Y30379D01*
X42952Y30484D01*
X47012Y34545D01*
X49277Y34545D01*
X49277Y26923D01*
X26923Y26923D01*
G37*
%LPD*%
%LPC*%
G36*
X26923Y15239D02*
X26923Y15239D01*
X26923Y23877D01*
X49277Y23877D01*
X49277Y16255D01*
X47012Y16255D01*
X42952Y20316D01*
X42939Y20325D01*
X42929Y20338D01*
X42839Y20397D01*
X42752Y20459D01*
X42737Y20464D01*
X42723Y20473D01*
X42619Y20500D01*
X42517Y20532D01*
X42501Y20531D01*
X42485Y20535D01*
X42378Y20528D01*
X42271Y20525D01*
X42256Y20520D01*
X42240Y20519D01*
X42141Y20478D01*
X42040Y20441D01*
X42027Y20431D01*
X42013Y20425D01*
X41931Y20354D01*
X41848Y20287D01*
X41839Y20274D01*
X41827Y20263D01*
X41735Y20123D01*
X41710Y20075D01*
X40770Y18781D01*
X39639Y17650D01*
X38345Y16710D01*
X36920Y15984D01*
X35399Y15489D01*
X33820Y15239D01*
X26923Y15239D01*
G37*
%LPD*%
%LPC*%
G36*
X257171Y26923D02*
X257171Y26923D01*
X257399Y28067D01*
X258088Y29732D01*
X259089Y31230D01*
X260362Y32503D01*
X261860Y33504D01*
X263525Y34193D01*
X265291Y34545D01*
X277877Y34545D01*
X277877Y26923D01*
X257171Y26923D01*
G37*
%LPD*%
%LPC*%
G36*
X265291Y16255D02*
X265291Y16255D01*
X263525Y16607D01*
X261860Y17296D01*
X260362Y18297D01*
X259089Y19570D01*
X258088Y21068D01*
X257399Y22733D01*
X257171Y23877D01*
X277877Y23877D01*
X277877Y16255D01*
X265291Y16255D01*
G37*
%LPD*%
%LPC*%
G36*
X7734Y26923D02*
X7734Y26923D01*
X7869Y27779D01*
X8364Y29300D01*
X9090Y30725D01*
X10030Y32019D01*
X11161Y33150D01*
X12455Y34090D01*
X13880Y34816D01*
X15401Y35311D01*
X16980Y35561D01*
X23877Y35561D01*
X23877Y26923D01*
X7734Y26923D01*
G37*
%LPD*%
%LPC*%
G36*
X16980Y15239D02*
X16980Y15239D01*
X15401Y15489D01*
X13880Y15984D01*
X12455Y16710D01*
X11161Y17650D01*
X10030Y18781D01*
X9090Y20075D01*
X8364Y21500D01*
X7869Y23021D01*
X7734Y23877D01*
X23877Y23877D01*
X23877Y15239D01*
X16980Y15239D01*
G37*
%LPD*%
%LPC*%
G36*
X192023Y66039D02*
X192023Y66039D01*
X192023Y74677D01*
X200661Y74677D01*
X200661Y71991D01*
X194709Y66039D01*
X192023Y66039D01*
G37*
%LPD*%
%LPC*%
G36*
X186291Y66039D02*
X186291Y66039D01*
X180339Y71991D01*
X180339Y74677D01*
X188977Y74677D01*
X188977Y66039D01*
X186291Y66039D01*
G37*
%LPD*%
%LPC*%
G36*
X52323Y26923D02*
X52323Y26923D01*
X52323Y34545D01*
X54588Y34545D01*
X59945Y29188D01*
X59945Y26923D01*
X52323Y26923D01*
G37*
%LPD*%
%LPC*%
G36*
X52323Y16255D02*
X52323Y16255D01*
X52323Y23877D01*
X59945Y23877D01*
X59945Y21612D01*
X54588Y16255D01*
X52323Y16255D01*
G37*
%LPD*%
%LPC*%
G36*
X280923Y26923D02*
X280923Y26923D01*
X280923Y34421D01*
X282067Y34193D01*
X283732Y33504D01*
X285230Y32503D01*
X286503Y31230D01*
X287504Y29732D01*
X288193Y28067D01*
X288421Y26923D01*
X280923Y26923D01*
G37*
%LPD*%
%LPC*%
G36*
X280923Y23877D02*
X280923Y23877D01*
X288421Y23877D01*
X288193Y22733D01*
X287504Y21068D01*
X286503Y19570D01*
X285230Y18297D01*
X283732Y17296D01*
X282067Y16607D01*
X280923Y16379D01*
X280923Y23877D01*
G37*
%LPD*%
%LPC*%
G36*
X279399Y25399D02*
X279399Y25399D01*
X279399Y25401D01*
X279401Y25401D01*
X279401Y25399D01*
X279399Y25399D01*
G37*
%LPD*%
%LPC*%
G36*
X50799Y25399D02*
X50799Y25399D01*
X50799Y25401D01*
X50801Y25401D01*
X50801Y25399D01*
X50799Y25399D01*
G37*
%LPD*%
%LPC*%
G36*
X25399Y25399D02*
X25399Y25399D01*
X25399Y25401D01*
X25401Y25401D01*
X25401Y25399D01*
X25399Y25399D01*
G37*
%LPD*%
D10*
X50800Y50800D03*
X50800Y25400D03*
D11*
X127000Y25400D03*
X127000Y50800D03*
D12*
X33020Y50800D02*
X17780Y50800D01*
X17780Y25400D02*
X33020Y25400D01*
D13*
X215900Y76200D03*
X190500Y76200D03*
D14*
X266192Y50800D02*
X279400Y50800D01*
X279400Y25400D02*
X266192Y25400D01*
X355600Y25400D02*
X368808Y25400D01*
X368808Y50800D02*
X355600Y50800D01*
D12*
X373380Y50800D02*
X388620Y50800D01*
X388620Y25400D02*
X373380Y25400D01*
D13*
X152400Y76200D03*
D15*
X165100Y50800D03*
X241300Y50800D03*
X50800Y76200D03*
X127000Y76200D03*
X165100Y25400D03*
X241300Y25400D03*
D16*
X99060Y35560D03*
D17*
X58420Y76200D01*
X50800Y76200D01*
D18*
X355600Y88900D02*
X355600Y355600D01*
X355600Y88900D02*
X50800Y88900D01*
X50800Y355600D01*
X355600Y355600D01*
X226121Y207759D02*
X226121Y198641D01*
X226121Y207759D02*
X222631Y216184D01*
X216184Y222631D01*
X207759Y226121D01*
X198641Y226121D01*
X190216Y222631D01*
X183769Y216184D01*
X180279Y207759D01*
X180279Y198641D01*
X183769Y190216D01*
X190216Y183769D01*
X198641Y180279D01*
X207759Y180279D01*
X216184Y183769D01*
X222631Y190216D01*
X226121Y198641D01*
X355600Y89408D02*
X50800Y89408D01*
X50800Y97536D02*
X355600Y97536D01*
X355600Y105664D02*
X50800Y105664D01*
X50800Y113792D02*
X355600Y113792D01*
X355600Y121920D02*
X50800Y121920D01*
X50800Y130048D02*
X355600Y130048D01*
X355600Y138176D02*
X50800Y138176D01*
X50800Y146304D02*
X355600Y146304D01*
X355600Y154432D02*
X50800Y154432D01*
X50800Y162560D02*
X355600Y162560D01*
X355600Y170688D02*
X50800Y170688D01*
X50800Y178816D02*
X355600Y178816D01*
X187041Y186944D02*
X50800Y186944D01*
X219359Y186944D02*
X355600Y186944D01*
X181757Y195072D02*
X50800Y195072D01*
X224643Y195072D02*
X355600Y195072D01*
X180279Y203200D02*
X50800Y203200D01*
X226121Y203200D02*
X355600Y203200D01*
X181757Y211328D02*
X50800Y211328D01*
X224643Y211328D02*
X355600Y211328D01*
X187041Y219456D02*
X50800Y219456D01*
X219359Y219456D02*
X355600Y219456D01*
X355600Y227584D02*
X50800Y227584D01*
X50800Y235712D02*
X355600Y235712D01*
X355600Y243840D02*
X50800Y243840D01*
X50800Y251968D02*
X355600Y251968D01*
X355600Y260096D02*
X50800Y260096D01*
X50800Y268224D02*
X355600Y268224D01*
X355600Y276352D02*
X50800Y276352D01*
X50800Y284480D02*
X355600Y284480D01*
X355600Y292608D02*
X50800Y292608D01*
X50800Y300736D02*
X355600Y300736D01*
X355600Y308864D02*
X50800Y308864D01*
X50800Y316992D02*
X355600Y316992D01*
X355600Y325120D02*
X50800Y325120D01*
X50800Y333248D02*
X355600Y333248D01*
X355600Y341376D02*
X50800Y341376D01*
X50800Y349504D02*
X355600Y349504D01*
X56896Y355600D02*
X56896Y88900D01*
X65024Y88900D02*
X65024Y355600D01*
X73152Y355600D02*
X73152Y88900D01*
X81280Y88900D02*
X81280Y355600D01*
X89408Y355600D02*
X89408Y88900D01*
X97536Y88900D02*
X97536Y355600D01*
X105664Y355600D02*
X105664Y88900D01*
X113792Y88900D02*
X113792Y355600D01*
X121920Y355600D02*
X121920Y88900D01*
X130048Y88900D02*
X130048Y355600D01*
X138176Y355600D02*
X138176Y88900D01*
X146304Y88900D02*
X146304Y355600D01*
X154432Y355600D02*
X154432Y88900D01*
X162560Y88900D02*
X162560Y355600D01*
X170688Y355600D02*
X170688Y88900D01*
X178816Y88900D02*
X178816Y355600D01*
X186944Y187041D02*
X186944Y88900D01*
X186944Y219359D02*
X186944Y355600D01*
X195072Y181757D02*
X195072Y88900D01*
X195072Y224643D02*
X195072Y355600D01*
X203200Y180279D02*
X203200Y88900D01*
X203200Y226121D02*
X203200Y355600D01*
X211328Y181757D02*
X211328Y88900D01*
X211328Y224643D02*
X211328Y355600D01*
X219456Y187041D02*
X219456Y88900D01*
X219456Y219359D02*
X219456Y355600D01*
X227584Y355600D02*
X227584Y88900D01*
X235712Y88900D02*
X235712Y355600D01*
X243840Y355600D02*
X243840Y88900D01*
X251968Y88900D02*
X251968Y355600D01*
X260096Y355600D02*
X260096Y88900D01*
X268224Y88900D02*
X268224Y355600D01*
X276352Y355600D02*
X276352Y88900D01*
X284480Y88900D02*
X284480Y355600D01*
X292608Y355600D02*
X292608Y88900D01*
X300736Y88900D02*
X300736Y355600D01*
X308864Y355600D02*
X308864Y88900D01*
X316992Y88900D02*
X316992Y355600D01*
X325120Y355600D02*
X325120Y88900D01*
X333248Y88900D02*
X333248Y355600D01*
X341376Y355600D02*
X341376Y88900D01*
X349504Y88900D02*
X349504Y355600D01*
D17*
X152400Y76200D02*
X127000Y76200D01*
D19*
X152400Y76200D02*
X152400Y101600D01*
M02*
