G04 EAGLE Gerber RS-274X export*
G75*
%MOMM*%
%FSLAX34Y34*%
%LPD*%
%IN*%
%IPPOS*%
%AMOC8*
5,1,8,0,0,1.08239X$1,22.5*%
G01*
%ADD10C,0.254000*%


D10*
X0Y0D02*
X406400Y0D01*
X406400Y406400D01*
X0Y406400D01*
X0Y0D01*
X223200Y202596D02*
X223127Y201389D01*
X222981Y200189D01*
X222763Y199000D01*
X222474Y197827D01*
X222115Y196673D01*
X221686Y195543D01*
X221190Y194441D01*
X220628Y193370D01*
X220003Y192336D01*
X219316Y191341D01*
X218571Y190390D01*
X217769Y189485D01*
X216915Y188631D01*
X216010Y187829D01*
X215059Y187084D01*
X214064Y186397D01*
X213030Y185772D01*
X211959Y185210D01*
X210857Y184714D01*
X209727Y184285D01*
X208573Y183926D01*
X207400Y183637D01*
X206211Y183419D01*
X205011Y183273D01*
X203804Y183200D01*
X202596Y183200D01*
X201389Y183273D01*
X200189Y183419D01*
X199000Y183637D01*
X197827Y183926D01*
X196673Y184285D01*
X195543Y184714D01*
X194441Y185210D01*
X193370Y185772D01*
X192336Y186397D01*
X191341Y187084D01*
X190390Y187829D01*
X189485Y188631D01*
X188631Y189485D01*
X187829Y190390D01*
X187084Y191341D01*
X186397Y192336D01*
X185772Y193370D01*
X185210Y194441D01*
X184714Y195543D01*
X184285Y196673D01*
X183926Y197827D01*
X183637Y199000D01*
X183419Y200189D01*
X183273Y201389D01*
X183200Y202596D01*
X183200Y203804D01*
X183273Y205011D01*
X183419Y206211D01*
X183637Y207400D01*
X183926Y208573D01*
X184285Y209727D01*
X184714Y210857D01*
X185210Y211959D01*
X185772Y213030D01*
X186397Y214064D01*
X187084Y215059D01*
X187829Y216010D01*
X188631Y216915D01*
X189485Y217769D01*
X190390Y218571D01*
X191341Y219316D01*
X192336Y220003D01*
X193370Y220628D01*
X194441Y221190D01*
X195543Y221686D01*
X196673Y222115D01*
X197827Y222474D01*
X199000Y222763D01*
X200189Y222981D01*
X201389Y223127D01*
X202596Y223200D01*
X203804Y223200D01*
X205011Y223127D01*
X206211Y222981D01*
X207400Y222763D01*
X208573Y222474D01*
X209727Y222115D01*
X210857Y221686D01*
X211959Y221190D01*
X213030Y220628D01*
X214064Y220003D01*
X215059Y219316D01*
X216010Y218571D01*
X216915Y217769D01*
X217769Y216915D01*
X218571Y216010D01*
X219316Y215059D01*
X220003Y214064D01*
X220628Y213030D01*
X221190Y211959D01*
X221686Y210857D01*
X222115Y209727D01*
X222474Y208573D01*
X222763Y207400D01*
X222981Y206211D01*
X223127Y205011D01*
X223200Y203804D01*
X223200Y202596D01*
M02*
