G04 EAGLE Gerber RS-274X export*
G75*
%MOMM*%
%FSLAX34Y34*%
%LPD*%
%INSilkscreen Top*%
%IPPOS*%
%AMOC8*
5,1,8,0,0,1.08239X$1,22.5*%
G01*
%ADD10C,0.152400*%
%ADD11C,0.101600*%
%ADD12C,0.076200*%
%ADD13C,0.127000*%
%ADD14C,0.203200*%
%ADD15C,0.254000*%
%ADD16C,0.000000*%


D10*
X66568Y369062D02*
X66568Y385318D01*
X75599Y369062D01*
X75599Y385318D01*
X85669Y375384D02*
X89733Y375384D01*
X85669Y375384D02*
X85557Y375382D01*
X85446Y375376D01*
X85335Y375366D01*
X85224Y375353D01*
X85114Y375335D01*
X85005Y375313D01*
X84896Y375288D01*
X84788Y375259D01*
X84682Y375226D01*
X84576Y375189D01*
X84472Y375149D01*
X84370Y375105D01*
X84269Y375057D01*
X84170Y375006D01*
X84072Y374951D01*
X83977Y374893D01*
X83884Y374832D01*
X83793Y374767D01*
X83704Y374699D01*
X83618Y374628D01*
X83535Y374555D01*
X83454Y374478D01*
X83375Y374398D01*
X83300Y374316D01*
X83228Y374231D01*
X83158Y374144D01*
X83092Y374054D01*
X83029Y373962D01*
X82969Y373867D01*
X82913Y373771D01*
X82860Y373673D01*
X82811Y373573D01*
X82765Y373471D01*
X82723Y373368D01*
X82684Y373263D01*
X82649Y373157D01*
X82618Y373050D01*
X82591Y372942D01*
X82567Y372833D01*
X82548Y372723D01*
X82532Y372613D01*
X82520Y372502D01*
X82512Y372390D01*
X82508Y372279D01*
X82508Y372167D01*
X82512Y372056D01*
X82520Y371944D01*
X82532Y371833D01*
X82548Y371723D01*
X82567Y371613D01*
X82591Y371504D01*
X82618Y371396D01*
X82649Y371289D01*
X82684Y371183D01*
X82723Y371078D01*
X82765Y370975D01*
X82811Y370873D01*
X82860Y370773D01*
X82913Y370675D01*
X82969Y370579D01*
X83029Y370484D01*
X83092Y370392D01*
X83158Y370302D01*
X83228Y370215D01*
X83300Y370130D01*
X83375Y370048D01*
X83454Y369968D01*
X83535Y369891D01*
X83618Y369818D01*
X83704Y369747D01*
X83793Y369679D01*
X83884Y369614D01*
X83977Y369553D01*
X84072Y369495D01*
X84170Y369440D01*
X84269Y369389D01*
X84370Y369341D01*
X84472Y369297D01*
X84576Y369257D01*
X84682Y369220D01*
X84788Y369187D01*
X84896Y369158D01*
X85005Y369133D01*
X85114Y369111D01*
X85224Y369093D01*
X85335Y369080D01*
X85446Y369070D01*
X85557Y369064D01*
X85669Y369062D01*
X89733Y369062D01*
X89733Y377190D01*
X89732Y377190D02*
X89730Y377291D01*
X89724Y377392D01*
X89715Y377493D01*
X89702Y377594D01*
X89685Y377694D01*
X89664Y377793D01*
X89640Y377891D01*
X89612Y377988D01*
X89580Y378085D01*
X89545Y378180D01*
X89506Y378273D01*
X89464Y378365D01*
X89418Y378456D01*
X89369Y378545D01*
X89317Y378631D01*
X89261Y378716D01*
X89203Y378799D01*
X89141Y378879D01*
X89076Y378957D01*
X89009Y379033D01*
X88939Y379106D01*
X88866Y379176D01*
X88790Y379243D01*
X88712Y379308D01*
X88632Y379370D01*
X88549Y379428D01*
X88464Y379484D01*
X88378Y379536D01*
X88289Y379585D01*
X88198Y379631D01*
X88106Y379673D01*
X88013Y379712D01*
X87918Y379747D01*
X87821Y379779D01*
X87724Y379807D01*
X87626Y379831D01*
X87527Y379852D01*
X87427Y379869D01*
X87326Y379882D01*
X87225Y379891D01*
X87124Y379897D01*
X87023Y379899D01*
X83411Y379899D01*
X97170Y379899D02*
X97170Y369062D01*
X97170Y379899D02*
X101686Y379899D01*
X101790Y379897D01*
X101893Y379891D01*
X101997Y379881D01*
X102100Y379867D01*
X102202Y379849D01*
X102303Y379828D01*
X102404Y379802D01*
X102503Y379773D01*
X102602Y379740D01*
X102699Y379703D01*
X102794Y379662D01*
X102888Y379618D01*
X102980Y379570D01*
X103070Y379519D01*
X103159Y379464D01*
X103245Y379406D01*
X103328Y379344D01*
X103410Y379280D01*
X103488Y379212D01*
X103564Y379142D01*
X103638Y379069D01*
X103708Y378992D01*
X103776Y378914D01*
X103840Y378832D01*
X103902Y378749D01*
X103960Y378663D01*
X104015Y378574D01*
X104066Y378484D01*
X104114Y378392D01*
X104158Y378298D01*
X104199Y378203D01*
X104236Y378106D01*
X104269Y378007D01*
X104298Y377908D01*
X104324Y377807D01*
X104345Y377706D01*
X104363Y377604D01*
X104377Y377501D01*
X104387Y377397D01*
X104393Y377294D01*
X104395Y377190D01*
X104395Y369062D01*
X111238Y372674D02*
X111238Y376287D01*
X111239Y376287D02*
X111241Y376406D01*
X111247Y376526D01*
X111257Y376645D01*
X111271Y376763D01*
X111288Y376882D01*
X111310Y376999D01*
X111335Y377116D01*
X111365Y377231D01*
X111398Y377346D01*
X111435Y377460D01*
X111475Y377572D01*
X111520Y377683D01*
X111568Y377792D01*
X111619Y377900D01*
X111674Y378006D01*
X111733Y378110D01*
X111795Y378212D01*
X111860Y378312D01*
X111929Y378410D01*
X112001Y378506D01*
X112076Y378599D01*
X112153Y378689D01*
X112234Y378777D01*
X112318Y378862D01*
X112405Y378944D01*
X112494Y379024D01*
X112586Y379100D01*
X112680Y379174D01*
X112777Y379244D01*
X112875Y379311D01*
X112976Y379375D01*
X113080Y379435D01*
X113185Y379492D01*
X113292Y379545D01*
X113400Y379595D01*
X113510Y379641D01*
X113622Y379683D01*
X113735Y379722D01*
X113849Y379757D01*
X113964Y379788D01*
X114081Y379816D01*
X114198Y379839D01*
X114315Y379859D01*
X114434Y379875D01*
X114553Y379887D01*
X114672Y379895D01*
X114791Y379899D01*
X114911Y379899D01*
X115030Y379895D01*
X115149Y379887D01*
X115268Y379875D01*
X115387Y379859D01*
X115504Y379839D01*
X115621Y379816D01*
X115738Y379788D01*
X115853Y379757D01*
X115967Y379722D01*
X116080Y379683D01*
X116192Y379641D01*
X116302Y379595D01*
X116410Y379545D01*
X116517Y379492D01*
X116622Y379435D01*
X116726Y379375D01*
X116827Y379311D01*
X116925Y379244D01*
X117022Y379174D01*
X117116Y379100D01*
X117208Y379024D01*
X117297Y378944D01*
X117384Y378862D01*
X117468Y378777D01*
X117549Y378689D01*
X117626Y378599D01*
X117701Y378506D01*
X117773Y378410D01*
X117842Y378312D01*
X117907Y378212D01*
X117969Y378110D01*
X118028Y378006D01*
X118083Y377900D01*
X118134Y377792D01*
X118182Y377683D01*
X118227Y377572D01*
X118267Y377460D01*
X118304Y377346D01*
X118337Y377231D01*
X118367Y377116D01*
X118392Y376999D01*
X118414Y376882D01*
X118431Y376763D01*
X118445Y376645D01*
X118455Y376526D01*
X118461Y376406D01*
X118463Y376287D01*
X118463Y372674D01*
X118461Y372555D01*
X118455Y372435D01*
X118445Y372316D01*
X118431Y372198D01*
X118414Y372079D01*
X118392Y371962D01*
X118367Y371845D01*
X118337Y371730D01*
X118304Y371615D01*
X118267Y371501D01*
X118227Y371389D01*
X118182Y371278D01*
X118134Y371169D01*
X118083Y371061D01*
X118028Y370955D01*
X117969Y370851D01*
X117907Y370749D01*
X117842Y370649D01*
X117773Y370551D01*
X117701Y370455D01*
X117626Y370362D01*
X117549Y370272D01*
X117468Y370184D01*
X117384Y370099D01*
X117297Y370017D01*
X117208Y369937D01*
X117116Y369861D01*
X117022Y369787D01*
X116925Y369717D01*
X116827Y369650D01*
X116726Y369586D01*
X116622Y369526D01*
X116517Y369469D01*
X116410Y369416D01*
X116302Y369366D01*
X116192Y369320D01*
X116080Y369278D01*
X115967Y369239D01*
X115853Y369204D01*
X115738Y369173D01*
X115621Y369145D01*
X115504Y369122D01*
X115387Y369102D01*
X115268Y369086D01*
X115149Y369074D01*
X115030Y369066D01*
X114911Y369062D01*
X114791Y369062D01*
X114672Y369066D01*
X114553Y369074D01*
X114434Y369086D01*
X114315Y369102D01*
X114198Y369122D01*
X114081Y369145D01*
X113964Y369173D01*
X113849Y369204D01*
X113735Y369239D01*
X113622Y369278D01*
X113510Y369320D01*
X113400Y369366D01*
X113292Y369416D01*
X113185Y369469D01*
X113080Y369526D01*
X112976Y369586D01*
X112875Y369650D01*
X112777Y369717D01*
X112680Y369787D01*
X112586Y369861D01*
X112494Y369937D01*
X112405Y370017D01*
X112318Y370099D01*
X112234Y370184D01*
X112153Y370272D01*
X112076Y370362D01*
X112001Y370455D01*
X111929Y370551D01*
X111860Y370649D01*
X111795Y370749D01*
X111733Y370851D01*
X111674Y370955D01*
X111619Y371061D01*
X111568Y371169D01*
X111520Y371278D01*
X111475Y371389D01*
X111435Y371501D01*
X111398Y371615D01*
X111365Y371730D01*
X111335Y371845D01*
X111310Y371962D01*
X111288Y372079D01*
X111271Y372198D01*
X111257Y372316D01*
X111247Y372435D01*
X111241Y372555D01*
X111239Y372674D01*
X133782Y369062D02*
X133782Y385318D01*
X138298Y385318D01*
X138429Y385316D01*
X138561Y385310D01*
X138692Y385301D01*
X138822Y385287D01*
X138953Y385270D01*
X139082Y385249D01*
X139211Y385225D01*
X139339Y385196D01*
X139467Y385164D01*
X139593Y385128D01*
X139718Y385089D01*
X139843Y385046D01*
X139965Y384999D01*
X140087Y384949D01*
X140207Y384895D01*
X140325Y384838D01*
X140441Y384777D01*
X140556Y384713D01*
X140669Y384646D01*
X140780Y384575D01*
X140888Y384501D01*
X140995Y384424D01*
X141099Y384344D01*
X141201Y384261D01*
X141300Y384176D01*
X141397Y384087D01*
X141491Y383995D01*
X141583Y383901D01*
X141672Y383804D01*
X141757Y383705D01*
X141840Y383603D01*
X141920Y383499D01*
X141997Y383392D01*
X142071Y383284D01*
X142142Y383173D01*
X142209Y383060D01*
X142273Y382945D01*
X142334Y382829D01*
X142391Y382711D01*
X142445Y382591D01*
X142495Y382469D01*
X142542Y382347D01*
X142585Y382222D01*
X142624Y382097D01*
X142660Y381971D01*
X142692Y381843D01*
X142721Y381715D01*
X142745Y381586D01*
X142766Y381457D01*
X142783Y381326D01*
X142797Y381196D01*
X142806Y381065D01*
X142812Y380933D01*
X142814Y380802D01*
X142813Y380802D02*
X142813Y373578D01*
X142814Y373578D02*
X142812Y373447D01*
X142806Y373315D01*
X142797Y373184D01*
X142783Y373054D01*
X142766Y372923D01*
X142745Y372794D01*
X142721Y372665D01*
X142692Y372537D01*
X142660Y372409D01*
X142624Y372283D01*
X142585Y372158D01*
X142542Y372033D01*
X142495Y371911D01*
X142445Y371789D01*
X142391Y371669D01*
X142334Y371551D01*
X142273Y371435D01*
X142209Y371320D01*
X142142Y371207D01*
X142071Y371096D01*
X141997Y370988D01*
X141920Y370881D01*
X141840Y370777D01*
X141757Y370675D01*
X141672Y370576D01*
X141583Y370479D01*
X141491Y370385D01*
X141397Y370293D01*
X141300Y370204D01*
X141201Y370119D01*
X141099Y370036D01*
X140995Y369956D01*
X140888Y369879D01*
X140780Y369805D01*
X140669Y369734D01*
X140556Y369667D01*
X140441Y369603D01*
X140325Y369542D01*
X140207Y369485D01*
X140087Y369431D01*
X139965Y369381D01*
X139843Y369334D01*
X139718Y369291D01*
X139593Y369252D01*
X139467Y369216D01*
X139339Y369184D01*
X139211Y369155D01*
X139082Y369131D01*
X138952Y369110D01*
X138822Y369093D01*
X138692Y369079D01*
X138561Y369070D01*
X138429Y369064D01*
X138298Y369062D01*
X133782Y369062D01*
X149760Y369062D02*
X149760Y379899D01*
X149309Y384415D02*
X149309Y385318D01*
X150212Y385318D01*
X150212Y384415D01*
X149309Y384415D01*
X156847Y379899D02*
X156847Y369062D01*
X156847Y379899D02*
X164975Y379899D01*
X165076Y379897D01*
X165177Y379891D01*
X165278Y379882D01*
X165379Y379869D01*
X165479Y379852D01*
X165578Y379831D01*
X165676Y379807D01*
X165773Y379779D01*
X165870Y379747D01*
X165965Y379712D01*
X166058Y379673D01*
X166150Y379631D01*
X166241Y379585D01*
X166330Y379536D01*
X166416Y379484D01*
X166501Y379428D01*
X166584Y379370D01*
X166664Y379308D01*
X166742Y379243D01*
X166818Y379176D01*
X166891Y379106D01*
X166961Y379033D01*
X167028Y378957D01*
X167093Y378879D01*
X167155Y378799D01*
X167213Y378716D01*
X167269Y378631D01*
X167321Y378545D01*
X167370Y378456D01*
X167416Y378365D01*
X167458Y378273D01*
X167497Y378180D01*
X167532Y378085D01*
X167564Y377988D01*
X167592Y377891D01*
X167616Y377793D01*
X167637Y377694D01*
X167654Y377594D01*
X167667Y377493D01*
X167676Y377392D01*
X167682Y377291D01*
X167684Y377190D01*
X167684Y369062D01*
X162265Y369062D02*
X162265Y379899D01*
X175604Y379899D02*
X175604Y369062D01*
X175604Y379899D02*
X183732Y379899D01*
X183833Y379897D01*
X183934Y379891D01*
X184035Y379882D01*
X184136Y379869D01*
X184236Y379852D01*
X184335Y379831D01*
X184433Y379807D01*
X184530Y379779D01*
X184627Y379747D01*
X184722Y379712D01*
X184815Y379673D01*
X184907Y379631D01*
X184998Y379585D01*
X185087Y379536D01*
X185173Y379484D01*
X185258Y379428D01*
X185341Y379370D01*
X185421Y379308D01*
X185499Y379243D01*
X185575Y379176D01*
X185648Y379106D01*
X185718Y379033D01*
X185785Y378957D01*
X185850Y378879D01*
X185912Y378799D01*
X185970Y378716D01*
X186026Y378631D01*
X186078Y378545D01*
X186127Y378456D01*
X186173Y378365D01*
X186215Y378273D01*
X186254Y378180D01*
X186289Y378085D01*
X186321Y377988D01*
X186349Y377891D01*
X186373Y377793D01*
X186394Y377694D01*
X186411Y377594D01*
X186424Y377493D01*
X186433Y377392D01*
X186439Y377291D01*
X186441Y377190D01*
X186442Y377190D02*
X186442Y369062D01*
X181023Y369062D02*
X181023Y379899D01*
X196272Y369062D02*
X200788Y369062D01*
X196272Y369062D02*
X196171Y369064D01*
X196070Y369070D01*
X195969Y369079D01*
X195868Y369092D01*
X195768Y369109D01*
X195669Y369130D01*
X195571Y369154D01*
X195474Y369182D01*
X195377Y369214D01*
X195282Y369249D01*
X195189Y369288D01*
X195097Y369330D01*
X195006Y369376D01*
X194918Y369425D01*
X194831Y369477D01*
X194746Y369533D01*
X194663Y369591D01*
X194583Y369653D01*
X194505Y369718D01*
X194429Y369785D01*
X194356Y369855D01*
X194286Y369928D01*
X194219Y370004D01*
X194154Y370082D01*
X194092Y370162D01*
X194034Y370245D01*
X193978Y370330D01*
X193926Y370417D01*
X193877Y370505D01*
X193831Y370596D01*
X193789Y370688D01*
X193750Y370781D01*
X193715Y370876D01*
X193683Y370973D01*
X193655Y371070D01*
X193631Y371168D01*
X193610Y371267D01*
X193593Y371367D01*
X193580Y371468D01*
X193571Y371569D01*
X193565Y371670D01*
X193563Y371771D01*
X193563Y376287D01*
X193565Y376406D01*
X193571Y376526D01*
X193581Y376645D01*
X193595Y376763D01*
X193612Y376882D01*
X193634Y376999D01*
X193659Y377116D01*
X193689Y377231D01*
X193722Y377346D01*
X193759Y377460D01*
X193799Y377572D01*
X193844Y377683D01*
X193892Y377792D01*
X193943Y377900D01*
X193998Y378006D01*
X194057Y378110D01*
X194119Y378212D01*
X194184Y378312D01*
X194253Y378410D01*
X194325Y378506D01*
X194400Y378599D01*
X194477Y378689D01*
X194558Y378777D01*
X194642Y378862D01*
X194729Y378944D01*
X194818Y379024D01*
X194910Y379100D01*
X195004Y379174D01*
X195101Y379244D01*
X195199Y379311D01*
X195300Y379375D01*
X195404Y379435D01*
X195509Y379492D01*
X195616Y379545D01*
X195724Y379595D01*
X195834Y379641D01*
X195946Y379683D01*
X196059Y379722D01*
X196173Y379757D01*
X196288Y379788D01*
X196405Y379816D01*
X196522Y379839D01*
X196639Y379859D01*
X196758Y379875D01*
X196877Y379887D01*
X196996Y379895D01*
X197115Y379899D01*
X197235Y379899D01*
X197354Y379895D01*
X197473Y379887D01*
X197592Y379875D01*
X197711Y379859D01*
X197828Y379839D01*
X197945Y379816D01*
X198062Y379788D01*
X198177Y379757D01*
X198291Y379722D01*
X198404Y379683D01*
X198516Y379641D01*
X198626Y379595D01*
X198734Y379545D01*
X198841Y379492D01*
X198946Y379435D01*
X199050Y379375D01*
X199151Y379311D01*
X199249Y379244D01*
X199346Y379174D01*
X199440Y379100D01*
X199532Y379024D01*
X199621Y378944D01*
X199708Y378862D01*
X199792Y378777D01*
X199873Y378689D01*
X199950Y378599D01*
X200025Y378506D01*
X200097Y378410D01*
X200166Y378312D01*
X200231Y378212D01*
X200293Y378110D01*
X200352Y378006D01*
X200407Y377900D01*
X200458Y377792D01*
X200506Y377683D01*
X200551Y377572D01*
X200591Y377460D01*
X200628Y377346D01*
X200661Y377231D01*
X200691Y377116D01*
X200716Y376999D01*
X200738Y376882D01*
X200755Y376763D01*
X200769Y376645D01*
X200779Y376526D01*
X200785Y376406D01*
X200787Y376287D01*
X200788Y376287D02*
X200788Y374481D01*
X193563Y374481D01*
X207716Y369062D02*
X207716Y379899D01*
X213134Y379899D01*
X213134Y378093D01*
X230001Y385318D02*
X230001Y369062D01*
X225485Y385318D02*
X234516Y385318D01*
X239935Y376287D02*
X239935Y372674D01*
X239936Y376287D02*
X239938Y376406D01*
X239944Y376526D01*
X239954Y376645D01*
X239968Y376763D01*
X239985Y376882D01*
X240007Y376999D01*
X240032Y377116D01*
X240062Y377231D01*
X240095Y377346D01*
X240132Y377460D01*
X240172Y377572D01*
X240217Y377683D01*
X240265Y377792D01*
X240316Y377900D01*
X240371Y378006D01*
X240430Y378110D01*
X240492Y378212D01*
X240557Y378312D01*
X240626Y378410D01*
X240698Y378506D01*
X240773Y378599D01*
X240850Y378689D01*
X240931Y378777D01*
X241015Y378862D01*
X241102Y378944D01*
X241191Y379024D01*
X241283Y379100D01*
X241377Y379174D01*
X241474Y379244D01*
X241572Y379311D01*
X241673Y379375D01*
X241777Y379435D01*
X241882Y379492D01*
X241989Y379545D01*
X242097Y379595D01*
X242207Y379641D01*
X242319Y379683D01*
X242432Y379722D01*
X242546Y379757D01*
X242661Y379788D01*
X242778Y379816D01*
X242895Y379839D01*
X243012Y379859D01*
X243131Y379875D01*
X243250Y379887D01*
X243369Y379895D01*
X243488Y379899D01*
X243608Y379899D01*
X243727Y379895D01*
X243846Y379887D01*
X243965Y379875D01*
X244084Y379859D01*
X244201Y379839D01*
X244318Y379816D01*
X244435Y379788D01*
X244550Y379757D01*
X244664Y379722D01*
X244777Y379683D01*
X244889Y379641D01*
X244999Y379595D01*
X245107Y379545D01*
X245214Y379492D01*
X245319Y379435D01*
X245423Y379375D01*
X245524Y379311D01*
X245622Y379244D01*
X245719Y379174D01*
X245813Y379100D01*
X245905Y379024D01*
X245994Y378944D01*
X246081Y378862D01*
X246165Y378777D01*
X246246Y378689D01*
X246323Y378599D01*
X246398Y378506D01*
X246470Y378410D01*
X246539Y378312D01*
X246604Y378212D01*
X246666Y378110D01*
X246725Y378006D01*
X246780Y377900D01*
X246831Y377792D01*
X246879Y377683D01*
X246924Y377572D01*
X246964Y377460D01*
X247001Y377346D01*
X247034Y377231D01*
X247064Y377116D01*
X247089Y376999D01*
X247111Y376882D01*
X247128Y376763D01*
X247142Y376645D01*
X247152Y376526D01*
X247158Y376406D01*
X247160Y376287D01*
X247160Y372674D01*
X247158Y372555D01*
X247152Y372435D01*
X247142Y372316D01*
X247128Y372198D01*
X247111Y372079D01*
X247089Y371962D01*
X247064Y371845D01*
X247034Y371730D01*
X247001Y371615D01*
X246964Y371501D01*
X246924Y371389D01*
X246879Y371278D01*
X246831Y371169D01*
X246780Y371061D01*
X246725Y370955D01*
X246666Y370851D01*
X246604Y370749D01*
X246539Y370649D01*
X246470Y370551D01*
X246398Y370455D01*
X246323Y370362D01*
X246246Y370272D01*
X246165Y370184D01*
X246081Y370099D01*
X245994Y370017D01*
X245905Y369937D01*
X245813Y369861D01*
X245719Y369787D01*
X245622Y369717D01*
X245524Y369650D01*
X245423Y369586D01*
X245319Y369526D01*
X245214Y369469D01*
X245107Y369416D01*
X244999Y369366D01*
X244889Y369320D01*
X244777Y369278D01*
X244664Y369239D01*
X244550Y369204D01*
X244435Y369173D01*
X244318Y369145D01*
X244201Y369122D01*
X244084Y369102D01*
X243965Y369086D01*
X243846Y369074D01*
X243727Y369066D01*
X243608Y369062D01*
X243488Y369062D01*
X243369Y369066D01*
X243250Y369074D01*
X243131Y369086D01*
X243012Y369102D01*
X242895Y369122D01*
X242778Y369145D01*
X242661Y369173D01*
X242546Y369204D01*
X242432Y369239D01*
X242319Y369278D01*
X242207Y369320D01*
X242097Y369366D01*
X241989Y369416D01*
X241882Y369469D01*
X241777Y369526D01*
X241673Y369586D01*
X241572Y369650D01*
X241474Y369717D01*
X241377Y369787D01*
X241283Y369861D01*
X241191Y369937D01*
X241102Y370017D01*
X241015Y370099D01*
X240931Y370184D01*
X240850Y370272D01*
X240773Y370362D01*
X240698Y370455D01*
X240626Y370551D01*
X240557Y370649D01*
X240492Y370749D01*
X240430Y370851D01*
X240371Y370955D01*
X240316Y371061D01*
X240265Y371169D01*
X240217Y371278D01*
X240172Y371389D01*
X240132Y371501D01*
X240095Y371615D01*
X240062Y371730D01*
X240032Y371845D01*
X240007Y371962D01*
X239985Y372079D01*
X239968Y372198D01*
X239954Y372316D01*
X239944Y372435D01*
X239938Y372555D01*
X239936Y372674D01*
X254004Y371771D02*
X254004Y379899D01*
X254004Y371771D02*
X254006Y371670D01*
X254012Y371569D01*
X254021Y371468D01*
X254034Y371367D01*
X254051Y371267D01*
X254072Y371168D01*
X254096Y371070D01*
X254124Y370973D01*
X254156Y370876D01*
X254191Y370781D01*
X254230Y370688D01*
X254272Y370596D01*
X254318Y370505D01*
X254367Y370417D01*
X254419Y370330D01*
X254475Y370245D01*
X254533Y370162D01*
X254595Y370082D01*
X254660Y370004D01*
X254727Y369928D01*
X254797Y369855D01*
X254870Y369785D01*
X254946Y369718D01*
X255024Y369653D01*
X255104Y369591D01*
X255187Y369533D01*
X255272Y369477D01*
X255359Y369425D01*
X255447Y369376D01*
X255538Y369330D01*
X255630Y369288D01*
X255723Y369249D01*
X255818Y369214D01*
X255915Y369182D01*
X256012Y369154D01*
X256110Y369130D01*
X256209Y369109D01*
X256309Y369092D01*
X256410Y369079D01*
X256511Y369070D01*
X256612Y369064D01*
X256713Y369062D01*
X261228Y369062D01*
X261228Y379899D01*
X270799Y369062D02*
X274411Y369062D01*
X270799Y369062D02*
X270698Y369064D01*
X270597Y369070D01*
X270496Y369079D01*
X270395Y369092D01*
X270295Y369109D01*
X270196Y369130D01*
X270098Y369154D01*
X270001Y369182D01*
X269904Y369214D01*
X269809Y369249D01*
X269716Y369288D01*
X269624Y369330D01*
X269533Y369376D01*
X269445Y369425D01*
X269358Y369477D01*
X269273Y369533D01*
X269190Y369591D01*
X269110Y369653D01*
X269032Y369718D01*
X268956Y369785D01*
X268883Y369855D01*
X268813Y369928D01*
X268746Y370004D01*
X268681Y370082D01*
X268619Y370162D01*
X268561Y370245D01*
X268505Y370330D01*
X268453Y370417D01*
X268404Y370505D01*
X268358Y370596D01*
X268316Y370688D01*
X268277Y370781D01*
X268242Y370876D01*
X268210Y370973D01*
X268182Y371070D01*
X268158Y371168D01*
X268137Y371267D01*
X268120Y371367D01*
X268107Y371468D01*
X268098Y371569D01*
X268092Y371670D01*
X268090Y371771D01*
X268089Y371771D02*
X268089Y377190D01*
X268090Y377190D02*
X268092Y377291D01*
X268098Y377392D01*
X268107Y377493D01*
X268120Y377594D01*
X268137Y377694D01*
X268158Y377793D01*
X268182Y377891D01*
X268210Y377988D01*
X268242Y378085D01*
X268277Y378180D01*
X268316Y378273D01*
X268358Y378365D01*
X268404Y378456D01*
X268453Y378545D01*
X268505Y378631D01*
X268561Y378716D01*
X268619Y378799D01*
X268681Y378879D01*
X268746Y378957D01*
X268813Y379033D01*
X268883Y379106D01*
X268956Y379176D01*
X269032Y379243D01*
X269110Y379308D01*
X269190Y379370D01*
X269273Y379428D01*
X269358Y379484D01*
X269445Y379536D01*
X269533Y379585D01*
X269624Y379631D01*
X269716Y379673D01*
X269809Y379712D01*
X269904Y379747D01*
X270001Y379779D01*
X270098Y379807D01*
X270196Y379831D01*
X270295Y379852D01*
X270395Y379869D01*
X270496Y379882D01*
X270597Y379891D01*
X270698Y379897D01*
X270799Y379899D01*
X274411Y379899D01*
X280577Y385318D02*
X280577Y369062D01*
X280577Y379899D02*
X285092Y379899D01*
X285196Y379897D01*
X285299Y379891D01*
X285403Y379881D01*
X285506Y379867D01*
X285608Y379849D01*
X285709Y379828D01*
X285810Y379802D01*
X285909Y379773D01*
X286008Y379740D01*
X286105Y379703D01*
X286200Y379662D01*
X286294Y379618D01*
X286386Y379570D01*
X286476Y379519D01*
X286565Y379464D01*
X286651Y379406D01*
X286734Y379344D01*
X286816Y379280D01*
X286894Y379212D01*
X286970Y379142D01*
X287044Y379069D01*
X287114Y378992D01*
X287182Y378914D01*
X287246Y378832D01*
X287308Y378749D01*
X287366Y378663D01*
X287421Y378574D01*
X287472Y378484D01*
X287520Y378392D01*
X287564Y378298D01*
X287605Y378203D01*
X287642Y378106D01*
X287675Y378007D01*
X287704Y377908D01*
X287730Y377807D01*
X287751Y377706D01*
X287769Y377604D01*
X287783Y377501D01*
X287793Y377397D01*
X287799Y377294D01*
X287801Y377190D01*
X287801Y369062D01*
X303852Y369062D02*
X303852Y385318D01*
X308368Y385318D01*
X308501Y385316D01*
X308633Y385310D01*
X308765Y385300D01*
X308897Y385287D01*
X309029Y385269D01*
X309159Y385248D01*
X309290Y385223D01*
X309419Y385194D01*
X309547Y385161D01*
X309675Y385125D01*
X309801Y385085D01*
X309926Y385041D01*
X310050Y384993D01*
X310172Y384942D01*
X310293Y384887D01*
X310412Y384829D01*
X310530Y384767D01*
X310645Y384702D01*
X310759Y384633D01*
X310870Y384562D01*
X310979Y384486D01*
X311086Y384408D01*
X311191Y384327D01*
X311293Y384242D01*
X311393Y384155D01*
X311490Y384065D01*
X311585Y383972D01*
X311676Y383876D01*
X311765Y383778D01*
X311851Y383677D01*
X311934Y383573D01*
X312014Y383467D01*
X312090Y383359D01*
X312164Y383249D01*
X312234Y383136D01*
X312301Y383022D01*
X312364Y382905D01*
X312424Y382787D01*
X312481Y382667D01*
X312534Y382545D01*
X312583Y382422D01*
X312629Y382298D01*
X312671Y382172D01*
X312709Y382045D01*
X312744Y381917D01*
X312775Y381788D01*
X312802Y381659D01*
X312825Y381528D01*
X312845Y381397D01*
X312860Y381265D01*
X312872Y381133D01*
X312880Y381001D01*
X312884Y380868D01*
X312884Y380736D01*
X312880Y380603D01*
X312872Y380471D01*
X312860Y380339D01*
X312845Y380207D01*
X312825Y380076D01*
X312802Y379945D01*
X312775Y379816D01*
X312744Y379687D01*
X312709Y379559D01*
X312671Y379432D01*
X312629Y379306D01*
X312583Y379182D01*
X312534Y379059D01*
X312481Y378937D01*
X312424Y378817D01*
X312364Y378699D01*
X312301Y378582D01*
X312234Y378468D01*
X312164Y378355D01*
X312090Y378245D01*
X312014Y378137D01*
X311934Y378031D01*
X311851Y377927D01*
X311765Y377826D01*
X311676Y377728D01*
X311585Y377632D01*
X311490Y377539D01*
X311393Y377449D01*
X311293Y377362D01*
X311191Y377277D01*
X311086Y377196D01*
X310979Y377118D01*
X310870Y377042D01*
X310759Y376971D01*
X310645Y376902D01*
X310530Y376837D01*
X310412Y376775D01*
X310293Y376717D01*
X310172Y376662D01*
X310050Y376611D01*
X309926Y376563D01*
X309801Y376519D01*
X309675Y376479D01*
X309547Y376443D01*
X309419Y376410D01*
X309290Y376381D01*
X309159Y376356D01*
X309029Y376335D01*
X308897Y376317D01*
X308765Y376304D01*
X308633Y376294D01*
X308501Y376288D01*
X308368Y376286D01*
X308368Y376287D02*
X303852Y376287D01*
X321700Y375384D02*
X325764Y375384D01*
X321700Y375384D02*
X321588Y375382D01*
X321477Y375376D01*
X321366Y375366D01*
X321255Y375353D01*
X321145Y375335D01*
X321036Y375313D01*
X320927Y375288D01*
X320819Y375259D01*
X320713Y375226D01*
X320607Y375189D01*
X320503Y375149D01*
X320401Y375105D01*
X320300Y375057D01*
X320201Y375006D01*
X320103Y374951D01*
X320008Y374893D01*
X319915Y374832D01*
X319824Y374767D01*
X319735Y374699D01*
X319649Y374628D01*
X319566Y374555D01*
X319485Y374478D01*
X319406Y374398D01*
X319331Y374316D01*
X319259Y374231D01*
X319189Y374144D01*
X319123Y374054D01*
X319060Y373962D01*
X319000Y373867D01*
X318944Y373771D01*
X318891Y373673D01*
X318842Y373573D01*
X318796Y373471D01*
X318754Y373368D01*
X318715Y373263D01*
X318680Y373157D01*
X318649Y373050D01*
X318622Y372942D01*
X318598Y372833D01*
X318579Y372723D01*
X318563Y372613D01*
X318551Y372502D01*
X318543Y372390D01*
X318539Y372279D01*
X318539Y372167D01*
X318543Y372056D01*
X318551Y371944D01*
X318563Y371833D01*
X318579Y371723D01*
X318598Y371613D01*
X318622Y371504D01*
X318649Y371396D01*
X318680Y371289D01*
X318715Y371183D01*
X318754Y371078D01*
X318796Y370975D01*
X318842Y370873D01*
X318891Y370773D01*
X318944Y370675D01*
X319000Y370579D01*
X319060Y370484D01*
X319123Y370392D01*
X319189Y370302D01*
X319259Y370215D01*
X319331Y370130D01*
X319406Y370048D01*
X319485Y369968D01*
X319566Y369891D01*
X319649Y369818D01*
X319735Y369747D01*
X319824Y369679D01*
X319915Y369614D01*
X320008Y369553D01*
X320103Y369495D01*
X320201Y369440D01*
X320300Y369389D01*
X320401Y369341D01*
X320503Y369297D01*
X320607Y369257D01*
X320713Y369220D01*
X320819Y369187D01*
X320927Y369158D01*
X321036Y369133D01*
X321145Y369111D01*
X321255Y369093D01*
X321366Y369080D01*
X321477Y369070D01*
X321588Y369064D01*
X321700Y369062D01*
X325764Y369062D01*
X325764Y377190D01*
X325762Y377291D01*
X325756Y377392D01*
X325747Y377493D01*
X325734Y377594D01*
X325717Y377694D01*
X325696Y377793D01*
X325672Y377891D01*
X325644Y377988D01*
X325612Y378085D01*
X325577Y378180D01*
X325538Y378273D01*
X325496Y378365D01*
X325450Y378456D01*
X325401Y378545D01*
X325349Y378631D01*
X325293Y378716D01*
X325235Y378799D01*
X325173Y378879D01*
X325108Y378957D01*
X325041Y379033D01*
X324971Y379106D01*
X324898Y379176D01*
X324822Y379243D01*
X324744Y379308D01*
X324664Y379370D01*
X324581Y379428D01*
X324496Y379484D01*
X324410Y379536D01*
X324321Y379585D01*
X324230Y379631D01*
X324138Y379673D01*
X324045Y379712D01*
X323950Y379747D01*
X323853Y379779D01*
X323756Y379807D01*
X323658Y379831D01*
X323559Y379852D01*
X323459Y379869D01*
X323358Y379882D01*
X323257Y379891D01*
X323156Y379897D01*
X323055Y379899D01*
X319442Y379899D01*
X339832Y385318D02*
X339832Y369062D01*
X335317Y369062D01*
X335216Y369064D01*
X335115Y369070D01*
X335014Y369079D01*
X334913Y369092D01*
X334813Y369109D01*
X334714Y369130D01*
X334616Y369154D01*
X334519Y369182D01*
X334422Y369214D01*
X334327Y369249D01*
X334234Y369288D01*
X334142Y369330D01*
X334051Y369376D01*
X333963Y369425D01*
X333876Y369477D01*
X333791Y369533D01*
X333708Y369591D01*
X333628Y369653D01*
X333550Y369718D01*
X333474Y369785D01*
X333401Y369855D01*
X333331Y369928D01*
X333264Y370004D01*
X333199Y370082D01*
X333137Y370162D01*
X333079Y370245D01*
X333023Y370330D01*
X332971Y370417D01*
X332922Y370505D01*
X332876Y370596D01*
X332834Y370688D01*
X332795Y370781D01*
X332760Y370876D01*
X332728Y370973D01*
X332700Y371070D01*
X332676Y371168D01*
X332655Y371267D01*
X332638Y371367D01*
X332625Y371468D01*
X332616Y371569D01*
X332610Y371670D01*
X332608Y371771D01*
X332607Y371771D02*
X332607Y377190D01*
X332608Y377190D02*
X332610Y377291D01*
X332616Y377392D01*
X332625Y377493D01*
X332638Y377594D01*
X332655Y377694D01*
X332676Y377793D01*
X332700Y377891D01*
X332728Y377988D01*
X332760Y378085D01*
X332795Y378180D01*
X332834Y378273D01*
X332876Y378365D01*
X332922Y378456D01*
X332971Y378545D01*
X333023Y378631D01*
X333079Y378716D01*
X333137Y378799D01*
X333199Y378879D01*
X333264Y378957D01*
X333331Y379033D01*
X333401Y379106D01*
X333474Y379176D01*
X333550Y379243D01*
X333628Y379308D01*
X333708Y379370D01*
X333791Y379428D01*
X333876Y379484D01*
X333963Y379536D01*
X334051Y379585D01*
X334142Y379631D01*
X334234Y379673D01*
X334327Y379712D01*
X334422Y379747D01*
X334519Y379779D01*
X334616Y379807D01*
X334714Y379831D01*
X334813Y379852D01*
X334913Y379869D01*
X335014Y379882D01*
X335115Y379891D01*
X335216Y379897D01*
X335317Y379899D01*
X339832Y379899D01*
D11*
X189731Y343408D02*
X187135Y351197D01*
X192327Y351197D02*
X189731Y343408D01*
X196772Y352496D02*
X200018Y355092D01*
X200018Y343408D01*
X196772Y343408D02*
X203264Y343408D01*
X207694Y343408D02*
X207694Y344057D01*
X208344Y344057D01*
X208344Y343408D01*
X207694Y343408D01*
X212775Y349250D02*
X212778Y349480D01*
X212786Y349710D01*
X212800Y349939D01*
X212819Y350168D01*
X212844Y350397D01*
X212874Y350624D01*
X212909Y350852D01*
X212950Y351078D01*
X212996Y351303D01*
X213048Y351527D01*
X213105Y351749D01*
X213167Y351971D01*
X213235Y352190D01*
X213308Y352408D01*
X213386Y352625D01*
X213469Y352839D01*
X213557Y353051D01*
X213650Y353261D01*
X213749Y353469D01*
X213748Y353469D02*
X213781Y353559D01*
X213817Y353648D01*
X213857Y353736D01*
X213901Y353821D01*
X213948Y353905D01*
X213998Y353987D01*
X214052Y354067D01*
X214108Y354144D01*
X214168Y354220D01*
X214231Y354293D01*
X214296Y354363D01*
X214365Y354431D01*
X214436Y354495D01*
X214509Y354557D01*
X214585Y354616D01*
X214663Y354672D01*
X214744Y354725D01*
X214826Y354774D01*
X214910Y354820D01*
X214997Y354863D01*
X215084Y354902D01*
X215174Y354938D01*
X215264Y354970D01*
X215356Y354998D01*
X215449Y355023D01*
X215543Y355044D01*
X215637Y355061D01*
X215732Y355075D01*
X215828Y355084D01*
X215924Y355090D01*
X216020Y355092D01*
X216116Y355090D01*
X216212Y355084D01*
X216308Y355075D01*
X216403Y355061D01*
X216497Y355044D01*
X216591Y355023D01*
X216684Y354998D01*
X216776Y354970D01*
X216866Y354938D01*
X216956Y354902D01*
X217043Y354863D01*
X217130Y354820D01*
X217214Y354774D01*
X217296Y354725D01*
X217377Y354672D01*
X217455Y354616D01*
X217531Y354557D01*
X217604Y354495D01*
X217675Y354431D01*
X217744Y354363D01*
X217809Y354293D01*
X217872Y354220D01*
X217932Y354144D01*
X217988Y354067D01*
X218042Y353987D01*
X218092Y353905D01*
X218139Y353821D01*
X218183Y353736D01*
X218223Y353648D01*
X218259Y353559D01*
X218292Y353469D01*
X218391Y353262D01*
X218484Y353052D01*
X218572Y352839D01*
X218655Y352625D01*
X218733Y352409D01*
X218806Y352191D01*
X218874Y351971D01*
X218936Y351750D01*
X218993Y351527D01*
X219045Y351303D01*
X219091Y351078D01*
X219132Y350852D01*
X219167Y350625D01*
X219197Y350397D01*
X219222Y350168D01*
X219241Y349939D01*
X219255Y349710D01*
X219263Y349480D01*
X219266Y349250D01*
X212774Y349250D02*
X212777Y349020D01*
X212785Y348790D01*
X212799Y348561D01*
X212818Y348332D01*
X212843Y348103D01*
X212873Y347875D01*
X212908Y347648D01*
X212949Y347422D01*
X212995Y347197D01*
X213047Y346973D01*
X213104Y346750D01*
X213166Y346529D01*
X213234Y346309D01*
X213307Y346091D01*
X213385Y345875D01*
X213468Y345661D01*
X213556Y345449D01*
X213649Y345238D01*
X213748Y345031D01*
X213781Y344941D01*
X213817Y344852D01*
X213858Y344764D01*
X213901Y344679D01*
X213948Y344595D01*
X213998Y344513D01*
X214052Y344433D01*
X214108Y344356D01*
X214168Y344280D01*
X214231Y344207D01*
X214296Y344137D01*
X214365Y344069D01*
X214436Y344005D01*
X214509Y343943D01*
X214585Y343884D01*
X214663Y343828D01*
X214744Y343775D01*
X214826Y343726D01*
X214910Y343680D01*
X214997Y343637D01*
X215084Y343598D01*
X215174Y343562D01*
X215264Y343530D01*
X215356Y343502D01*
X215449Y343477D01*
X215543Y343456D01*
X215637Y343439D01*
X215732Y343425D01*
X215828Y343416D01*
X215924Y343410D01*
X216020Y343408D01*
X218292Y345031D02*
X218391Y345238D01*
X218484Y345449D01*
X218572Y345661D01*
X218655Y345875D01*
X218733Y346091D01*
X218806Y346309D01*
X218874Y346529D01*
X218936Y346750D01*
X218993Y346973D01*
X219045Y347197D01*
X219091Y347422D01*
X219132Y347648D01*
X219167Y347875D01*
X219197Y348103D01*
X219222Y348332D01*
X219241Y348561D01*
X219255Y348790D01*
X219263Y349020D01*
X219266Y349250D01*
X218292Y345031D02*
X218259Y344941D01*
X218223Y344852D01*
X218183Y344764D01*
X218139Y344679D01*
X218092Y344595D01*
X218042Y344513D01*
X217988Y344433D01*
X217932Y344356D01*
X217872Y344280D01*
X217809Y344207D01*
X217744Y344137D01*
X217675Y344069D01*
X217604Y344005D01*
X217531Y343943D01*
X217455Y343884D01*
X217377Y343828D01*
X217296Y343775D01*
X217214Y343726D01*
X217130Y343680D01*
X217043Y343637D01*
X216956Y343598D01*
X216866Y343562D01*
X216776Y343530D01*
X216684Y343502D01*
X216591Y343477D01*
X216497Y343456D01*
X216403Y343439D01*
X216308Y343425D01*
X216212Y343416D01*
X216116Y343410D01*
X216020Y343408D01*
X213423Y346004D02*
X218616Y352496D01*
D12*
X326731Y63881D02*
X328368Y63881D01*
X326731Y63881D02*
X326653Y63883D01*
X326575Y63888D01*
X326498Y63898D01*
X326421Y63911D01*
X326345Y63927D01*
X326270Y63947D01*
X326196Y63971D01*
X326123Y63998D01*
X326051Y64029D01*
X325981Y64063D01*
X325913Y64100D01*
X325846Y64141D01*
X325781Y64185D01*
X325719Y64231D01*
X325659Y64281D01*
X325601Y64333D01*
X325546Y64388D01*
X325494Y64446D01*
X325444Y64506D01*
X325398Y64568D01*
X325354Y64633D01*
X325313Y64700D01*
X325276Y64768D01*
X325242Y64838D01*
X325211Y64910D01*
X325184Y64983D01*
X325160Y65057D01*
X325140Y65132D01*
X325124Y65208D01*
X325111Y65285D01*
X325101Y65362D01*
X325096Y65440D01*
X325094Y65518D01*
X325094Y69610D01*
X325096Y69690D01*
X325102Y69770D01*
X325112Y69850D01*
X325125Y69929D01*
X325143Y70008D01*
X325164Y70085D01*
X325190Y70161D01*
X325219Y70236D01*
X325251Y70310D01*
X325287Y70382D01*
X325327Y70452D01*
X325370Y70519D01*
X325416Y70585D01*
X325466Y70648D01*
X325518Y70709D01*
X325573Y70768D01*
X325632Y70823D01*
X325692Y70875D01*
X325756Y70925D01*
X325822Y70971D01*
X325889Y71014D01*
X325959Y71054D01*
X326031Y71090D01*
X326105Y71122D01*
X326179Y71151D01*
X326256Y71177D01*
X326333Y71198D01*
X326412Y71216D01*
X326491Y71229D01*
X326571Y71239D01*
X326651Y71245D01*
X326731Y71247D01*
X328368Y71247D01*
X331213Y69610D02*
X333260Y71247D01*
X333260Y63881D01*
X335306Y63881D02*
X331213Y63881D01*
X316734Y11296D02*
X316668Y11157D01*
X316607Y11018D01*
X316548Y10876D01*
X316494Y10733D01*
X316443Y10589D01*
X316395Y10444D01*
X316352Y10297D01*
X316312Y10149D01*
X316275Y10001D01*
X316243Y9851D01*
X316214Y9701D01*
X316189Y9550D01*
X316168Y9399D01*
X316151Y9247D01*
X316137Y9094D01*
X316128Y8942D01*
X316122Y8789D01*
X316120Y8636D01*
X316734Y11296D02*
X316760Y11366D01*
X316790Y11436D01*
X316823Y11503D01*
X316859Y11569D01*
X316898Y11633D01*
X316941Y11695D01*
X316987Y11754D01*
X317035Y11812D01*
X317086Y11866D01*
X317140Y11919D01*
X317197Y11968D01*
X317256Y12015D01*
X317317Y12058D01*
X317380Y12099D01*
X317445Y12136D01*
X317512Y12171D01*
X317581Y12201D01*
X317651Y12229D01*
X317722Y12252D01*
X317794Y12273D01*
X317867Y12289D01*
X317941Y12302D01*
X318016Y12312D01*
X318091Y12317D01*
X318166Y12319D01*
X318241Y12317D01*
X318316Y12312D01*
X318391Y12302D01*
X318465Y12289D01*
X318538Y12273D01*
X318610Y12252D01*
X318681Y12229D01*
X318751Y12201D01*
X318820Y12171D01*
X318887Y12136D01*
X318952Y12099D01*
X319015Y12058D01*
X319076Y12015D01*
X319135Y11968D01*
X319192Y11919D01*
X319246Y11866D01*
X319297Y11812D01*
X319346Y11754D01*
X319391Y11695D01*
X319434Y11633D01*
X319473Y11569D01*
X319510Y11503D01*
X319542Y11435D01*
X319572Y11366D01*
X319598Y11296D01*
X319663Y11158D01*
X319725Y11018D01*
X319783Y10876D01*
X319838Y10733D01*
X319889Y10589D01*
X319937Y10444D01*
X319980Y10297D01*
X320020Y10150D01*
X320057Y10001D01*
X320089Y9851D01*
X320118Y9701D01*
X320143Y9550D01*
X320164Y9399D01*
X320181Y9247D01*
X320195Y9094D01*
X320204Y8942D01*
X320210Y8789D01*
X320212Y8636D01*
X316119Y8636D02*
X316121Y8483D01*
X316127Y8330D01*
X316136Y8177D01*
X316150Y8025D01*
X316167Y7873D01*
X316188Y7722D01*
X316213Y7571D01*
X316242Y7420D01*
X316274Y7271D01*
X316311Y7122D01*
X316351Y6975D01*
X316394Y6828D01*
X316442Y6683D01*
X316493Y6538D01*
X316548Y6396D01*
X316606Y6254D01*
X316668Y6114D01*
X316733Y5976D01*
X316734Y5976D02*
X316760Y5905D01*
X316790Y5836D01*
X316823Y5769D01*
X316859Y5703D01*
X316898Y5639D01*
X316941Y5577D01*
X316987Y5518D01*
X317035Y5460D01*
X317086Y5406D01*
X317140Y5353D01*
X317197Y5304D01*
X317256Y5257D01*
X317317Y5214D01*
X317380Y5173D01*
X317445Y5136D01*
X317512Y5101D01*
X317581Y5071D01*
X317651Y5043D01*
X317722Y5020D01*
X317794Y4999D01*
X317867Y4983D01*
X317941Y4970D01*
X318016Y4960D01*
X318091Y4955D01*
X318166Y4953D01*
X319597Y5976D02*
X319662Y6114D01*
X319724Y6254D01*
X319782Y6396D01*
X319837Y6539D01*
X319888Y6683D01*
X319936Y6828D01*
X319979Y6975D01*
X320019Y7123D01*
X320056Y7271D01*
X320088Y7421D01*
X320117Y7571D01*
X320142Y7722D01*
X320163Y7873D01*
X320180Y8025D01*
X320194Y8178D01*
X320203Y8330D01*
X320209Y8483D01*
X320211Y8636D01*
X319598Y5976D02*
X319572Y5906D01*
X319542Y5836D01*
X319510Y5769D01*
X319473Y5703D01*
X319434Y5639D01*
X319391Y5577D01*
X319345Y5518D01*
X319297Y5460D01*
X319246Y5406D01*
X319192Y5353D01*
X319135Y5304D01*
X319076Y5257D01*
X319015Y5214D01*
X318952Y5173D01*
X318887Y5136D01*
X318820Y5101D01*
X318751Y5071D01*
X318681Y5043D01*
X318610Y5020D01*
X318538Y4999D01*
X318465Y4983D01*
X318391Y4970D01*
X318316Y4960D01*
X318241Y4955D01*
X318166Y4953D01*
X316529Y6590D02*
X319802Y10682D01*
X323082Y5362D02*
X323082Y4953D01*
X323082Y5362D02*
X323491Y5362D01*
X323491Y4953D01*
X323082Y4953D01*
X326361Y10682D02*
X328407Y12319D01*
X328407Y4953D01*
X326361Y4953D02*
X330453Y4953D01*
X334127Y2498D02*
X334127Y9864D01*
X337401Y9864D02*
X337401Y6590D01*
X337399Y6511D01*
X337393Y6432D01*
X337384Y6353D01*
X337371Y6275D01*
X337353Y6198D01*
X337333Y6122D01*
X337308Y6047D01*
X337280Y5973D01*
X337249Y5900D01*
X337213Y5829D01*
X337175Y5760D01*
X337133Y5693D01*
X337088Y5628D01*
X337040Y5565D01*
X336989Y5504D01*
X336935Y5447D01*
X336879Y5391D01*
X336820Y5339D01*
X336758Y5289D01*
X336694Y5243D01*
X336628Y5199D01*
X336560Y5159D01*
X336490Y5123D01*
X336418Y5089D01*
X336344Y5059D01*
X336270Y5033D01*
X336194Y5010D01*
X336117Y4992D01*
X336040Y4976D01*
X335961Y4965D01*
X335883Y4957D01*
X335804Y4953D01*
X335724Y4953D01*
X335645Y4957D01*
X335567Y4965D01*
X335488Y4976D01*
X335411Y4992D01*
X335334Y5010D01*
X335258Y5033D01*
X335184Y5059D01*
X335110Y5089D01*
X335038Y5123D01*
X334968Y5159D01*
X334900Y5199D01*
X334834Y5243D01*
X334770Y5289D01*
X334708Y5339D01*
X334649Y5391D01*
X334593Y5447D01*
X334539Y5504D01*
X334488Y5565D01*
X334440Y5628D01*
X334395Y5693D01*
X334353Y5760D01*
X334315Y5829D01*
X334279Y5900D01*
X334248Y5973D01*
X334220Y6047D01*
X334195Y6122D01*
X334175Y6198D01*
X334157Y6275D01*
X334144Y6353D01*
X334135Y6432D01*
X334129Y6511D01*
X334127Y6590D01*
X337401Y6590D02*
X337401Y5771D01*
X337402Y5771D02*
X337404Y5715D01*
X337410Y5660D01*
X337419Y5605D01*
X337432Y5550D01*
X337449Y5497D01*
X337470Y5445D01*
X337494Y5395D01*
X337521Y5346D01*
X337552Y5299D01*
X337585Y5255D01*
X337622Y5213D01*
X337662Y5173D01*
X337704Y5136D01*
X337748Y5103D01*
X337795Y5072D01*
X337844Y5045D01*
X337894Y5021D01*
X337946Y5000D01*
X337999Y4983D01*
X338054Y4970D01*
X338109Y4961D01*
X338164Y4955D01*
X338220Y4953D01*
X341007Y4953D02*
X341007Y12319D01*
X344281Y12319D01*
X344281Y9045D02*
X341007Y9045D01*
X252168Y63881D02*
X250531Y63881D01*
X250453Y63883D01*
X250375Y63888D01*
X250298Y63898D01*
X250221Y63911D01*
X250145Y63927D01*
X250070Y63947D01*
X249996Y63971D01*
X249923Y63998D01*
X249851Y64029D01*
X249781Y64063D01*
X249713Y64100D01*
X249646Y64141D01*
X249581Y64185D01*
X249519Y64231D01*
X249459Y64281D01*
X249401Y64333D01*
X249346Y64388D01*
X249294Y64446D01*
X249244Y64506D01*
X249198Y64568D01*
X249154Y64633D01*
X249113Y64700D01*
X249076Y64768D01*
X249042Y64838D01*
X249011Y64910D01*
X248984Y64983D01*
X248960Y65057D01*
X248940Y65132D01*
X248924Y65208D01*
X248911Y65285D01*
X248901Y65362D01*
X248896Y65440D01*
X248894Y65518D01*
X248894Y69610D01*
X248896Y69690D01*
X248902Y69770D01*
X248912Y69850D01*
X248925Y69929D01*
X248943Y70008D01*
X248964Y70085D01*
X248990Y70161D01*
X249019Y70236D01*
X249051Y70310D01*
X249087Y70382D01*
X249127Y70452D01*
X249170Y70519D01*
X249216Y70585D01*
X249266Y70648D01*
X249318Y70709D01*
X249373Y70768D01*
X249432Y70823D01*
X249492Y70875D01*
X249556Y70925D01*
X249622Y70971D01*
X249689Y71014D01*
X249759Y71054D01*
X249831Y71090D01*
X249905Y71122D01*
X249979Y71151D01*
X250056Y71177D01*
X250133Y71198D01*
X250212Y71216D01*
X250291Y71229D01*
X250371Y71239D01*
X250451Y71245D01*
X250531Y71247D01*
X252168Y71247D01*
X257264Y71248D02*
X257349Y71246D01*
X257434Y71240D01*
X257518Y71230D01*
X257602Y71217D01*
X257686Y71199D01*
X257768Y71178D01*
X257849Y71153D01*
X257929Y71124D01*
X258008Y71091D01*
X258085Y71055D01*
X258160Y71015D01*
X258234Y70972D01*
X258305Y70926D01*
X258374Y70876D01*
X258441Y70823D01*
X258505Y70767D01*
X258566Y70708D01*
X258625Y70647D01*
X258681Y70583D01*
X258734Y70516D01*
X258784Y70447D01*
X258830Y70376D01*
X258873Y70302D01*
X258913Y70227D01*
X258949Y70150D01*
X258982Y70071D01*
X259011Y69991D01*
X259036Y69910D01*
X259057Y69828D01*
X259075Y69744D01*
X259088Y69660D01*
X259098Y69576D01*
X259104Y69491D01*
X259106Y69406D01*
X257264Y71247D02*
X257168Y71245D01*
X257072Y71239D01*
X256977Y71229D01*
X256882Y71216D01*
X256787Y71198D01*
X256694Y71177D01*
X256601Y71152D01*
X256510Y71123D01*
X256419Y71091D01*
X256330Y71055D01*
X256243Y71015D01*
X256157Y70972D01*
X256073Y70926D01*
X255991Y70876D01*
X255911Y70822D01*
X255834Y70766D01*
X255759Y70706D01*
X255686Y70644D01*
X255616Y70578D01*
X255548Y70510D01*
X255483Y70439D01*
X255422Y70366D01*
X255363Y70290D01*
X255307Y70211D01*
X255255Y70131D01*
X255206Y70048D01*
X255160Y69964D01*
X255118Y69878D01*
X255080Y69790D01*
X255045Y69701D01*
X255013Y69610D01*
X258492Y67974D02*
X258552Y68033D01*
X258609Y68095D01*
X258664Y68159D01*
X258715Y68226D01*
X258764Y68295D01*
X258810Y68365D01*
X258853Y68438D01*
X258893Y68512D01*
X258929Y68588D01*
X258962Y68666D01*
X258992Y68745D01*
X259019Y68825D01*
X259042Y68906D01*
X259061Y68988D01*
X259077Y69070D01*
X259090Y69154D01*
X259099Y69238D01*
X259104Y69322D01*
X259106Y69406D01*
X258492Y67973D02*
X255013Y63881D01*
X259106Y63881D01*
X243551Y12319D02*
X241504Y10682D01*
X243551Y12319D02*
X243551Y4953D01*
X245597Y4953D02*
X241504Y4953D01*
X248820Y8636D02*
X248822Y8789D01*
X248828Y8942D01*
X248837Y9094D01*
X248851Y9247D01*
X248868Y9399D01*
X248889Y9550D01*
X248914Y9701D01*
X248943Y9851D01*
X248975Y10001D01*
X249012Y10149D01*
X249052Y10297D01*
X249095Y10444D01*
X249143Y10589D01*
X249194Y10733D01*
X249248Y10876D01*
X249307Y11018D01*
X249368Y11157D01*
X249434Y11296D01*
X249460Y11366D01*
X249490Y11436D01*
X249523Y11503D01*
X249559Y11569D01*
X249598Y11633D01*
X249641Y11695D01*
X249687Y11754D01*
X249735Y11812D01*
X249786Y11866D01*
X249840Y11919D01*
X249897Y11968D01*
X249956Y12015D01*
X250017Y12058D01*
X250080Y12099D01*
X250145Y12136D01*
X250212Y12171D01*
X250281Y12201D01*
X250351Y12229D01*
X250422Y12252D01*
X250494Y12273D01*
X250567Y12289D01*
X250641Y12302D01*
X250716Y12312D01*
X250791Y12317D01*
X250866Y12319D01*
X250941Y12317D01*
X251016Y12312D01*
X251091Y12302D01*
X251165Y12289D01*
X251238Y12273D01*
X251310Y12252D01*
X251381Y12229D01*
X251451Y12201D01*
X251520Y12171D01*
X251587Y12136D01*
X251652Y12099D01*
X251715Y12058D01*
X251776Y12015D01*
X251835Y11968D01*
X251892Y11919D01*
X251946Y11866D01*
X251997Y11812D01*
X252046Y11754D01*
X252091Y11695D01*
X252134Y11633D01*
X252173Y11569D01*
X252210Y11503D01*
X252242Y11435D01*
X252272Y11366D01*
X252298Y11296D01*
X252363Y11158D01*
X252425Y11018D01*
X252483Y10876D01*
X252538Y10733D01*
X252589Y10589D01*
X252637Y10444D01*
X252680Y10297D01*
X252720Y10150D01*
X252757Y10001D01*
X252789Y9851D01*
X252818Y9701D01*
X252843Y9550D01*
X252864Y9399D01*
X252881Y9247D01*
X252895Y9094D01*
X252904Y8942D01*
X252910Y8789D01*
X252912Y8636D01*
X248819Y8636D02*
X248821Y8483D01*
X248827Y8330D01*
X248836Y8177D01*
X248850Y8025D01*
X248867Y7873D01*
X248888Y7722D01*
X248913Y7571D01*
X248942Y7420D01*
X248974Y7271D01*
X249011Y7122D01*
X249051Y6975D01*
X249094Y6828D01*
X249142Y6683D01*
X249193Y6538D01*
X249248Y6396D01*
X249306Y6254D01*
X249368Y6114D01*
X249433Y5976D01*
X249434Y5976D02*
X249460Y5905D01*
X249490Y5836D01*
X249523Y5769D01*
X249559Y5703D01*
X249598Y5639D01*
X249641Y5577D01*
X249687Y5518D01*
X249735Y5460D01*
X249786Y5406D01*
X249840Y5353D01*
X249897Y5304D01*
X249956Y5257D01*
X250017Y5214D01*
X250080Y5173D01*
X250145Y5136D01*
X250212Y5101D01*
X250281Y5071D01*
X250351Y5043D01*
X250422Y5020D01*
X250494Y4999D01*
X250567Y4983D01*
X250641Y4970D01*
X250716Y4960D01*
X250791Y4955D01*
X250866Y4953D01*
X252298Y5976D02*
X252363Y6114D01*
X252425Y6254D01*
X252483Y6396D01*
X252538Y6539D01*
X252589Y6683D01*
X252637Y6828D01*
X252680Y6975D01*
X252720Y7123D01*
X252757Y7271D01*
X252789Y7421D01*
X252818Y7571D01*
X252843Y7722D01*
X252864Y7873D01*
X252881Y8025D01*
X252895Y8178D01*
X252904Y8330D01*
X252910Y8483D01*
X252912Y8636D01*
X252298Y5976D02*
X252272Y5906D01*
X252242Y5836D01*
X252210Y5769D01*
X252173Y5703D01*
X252134Y5639D01*
X252091Y5577D01*
X252045Y5518D01*
X251997Y5460D01*
X251946Y5406D01*
X251892Y5353D01*
X251835Y5304D01*
X251776Y5257D01*
X251715Y5214D01*
X251652Y5173D01*
X251587Y5136D01*
X251520Y5101D01*
X251451Y5071D01*
X251381Y5043D01*
X251310Y5020D01*
X251238Y4999D01*
X251165Y4983D01*
X251091Y4970D01*
X251016Y4960D01*
X250941Y4955D01*
X250866Y4953D01*
X249229Y6590D02*
X252503Y10682D01*
X256300Y9864D02*
X256300Y4953D01*
X256300Y9864D02*
X258346Y9864D01*
X258415Y9862D01*
X258483Y9856D01*
X258552Y9847D01*
X258619Y9833D01*
X258686Y9816D01*
X258752Y9795D01*
X258816Y9771D01*
X258879Y9742D01*
X258940Y9711D01*
X258999Y9676D01*
X259057Y9638D01*
X259112Y9596D01*
X259164Y9552D01*
X259214Y9504D01*
X259262Y9454D01*
X259306Y9402D01*
X259348Y9347D01*
X259386Y9289D01*
X259421Y9230D01*
X259452Y9169D01*
X259481Y9106D01*
X259505Y9042D01*
X259526Y8976D01*
X259543Y8909D01*
X259557Y8842D01*
X259566Y8773D01*
X259572Y8705D01*
X259574Y8636D01*
X259574Y4953D01*
X263222Y4953D02*
X263222Y12319D01*
X266496Y12319D01*
X266496Y9045D02*
X263222Y9045D01*
D10*
X355600Y19050D02*
X355600Y31750D01*
X361950Y38100D01*
X374650Y38100D01*
X381000Y31750D01*
X374650Y12700D02*
X361950Y12700D01*
X355600Y19050D01*
X374650Y12700D02*
X381000Y19050D01*
X381000Y31750D01*
X361950Y38100D02*
X355600Y44450D01*
X355600Y57150D01*
X361950Y63500D01*
X374650Y63500D01*
X381000Y57150D01*
X381000Y44450D01*
X374650Y38100D01*
D13*
X362585Y76835D02*
X362585Y88265D01*
X361315Y76835D02*
X363855Y76835D01*
X363855Y88265D02*
X361315Y88265D01*
X368935Y88265D02*
X368935Y76835D01*
X375285Y76835D02*
X368935Y88265D01*
X375285Y88265D02*
X375285Y76835D01*
D12*
X401447Y15301D02*
X401447Y13255D01*
X401447Y15301D02*
X401445Y15390D01*
X401439Y15479D01*
X401429Y15568D01*
X401416Y15656D01*
X401399Y15744D01*
X401377Y15831D01*
X401352Y15916D01*
X401324Y16001D01*
X401291Y16084D01*
X401255Y16166D01*
X401216Y16246D01*
X401173Y16324D01*
X401127Y16400D01*
X401077Y16475D01*
X401024Y16547D01*
X400968Y16616D01*
X400909Y16683D01*
X400848Y16748D01*
X400783Y16809D01*
X400716Y16868D01*
X400647Y16924D01*
X400575Y16977D01*
X400500Y17027D01*
X400424Y17073D01*
X400346Y17116D01*
X400266Y17155D01*
X400184Y17191D01*
X400101Y17224D01*
X400016Y17252D01*
X399931Y17277D01*
X399844Y17299D01*
X399756Y17316D01*
X399668Y17329D01*
X399579Y17339D01*
X399490Y17345D01*
X399401Y17347D01*
X399312Y17345D01*
X399223Y17339D01*
X399134Y17329D01*
X399046Y17316D01*
X398958Y17299D01*
X398871Y17277D01*
X398786Y17252D01*
X398701Y17224D01*
X398618Y17191D01*
X398536Y17155D01*
X398456Y17116D01*
X398378Y17073D01*
X398302Y17027D01*
X398227Y16977D01*
X398155Y16924D01*
X398086Y16868D01*
X398019Y16809D01*
X397954Y16748D01*
X397893Y16683D01*
X397834Y16616D01*
X397778Y16547D01*
X397725Y16475D01*
X397675Y16400D01*
X397629Y16324D01*
X397586Y16246D01*
X397547Y16166D01*
X397511Y16084D01*
X397478Y16001D01*
X397450Y15916D01*
X397425Y15831D01*
X397403Y15744D01*
X397386Y15656D01*
X397373Y15568D01*
X397363Y15479D01*
X397357Y15390D01*
X397355Y15301D01*
X394081Y15710D02*
X394081Y13255D01*
X394081Y15710D02*
X394083Y15789D01*
X394089Y15868D01*
X394098Y15947D01*
X394111Y16025D01*
X394129Y16102D01*
X394149Y16178D01*
X394174Y16253D01*
X394202Y16327D01*
X394233Y16400D01*
X394269Y16471D01*
X394307Y16540D01*
X394349Y16607D01*
X394394Y16672D01*
X394442Y16735D01*
X394493Y16796D01*
X394547Y16853D01*
X394603Y16909D01*
X394662Y16961D01*
X394724Y17011D01*
X394788Y17057D01*
X394854Y17101D01*
X394922Y17141D01*
X394992Y17177D01*
X395064Y17211D01*
X395138Y17241D01*
X395212Y17267D01*
X395288Y17290D01*
X395365Y17308D01*
X395442Y17324D01*
X395521Y17335D01*
X395599Y17343D01*
X395678Y17347D01*
X395758Y17347D01*
X395837Y17343D01*
X395915Y17335D01*
X395994Y17324D01*
X396071Y17308D01*
X396148Y17290D01*
X396224Y17267D01*
X396298Y17241D01*
X396372Y17211D01*
X396444Y17177D01*
X396514Y17141D01*
X396582Y17101D01*
X396648Y17057D01*
X396712Y17011D01*
X396774Y16961D01*
X396833Y16909D01*
X396889Y16853D01*
X396943Y16796D01*
X396994Y16735D01*
X397042Y16672D01*
X397087Y16607D01*
X397129Y16540D01*
X397167Y16471D01*
X397203Y16400D01*
X397234Y16327D01*
X397262Y16253D01*
X397287Y16178D01*
X397307Y16102D01*
X397325Y16025D01*
X397338Y15947D01*
X397347Y15868D01*
X397353Y15789D01*
X397355Y15710D01*
X397355Y14073D01*
X394081Y20161D02*
X401447Y22616D01*
X394081Y25072D01*
X401447Y27885D02*
X401447Y29931D01*
X401445Y30020D01*
X401439Y30109D01*
X401429Y30198D01*
X401416Y30286D01*
X401399Y30374D01*
X401377Y30461D01*
X401352Y30546D01*
X401324Y30631D01*
X401291Y30714D01*
X401255Y30796D01*
X401216Y30876D01*
X401173Y30954D01*
X401127Y31030D01*
X401077Y31105D01*
X401024Y31177D01*
X400968Y31246D01*
X400909Y31313D01*
X400848Y31378D01*
X400783Y31439D01*
X400716Y31498D01*
X400647Y31554D01*
X400575Y31607D01*
X400500Y31657D01*
X400424Y31703D01*
X400346Y31746D01*
X400266Y31785D01*
X400184Y31821D01*
X400101Y31854D01*
X400016Y31882D01*
X399931Y31907D01*
X399844Y31929D01*
X399756Y31946D01*
X399668Y31959D01*
X399579Y31969D01*
X399490Y31975D01*
X399401Y31977D01*
X399312Y31975D01*
X399223Y31969D01*
X399134Y31959D01*
X399046Y31946D01*
X398958Y31929D01*
X398871Y31907D01*
X398786Y31882D01*
X398701Y31854D01*
X398618Y31821D01*
X398536Y31785D01*
X398456Y31746D01*
X398378Y31703D01*
X398302Y31657D01*
X398227Y31607D01*
X398155Y31554D01*
X398086Y31498D01*
X398019Y31439D01*
X397954Y31378D01*
X397893Y31313D01*
X397834Y31246D01*
X397778Y31177D01*
X397725Y31105D01*
X397675Y31030D01*
X397629Y30954D01*
X397586Y30876D01*
X397547Y30796D01*
X397511Y30714D01*
X397478Y30631D01*
X397450Y30546D01*
X397425Y30461D01*
X397403Y30374D01*
X397386Y30286D01*
X397373Y30198D01*
X397363Y30109D01*
X397357Y30020D01*
X397355Y29931D01*
X394081Y30341D02*
X394081Y27885D01*
X394081Y30341D02*
X394083Y30420D01*
X394089Y30499D01*
X394098Y30578D01*
X394111Y30656D01*
X394129Y30733D01*
X394149Y30809D01*
X394174Y30884D01*
X394202Y30958D01*
X394233Y31031D01*
X394269Y31102D01*
X394307Y31171D01*
X394349Y31238D01*
X394394Y31303D01*
X394442Y31366D01*
X394493Y31427D01*
X394547Y31484D01*
X394603Y31540D01*
X394662Y31592D01*
X394724Y31642D01*
X394788Y31688D01*
X394854Y31732D01*
X394922Y31772D01*
X394992Y31808D01*
X395064Y31842D01*
X395138Y31872D01*
X395212Y31898D01*
X395288Y31921D01*
X395365Y31939D01*
X395442Y31955D01*
X395521Y31966D01*
X395599Y31974D01*
X395678Y31978D01*
X395758Y31978D01*
X395837Y31974D01*
X395915Y31966D01*
X395994Y31955D01*
X396071Y31939D01*
X396148Y31921D01*
X396224Y31898D01*
X396298Y31872D01*
X396372Y31842D01*
X396444Y31808D01*
X396514Y31772D01*
X396582Y31732D01*
X396648Y31688D01*
X396712Y31642D01*
X396774Y31592D01*
X396833Y31540D01*
X396889Y31484D01*
X396943Y31427D01*
X396994Y31366D01*
X397042Y31303D01*
X397087Y31238D01*
X397129Y31171D01*
X397167Y31102D01*
X397203Y31031D01*
X397234Y30958D01*
X397262Y30884D01*
X397287Y30809D01*
X397307Y30733D01*
X397325Y30656D01*
X397338Y30578D01*
X397347Y30499D01*
X397353Y30420D01*
X397355Y30341D01*
X397355Y28704D01*
X397355Y46112D02*
X397355Y47339D01*
X401447Y47339D01*
X401447Y44884D01*
X401445Y44806D01*
X401440Y44728D01*
X401430Y44651D01*
X401417Y44574D01*
X401401Y44498D01*
X401381Y44423D01*
X401357Y44349D01*
X401330Y44276D01*
X401299Y44204D01*
X401265Y44134D01*
X401228Y44066D01*
X401187Y43999D01*
X401143Y43934D01*
X401097Y43872D01*
X401047Y43812D01*
X400995Y43754D01*
X400940Y43699D01*
X400882Y43647D01*
X400822Y43597D01*
X400760Y43551D01*
X400695Y43507D01*
X400629Y43466D01*
X400560Y43429D01*
X400490Y43395D01*
X400418Y43364D01*
X400345Y43337D01*
X400271Y43313D01*
X400196Y43293D01*
X400120Y43277D01*
X400043Y43264D01*
X399966Y43254D01*
X399888Y43249D01*
X399810Y43247D01*
X395718Y43247D01*
X395638Y43249D01*
X395558Y43255D01*
X395478Y43265D01*
X395399Y43278D01*
X395320Y43296D01*
X395243Y43317D01*
X395167Y43343D01*
X395092Y43372D01*
X395018Y43404D01*
X394946Y43440D01*
X394876Y43480D01*
X394809Y43523D01*
X394743Y43569D01*
X394680Y43619D01*
X394619Y43671D01*
X394560Y43726D01*
X394505Y43785D01*
X394453Y43845D01*
X394403Y43909D01*
X394357Y43974D01*
X394314Y44042D01*
X394274Y44112D01*
X394238Y44184D01*
X394206Y44258D01*
X394177Y44332D01*
X394152Y44409D01*
X394130Y44486D01*
X394112Y44565D01*
X394099Y44644D01*
X394089Y44723D01*
X394083Y44804D01*
X394081Y44884D01*
X394081Y47339D01*
X394081Y51050D02*
X401447Y51050D01*
X401447Y55142D02*
X394081Y51050D01*
X394081Y55142D02*
X401447Y55142D01*
X401447Y58853D02*
X394081Y58853D01*
X394081Y60899D01*
X394083Y60988D01*
X394089Y61077D01*
X394099Y61166D01*
X394112Y61254D01*
X394129Y61342D01*
X394151Y61429D01*
X394176Y61514D01*
X394204Y61599D01*
X394237Y61682D01*
X394273Y61764D01*
X394312Y61844D01*
X394355Y61922D01*
X394401Y61998D01*
X394451Y62073D01*
X394504Y62145D01*
X394560Y62214D01*
X394619Y62281D01*
X394680Y62346D01*
X394745Y62407D01*
X394812Y62466D01*
X394881Y62522D01*
X394953Y62575D01*
X395028Y62625D01*
X395104Y62671D01*
X395182Y62714D01*
X395262Y62753D01*
X395344Y62789D01*
X395427Y62822D01*
X395512Y62850D01*
X395597Y62875D01*
X395684Y62897D01*
X395772Y62914D01*
X395860Y62927D01*
X395949Y62937D01*
X396038Y62943D01*
X396127Y62945D01*
X399401Y62945D01*
X399490Y62943D01*
X399579Y62937D01*
X399668Y62927D01*
X399756Y62914D01*
X399844Y62897D01*
X399931Y62875D01*
X400016Y62850D01*
X400101Y62822D01*
X400184Y62789D01*
X400266Y62753D01*
X400346Y62714D01*
X400424Y62671D01*
X400500Y62625D01*
X400575Y62575D01*
X400647Y62522D01*
X400716Y62466D01*
X400783Y62407D01*
X400848Y62346D01*
X400909Y62281D01*
X400968Y62214D01*
X401024Y62145D01*
X401077Y62073D01*
X401127Y61998D01*
X401173Y61922D01*
X401216Y61844D01*
X401255Y61764D01*
X401291Y61682D01*
X401324Y61599D01*
X401352Y61514D01*
X401377Y61429D01*
X401399Y61342D01*
X401416Y61254D01*
X401429Y61166D01*
X401439Y61077D01*
X401445Y60988D01*
X401447Y60899D01*
X401447Y58853D01*
D10*
X387350Y203200D02*
X374650Y203200D01*
X387350Y203200D02*
X393700Y196850D01*
X393700Y184150D01*
X387350Y177800D01*
X368300Y184150D02*
X368300Y196850D01*
X374650Y203200D01*
X368300Y184150D02*
X374650Y177800D01*
X387350Y177800D01*
D12*
X336931Y186817D02*
X336931Y194183D01*
X336931Y186817D02*
X340205Y186817D01*
X343271Y186817D02*
X346545Y186817D01*
X343271Y186817D02*
X343271Y194183D01*
X346545Y194183D01*
X345726Y190909D02*
X343271Y190909D01*
X349595Y194183D02*
X349595Y186817D01*
X349595Y194183D02*
X351641Y194183D01*
X351730Y194181D01*
X351819Y194175D01*
X351908Y194165D01*
X351996Y194152D01*
X352084Y194135D01*
X352171Y194113D01*
X352256Y194088D01*
X352341Y194060D01*
X352424Y194027D01*
X352506Y193991D01*
X352586Y193952D01*
X352664Y193909D01*
X352740Y193863D01*
X352815Y193813D01*
X352887Y193760D01*
X352956Y193704D01*
X353023Y193645D01*
X353088Y193584D01*
X353149Y193519D01*
X353208Y193452D01*
X353264Y193383D01*
X353317Y193311D01*
X353367Y193236D01*
X353413Y193160D01*
X353456Y193082D01*
X353495Y193002D01*
X353531Y192920D01*
X353564Y192837D01*
X353592Y192752D01*
X353617Y192667D01*
X353639Y192580D01*
X353656Y192492D01*
X353669Y192404D01*
X353679Y192315D01*
X353685Y192226D01*
X353687Y192137D01*
X353687Y188863D01*
X353685Y188774D01*
X353679Y188685D01*
X353669Y188596D01*
X353656Y188508D01*
X353639Y188420D01*
X353617Y188333D01*
X353592Y188248D01*
X353564Y188163D01*
X353531Y188080D01*
X353495Y187998D01*
X353456Y187918D01*
X353413Y187840D01*
X353367Y187764D01*
X353317Y187689D01*
X353264Y187617D01*
X353208Y187548D01*
X353149Y187481D01*
X353088Y187416D01*
X353023Y187355D01*
X352956Y187296D01*
X352887Y187240D01*
X352815Y187187D01*
X352740Y187137D01*
X352664Y187091D01*
X352586Y187048D01*
X352506Y187009D01*
X352424Y186973D01*
X352341Y186940D01*
X352256Y186912D01*
X352171Y186887D01*
X352084Y186865D01*
X351996Y186848D01*
X351908Y186835D01*
X351819Y186825D01*
X351730Y186819D01*
X351641Y186817D01*
X349595Y186817D01*
X194822Y177419D02*
X194822Y170053D01*
X198096Y170053D01*
X201162Y170053D02*
X204436Y170053D01*
X201162Y170053D02*
X201162Y177419D01*
X204436Y177419D01*
X203617Y174145D02*
X201162Y174145D01*
X207486Y177419D02*
X207486Y170053D01*
X207486Y177419D02*
X209532Y177419D01*
X209621Y177417D01*
X209710Y177411D01*
X209799Y177401D01*
X209887Y177388D01*
X209975Y177371D01*
X210062Y177349D01*
X210147Y177324D01*
X210232Y177296D01*
X210315Y177263D01*
X210397Y177227D01*
X210477Y177188D01*
X210555Y177145D01*
X210631Y177099D01*
X210706Y177049D01*
X210778Y176996D01*
X210847Y176940D01*
X210914Y176881D01*
X210979Y176820D01*
X211040Y176755D01*
X211099Y176688D01*
X211155Y176619D01*
X211208Y176547D01*
X211258Y176472D01*
X211304Y176396D01*
X211347Y176318D01*
X211386Y176238D01*
X211422Y176156D01*
X211455Y176073D01*
X211483Y175988D01*
X211508Y175903D01*
X211530Y175816D01*
X211547Y175728D01*
X211560Y175640D01*
X211570Y175551D01*
X211576Y175462D01*
X211578Y175373D01*
X211578Y172099D01*
X211576Y172010D01*
X211570Y171921D01*
X211560Y171832D01*
X211547Y171744D01*
X211530Y171656D01*
X211508Y171569D01*
X211483Y171484D01*
X211455Y171399D01*
X211422Y171316D01*
X211386Y171234D01*
X211347Y171154D01*
X211304Y171076D01*
X211258Y171000D01*
X211208Y170925D01*
X211155Y170853D01*
X211099Y170784D01*
X211040Y170717D01*
X210979Y170652D01*
X210914Y170591D01*
X210847Y170532D01*
X210778Y170476D01*
X210706Y170423D01*
X210631Y170373D01*
X210555Y170327D01*
X210477Y170284D01*
X210397Y170245D01*
X210315Y170209D01*
X210232Y170176D01*
X210147Y170148D01*
X210062Y170123D01*
X209975Y170101D01*
X209887Y170084D01*
X209799Y170071D01*
X209710Y170061D01*
X209621Y170055D01*
X209532Y170053D01*
X207486Y170053D01*
D10*
X374650Y228600D02*
X387350Y228600D01*
X393700Y222250D01*
X393700Y209550D01*
X387350Y203200D01*
X368300Y209550D02*
X368300Y222250D01*
X374650Y228600D01*
X368300Y209550D02*
X374650Y203200D01*
X387350Y203200D01*
D12*
X336931Y212217D02*
X336931Y219583D01*
X336931Y212217D02*
X340205Y212217D01*
X343271Y212217D02*
X346545Y212217D01*
X343271Y212217D02*
X343271Y219583D01*
X346545Y219583D01*
X345726Y216309D02*
X343271Y216309D01*
X349595Y219583D02*
X349595Y212217D01*
X349595Y219583D02*
X351641Y219583D01*
X351730Y219581D01*
X351819Y219575D01*
X351908Y219565D01*
X351996Y219552D01*
X352084Y219535D01*
X352171Y219513D01*
X352256Y219488D01*
X352341Y219460D01*
X352424Y219427D01*
X352506Y219391D01*
X352586Y219352D01*
X352664Y219309D01*
X352740Y219263D01*
X352815Y219213D01*
X352887Y219160D01*
X352956Y219104D01*
X353023Y219045D01*
X353088Y218984D01*
X353149Y218919D01*
X353208Y218852D01*
X353264Y218783D01*
X353317Y218711D01*
X353367Y218636D01*
X353413Y218560D01*
X353456Y218482D01*
X353495Y218402D01*
X353531Y218320D01*
X353564Y218237D01*
X353592Y218152D01*
X353617Y218067D01*
X353639Y217980D01*
X353656Y217892D01*
X353669Y217804D01*
X353679Y217715D01*
X353685Y217626D01*
X353687Y217537D01*
X353687Y214263D01*
X353685Y214174D01*
X353679Y214085D01*
X353669Y213996D01*
X353656Y213908D01*
X353639Y213820D01*
X353617Y213733D01*
X353592Y213648D01*
X353564Y213563D01*
X353531Y213480D01*
X353495Y213398D01*
X353456Y213318D01*
X353413Y213240D01*
X353367Y213164D01*
X353317Y213089D01*
X353264Y213017D01*
X353208Y212948D01*
X353149Y212881D01*
X353088Y212816D01*
X353023Y212755D01*
X352956Y212696D01*
X352887Y212640D01*
X352815Y212587D01*
X352740Y212537D01*
X352664Y212491D01*
X352586Y212448D01*
X352506Y212409D01*
X352424Y212373D01*
X352341Y212340D01*
X352256Y212312D01*
X352171Y212287D01*
X352084Y212265D01*
X351996Y212248D01*
X351908Y212235D01*
X351819Y212225D01*
X351730Y212219D01*
X351641Y212217D01*
X349595Y212217D01*
X357232Y215082D02*
X362143Y215082D01*
X190594Y228981D02*
X190594Y236347D01*
X190594Y228981D02*
X193868Y228981D01*
X196934Y228981D02*
X200208Y228981D01*
X196934Y228981D02*
X196934Y236347D01*
X200208Y236347D01*
X199389Y233073D02*
X196934Y233073D01*
X203258Y236347D02*
X203258Y228981D01*
X203258Y236347D02*
X205304Y236347D01*
X205393Y236345D01*
X205482Y236339D01*
X205571Y236329D01*
X205659Y236316D01*
X205747Y236299D01*
X205834Y236277D01*
X205919Y236252D01*
X206004Y236224D01*
X206087Y236191D01*
X206169Y236155D01*
X206249Y236116D01*
X206327Y236073D01*
X206403Y236027D01*
X206478Y235977D01*
X206550Y235924D01*
X206619Y235868D01*
X206686Y235809D01*
X206751Y235748D01*
X206812Y235683D01*
X206871Y235616D01*
X206927Y235547D01*
X206980Y235475D01*
X207030Y235400D01*
X207076Y235324D01*
X207119Y235246D01*
X207158Y235166D01*
X207194Y235084D01*
X207227Y235001D01*
X207255Y234916D01*
X207280Y234831D01*
X207302Y234744D01*
X207319Y234656D01*
X207332Y234568D01*
X207342Y234479D01*
X207348Y234390D01*
X207350Y234301D01*
X207350Y231027D01*
X207348Y230938D01*
X207342Y230849D01*
X207332Y230760D01*
X207319Y230672D01*
X207302Y230584D01*
X207280Y230497D01*
X207255Y230412D01*
X207227Y230327D01*
X207194Y230244D01*
X207158Y230162D01*
X207119Y230082D01*
X207076Y230004D01*
X207030Y229928D01*
X206980Y229853D01*
X206927Y229781D01*
X206871Y229712D01*
X206812Y229645D01*
X206751Y229580D01*
X206686Y229519D01*
X206619Y229460D01*
X206550Y229404D01*
X206478Y229351D01*
X206403Y229301D01*
X206327Y229255D01*
X206249Y229212D01*
X206169Y229173D01*
X206087Y229137D01*
X206004Y229104D01*
X205919Y229076D01*
X205834Y229051D01*
X205747Y229029D01*
X205659Y229012D01*
X205571Y228999D01*
X205482Y228989D01*
X205393Y228983D01*
X205304Y228981D01*
X203258Y228981D01*
X210895Y231846D02*
X215806Y231846D01*
D10*
X85090Y63500D02*
X85090Y12700D01*
X143510Y12700D02*
X143510Y63500D01*
X85090Y63500D01*
X85090Y12700D02*
X104140Y12700D01*
X124460Y12700D02*
X143510Y12700D01*
X124460Y12700D02*
X124457Y12947D01*
X124448Y13195D01*
X124433Y13442D01*
X124412Y13688D01*
X124385Y13934D01*
X124352Y14179D01*
X124313Y14424D01*
X124268Y14667D01*
X124217Y14909D01*
X124160Y15150D01*
X124098Y15389D01*
X124029Y15627D01*
X123955Y15863D01*
X123875Y16097D01*
X123790Y16329D01*
X123698Y16559D01*
X123602Y16787D01*
X123499Y17012D01*
X123392Y17235D01*
X123278Y17455D01*
X123160Y17672D01*
X123036Y17887D01*
X122907Y18098D01*
X122773Y18306D01*
X122634Y18511D01*
X122490Y18712D01*
X122342Y18910D01*
X122188Y19104D01*
X122030Y19294D01*
X121867Y19480D01*
X121700Y19662D01*
X121528Y19840D01*
X121352Y20014D01*
X121172Y20184D01*
X120987Y20349D01*
X120799Y20509D01*
X120607Y20665D01*
X120411Y20817D01*
X120212Y20963D01*
X120009Y21105D01*
X119802Y21241D01*
X119593Y21373D01*
X119380Y21499D01*
X119164Y21620D01*
X118946Y21736D01*
X118724Y21846D01*
X118500Y21951D01*
X118274Y22051D01*
X118045Y22145D01*
X117814Y22233D01*
X117580Y22316D01*
X117345Y22393D01*
X117108Y22464D01*
X116870Y22530D01*
X116630Y22589D01*
X116388Y22643D01*
X116145Y22691D01*
X115902Y22733D01*
X115657Y22769D01*
X115411Y22799D01*
X115165Y22823D01*
X114918Y22841D01*
X114671Y22853D01*
X114424Y22859D01*
X114176Y22859D01*
X113929Y22853D01*
X113682Y22841D01*
X113435Y22823D01*
X113189Y22799D01*
X112943Y22769D01*
X112698Y22733D01*
X112455Y22691D01*
X112212Y22643D01*
X111970Y22589D01*
X111730Y22530D01*
X111492Y22464D01*
X111255Y22393D01*
X111020Y22316D01*
X110786Y22233D01*
X110555Y22145D01*
X110326Y22051D01*
X110100Y21951D01*
X109876Y21846D01*
X109654Y21736D01*
X109436Y21620D01*
X109220Y21499D01*
X109007Y21373D01*
X108798Y21241D01*
X108591Y21105D01*
X108388Y20963D01*
X108189Y20817D01*
X107993Y20665D01*
X107801Y20509D01*
X107613Y20349D01*
X107428Y20184D01*
X107248Y20014D01*
X107072Y19840D01*
X106900Y19662D01*
X106733Y19480D01*
X106570Y19294D01*
X106412Y19104D01*
X106258Y18910D01*
X106110Y18712D01*
X105966Y18511D01*
X105827Y18306D01*
X105693Y18098D01*
X105564Y17887D01*
X105440Y17672D01*
X105322Y17455D01*
X105208Y17235D01*
X105101Y17012D01*
X104998Y16787D01*
X104902Y16559D01*
X104810Y16329D01*
X104725Y16097D01*
X104645Y15863D01*
X104571Y15627D01*
X104502Y15389D01*
X104440Y15150D01*
X104383Y14909D01*
X104332Y14667D01*
X104287Y14424D01*
X104248Y14179D01*
X104215Y13934D01*
X104188Y13688D01*
X104167Y13442D01*
X104152Y13195D01*
X104143Y12947D01*
X104140Y12700D01*
D13*
X94742Y105410D02*
X94742Y110490D01*
X94744Y110601D01*
X94750Y110711D01*
X94759Y110822D01*
X94773Y110932D01*
X94790Y111041D01*
X94811Y111150D01*
X94836Y111258D01*
X94865Y111365D01*
X94897Y111471D01*
X94933Y111576D01*
X94973Y111679D01*
X95016Y111781D01*
X95063Y111882D01*
X95114Y111981D01*
X95167Y112077D01*
X95224Y112172D01*
X95285Y112265D01*
X95348Y112356D01*
X95415Y112445D01*
X95485Y112531D01*
X95558Y112614D01*
X95633Y112696D01*
X95711Y112774D01*
X95793Y112849D01*
X95876Y112922D01*
X95962Y112992D01*
X96051Y113059D01*
X96142Y113122D01*
X96235Y113183D01*
X96330Y113240D01*
X96426Y113293D01*
X96525Y113344D01*
X96626Y113391D01*
X96728Y113434D01*
X96831Y113474D01*
X96936Y113510D01*
X97042Y113542D01*
X97149Y113571D01*
X97257Y113596D01*
X97366Y113617D01*
X97475Y113634D01*
X97585Y113648D01*
X97696Y113657D01*
X97806Y113663D01*
X97917Y113665D01*
X98028Y113663D01*
X98138Y113657D01*
X98249Y113648D01*
X98359Y113634D01*
X98468Y113617D01*
X98577Y113596D01*
X98685Y113571D01*
X98792Y113542D01*
X98898Y113510D01*
X99003Y113474D01*
X99106Y113434D01*
X99208Y113391D01*
X99309Y113344D01*
X99408Y113293D01*
X99505Y113240D01*
X99599Y113183D01*
X99692Y113122D01*
X99783Y113059D01*
X99872Y112992D01*
X99958Y112922D01*
X100041Y112849D01*
X100123Y112774D01*
X100201Y112696D01*
X100276Y112614D01*
X100349Y112531D01*
X100419Y112445D01*
X100486Y112356D01*
X100549Y112265D01*
X100610Y112172D01*
X100667Y112078D01*
X100720Y111981D01*
X100771Y111882D01*
X100818Y111781D01*
X100861Y111679D01*
X100901Y111576D01*
X100937Y111471D01*
X100969Y111365D01*
X100998Y111258D01*
X101023Y111150D01*
X101044Y111041D01*
X101061Y110932D01*
X101075Y110822D01*
X101084Y110711D01*
X101090Y110601D01*
X101092Y110490D01*
X101092Y105410D01*
X101090Y105299D01*
X101084Y105189D01*
X101075Y105078D01*
X101061Y104968D01*
X101044Y104859D01*
X101023Y104750D01*
X100998Y104642D01*
X100969Y104535D01*
X100937Y104429D01*
X100901Y104324D01*
X100861Y104221D01*
X100818Y104119D01*
X100771Y104018D01*
X100720Y103919D01*
X100667Y103822D01*
X100610Y103728D01*
X100549Y103635D01*
X100486Y103544D01*
X100419Y103455D01*
X100349Y103369D01*
X100276Y103286D01*
X100201Y103204D01*
X100123Y103126D01*
X100041Y103051D01*
X99958Y102978D01*
X99872Y102908D01*
X99783Y102841D01*
X99692Y102778D01*
X99599Y102717D01*
X99504Y102660D01*
X99408Y102607D01*
X99309Y102556D01*
X99208Y102509D01*
X99106Y102466D01*
X99003Y102426D01*
X98898Y102390D01*
X98792Y102358D01*
X98685Y102329D01*
X98577Y102304D01*
X98468Y102283D01*
X98359Y102266D01*
X98249Y102252D01*
X98138Y102243D01*
X98028Y102237D01*
X97917Y102235D01*
X97806Y102237D01*
X97696Y102243D01*
X97585Y102252D01*
X97475Y102266D01*
X97366Y102283D01*
X97257Y102304D01*
X97149Y102329D01*
X97042Y102358D01*
X96936Y102390D01*
X96831Y102426D01*
X96728Y102466D01*
X96626Y102509D01*
X96525Y102556D01*
X96426Y102607D01*
X96330Y102660D01*
X96235Y102717D01*
X96142Y102778D01*
X96051Y102841D01*
X95962Y102908D01*
X95876Y102978D01*
X95793Y103051D01*
X95711Y103126D01*
X95633Y103204D01*
X95558Y103286D01*
X95485Y103369D01*
X95415Y103455D01*
X95348Y103544D01*
X95285Y103635D01*
X95224Y103728D01*
X95167Y103823D01*
X95114Y103919D01*
X95063Y104018D01*
X95016Y104119D01*
X94973Y104221D01*
X94933Y104324D01*
X94897Y104429D01*
X94865Y104535D01*
X94836Y104642D01*
X94811Y104750D01*
X94790Y104859D01*
X94773Y104968D01*
X94759Y105078D01*
X94750Y105189D01*
X94744Y105299D01*
X94742Y105410D01*
X106744Y102235D02*
X106744Y113665D01*
X109919Y113665D01*
X110030Y113663D01*
X110140Y113657D01*
X110251Y113648D01*
X110361Y113634D01*
X110470Y113617D01*
X110579Y113596D01*
X110687Y113571D01*
X110794Y113542D01*
X110900Y113510D01*
X111005Y113474D01*
X111108Y113434D01*
X111210Y113391D01*
X111311Y113344D01*
X111410Y113293D01*
X111507Y113240D01*
X111601Y113183D01*
X111694Y113122D01*
X111785Y113059D01*
X111874Y112992D01*
X111960Y112922D01*
X112043Y112849D01*
X112125Y112774D01*
X112203Y112696D01*
X112278Y112614D01*
X112351Y112531D01*
X112421Y112445D01*
X112488Y112356D01*
X112551Y112265D01*
X112612Y112172D01*
X112669Y112077D01*
X112722Y111981D01*
X112773Y111882D01*
X112820Y111781D01*
X112863Y111679D01*
X112903Y111576D01*
X112939Y111471D01*
X112971Y111365D01*
X113000Y111258D01*
X113025Y111150D01*
X113046Y111041D01*
X113063Y110932D01*
X113077Y110822D01*
X113086Y110711D01*
X113092Y110601D01*
X113094Y110490D01*
X113092Y110379D01*
X113086Y110269D01*
X113077Y110158D01*
X113063Y110048D01*
X113046Y109939D01*
X113025Y109830D01*
X113000Y109722D01*
X112971Y109615D01*
X112939Y109509D01*
X112903Y109404D01*
X112863Y109301D01*
X112820Y109199D01*
X112773Y109098D01*
X112722Y108999D01*
X112669Y108902D01*
X112612Y108808D01*
X112551Y108715D01*
X112488Y108624D01*
X112421Y108535D01*
X112351Y108449D01*
X112278Y108366D01*
X112203Y108284D01*
X112125Y108206D01*
X112043Y108131D01*
X111960Y108058D01*
X111874Y107988D01*
X111785Y107921D01*
X111694Y107858D01*
X111601Y107797D01*
X111506Y107740D01*
X111410Y107687D01*
X111311Y107636D01*
X111210Y107589D01*
X111108Y107546D01*
X111005Y107506D01*
X110900Y107470D01*
X110794Y107438D01*
X110687Y107409D01*
X110579Y107384D01*
X110470Y107363D01*
X110361Y107346D01*
X110251Y107332D01*
X110140Y107323D01*
X110030Y107317D01*
X109919Y107315D01*
X106744Y107315D01*
X120015Y102235D02*
X120015Y113665D01*
X116840Y113665D02*
X123190Y113665D01*
X127508Y110490D02*
X127508Y105410D01*
X127508Y110490D02*
X127510Y110601D01*
X127516Y110711D01*
X127525Y110822D01*
X127539Y110932D01*
X127556Y111041D01*
X127577Y111150D01*
X127602Y111258D01*
X127631Y111365D01*
X127663Y111471D01*
X127699Y111576D01*
X127739Y111679D01*
X127782Y111781D01*
X127829Y111882D01*
X127880Y111981D01*
X127933Y112077D01*
X127990Y112172D01*
X128051Y112265D01*
X128114Y112356D01*
X128181Y112445D01*
X128251Y112531D01*
X128324Y112614D01*
X128399Y112696D01*
X128477Y112774D01*
X128559Y112849D01*
X128642Y112922D01*
X128728Y112992D01*
X128817Y113059D01*
X128908Y113122D01*
X129001Y113183D01*
X129096Y113240D01*
X129192Y113293D01*
X129291Y113344D01*
X129392Y113391D01*
X129494Y113434D01*
X129597Y113474D01*
X129702Y113510D01*
X129808Y113542D01*
X129915Y113571D01*
X130023Y113596D01*
X130132Y113617D01*
X130241Y113634D01*
X130351Y113648D01*
X130462Y113657D01*
X130572Y113663D01*
X130683Y113665D01*
X130794Y113663D01*
X130904Y113657D01*
X131015Y113648D01*
X131125Y113634D01*
X131234Y113617D01*
X131343Y113596D01*
X131451Y113571D01*
X131558Y113542D01*
X131664Y113510D01*
X131769Y113474D01*
X131872Y113434D01*
X131974Y113391D01*
X132075Y113344D01*
X132174Y113293D01*
X132271Y113240D01*
X132365Y113183D01*
X132458Y113122D01*
X132549Y113059D01*
X132638Y112992D01*
X132724Y112922D01*
X132807Y112849D01*
X132889Y112774D01*
X132967Y112696D01*
X133042Y112614D01*
X133115Y112531D01*
X133185Y112445D01*
X133252Y112356D01*
X133315Y112265D01*
X133376Y112172D01*
X133433Y112078D01*
X133486Y111981D01*
X133537Y111882D01*
X133584Y111781D01*
X133627Y111679D01*
X133667Y111576D01*
X133703Y111471D01*
X133735Y111365D01*
X133764Y111258D01*
X133789Y111150D01*
X133810Y111041D01*
X133827Y110932D01*
X133841Y110822D01*
X133850Y110711D01*
X133856Y110601D01*
X133858Y110490D01*
X133858Y105410D01*
X133856Y105299D01*
X133850Y105189D01*
X133841Y105078D01*
X133827Y104968D01*
X133810Y104859D01*
X133789Y104750D01*
X133764Y104642D01*
X133735Y104535D01*
X133703Y104429D01*
X133667Y104324D01*
X133627Y104221D01*
X133584Y104119D01*
X133537Y104018D01*
X133486Y103919D01*
X133433Y103822D01*
X133376Y103728D01*
X133315Y103635D01*
X133252Y103544D01*
X133185Y103455D01*
X133115Y103369D01*
X133042Y103286D01*
X132967Y103204D01*
X132889Y103126D01*
X132807Y103051D01*
X132724Y102978D01*
X132638Y102908D01*
X132549Y102841D01*
X132458Y102778D01*
X132365Y102717D01*
X132270Y102660D01*
X132174Y102607D01*
X132075Y102556D01*
X131974Y102509D01*
X131872Y102466D01*
X131769Y102426D01*
X131664Y102390D01*
X131558Y102358D01*
X131451Y102329D01*
X131343Y102304D01*
X131234Y102283D01*
X131125Y102266D01*
X131015Y102252D01*
X130904Y102243D01*
X130794Y102237D01*
X130683Y102235D01*
X130572Y102237D01*
X130462Y102243D01*
X130351Y102252D01*
X130241Y102266D01*
X130132Y102283D01*
X130023Y102304D01*
X129915Y102329D01*
X129808Y102358D01*
X129702Y102390D01*
X129597Y102426D01*
X129494Y102466D01*
X129392Y102509D01*
X129291Y102556D01*
X129192Y102607D01*
X129096Y102660D01*
X129001Y102717D01*
X128908Y102778D01*
X128817Y102841D01*
X128728Y102908D01*
X128642Y102978D01*
X128559Y103051D01*
X128477Y103126D01*
X128399Y103204D01*
X128324Y103286D01*
X128251Y103369D01*
X128181Y103455D01*
X128114Y103544D01*
X128051Y103635D01*
X127990Y103728D01*
X127933Y103823D01*
X127880Y103919D01*
X127829Y104018D01*
X127782Y104119D01*
X127739Y104221D01*
X127699Y104324D01*
X127663Y104429D01*
X127631Y104535D01*
X127602Y104642D01*
X127577Y104750D01*
X127556Y104859D01*
X127539Y104968D01*
X127525Y105078D01*
X127516Y105189D01*
X127510Y105299D01*
X127508Y105410D01*
D12*
X98414Y88519D02*
X98414Y81153D01*
X98414Y88519D02*
X100460Y88519D01*
X100549Y88517D01*
X100638Y88511D01*
X100727Y88501D01*
X100815Y88488D01*
X100903Y88471D01*
X100990Y88449D01*
X101075Y88424D01*
X101160Y88396D01*
X101243Y88363D01*
X101325Y88327D01*
X101405Y88288D01*
X101483Y88245D01*
X101559Y88199D01*
X101634Y88149D01*
X101706Y88096D01*
X101775Y88040D01*
X101842Y87981D01*
X101907Y87920D01*
X101968Y87855D01*
X102027Y87788D01*
X102083Y87719D01*
X102136Y87647D01*
X102186Y87572D01*
X102232Y87496D01*
X102275Y87418D01*
X102314Y87338D01*
X102350Y87256D01*
X102383Y87173D01*
X102411Y87088D01*
X102436Y87003D01*
X102458Y86916D01*
X102475Y86828D01*
X102488Y86740D01*
X102498Y86651D01*
X102504Y86562D01*
X102506Y86473D01*
X102504Y86384D01*
X102498Y86295D01*
X102488Y86206D01*
X102475Y86118D01*
X102458Y86030D01*
X102436Y85943D01*
X102411Y85858D01*
X102383Y85773D01*
X102350Y85690D01*
X102314Y85608D01*
X102275Y85528D01*
X102232Y85450D01*
X102186Y85374D01*
X102136Y85299D01*
X102083Y85227D01*
X102027Y85158D01*
X101968Y85091D01*
X101907Y85026D01*
X101842Y84965D01*
X101775Y84906D01*
X101706Y84850D01*
X101634Y84797D01*
X101559Y84747D01*
X101483Y84701D01*
X101405Y84658D01*
X101325Y84619D01*
X101243Y84583D01*
X101160Y84550D01*
X101075Y84522D01*
X100990Y84497D01*
X100903Y84475D01*
X100815Y84458D01*
X100727Y84445D01*
X100638Y84435D01*
X100549Y84429D01*
X100460Y84427D01*
X98414Y84427D01*
X106981Y81153D02*
X108618Y81153D01*
X106981Y81153D02*
X106903Y81155D01*
X106825Y81160D01*
X106748Y81170D01*
X106671Y81183D01*
X106595Y81199D01*
X106520Y81219D01*
X106446Y81243D01*
X106373Y81270D01*
X106301Y81301D01*
X106231Y81335D01*
X106163Y81372D01*
X106096Y81413D01*
X106031Y81457D01*
X105969Y81503D01*
X105909Y81553D01*
X105851Y81605D01*
X105796Y81660D01*
X105744Y81718D01*
X105694Y81778D01*
X105648Y81840D01*
X105604Y81905D01*
X105563Y81972D01*
X105526Y82040D01*
X105492Y82110D01*
X105461Y82182D01*
X105434Y82255D01*
X105410Y82329D01*
X105390Y82404D01*
X105374Y82480D01*
X105361Y82557D01*
X105351Y82634D01*
X105346Y82712D01*
X105344Y82790D01*
X105344Y86882D01*
X105346Y86962D01*
X105352Y87042D01*
X105362Y87122D01*
X105375Y87201D01*
X105393Y87280D01*
X105414Y87357D01*
X105440Y87433D01*
X105469Y87508D01*
X105501Y87582D01*
X105537Y87654D01*
X105577Y87724D01*
X105620Y87791D01*
X105666Y87857D01*
X105716Y87920D01*
X105768Y87981D01*
X105823Y88040D01*
X105882Y88095D01*
X105942Y88147D01*
X106006Y88197D01*
X106072Y88243D01*
X106139Y88286D01*
X106209Y88326D01*
X106281Y88362D01*
X106355Y88394D01*
X106429Y88423D01*
X106506Y88449D01*
X106583Y88470D01*
X106662Y88488D01*
X106741Y88501D01*
X106821Y88511D01*
X106901Y88517D01*
X106981Y88519D01*
X108618Y88519D01*
X111464Y83199D02*
X111466Y83288D01*
X111472Y83377D01*
X111482Y83466D01*
X111495Y83554D01*
X111512Y83642D01*
X111534Y83729D01*
X111559Y83814D01*
X111587Y83899D01*
X111620Y83982D01*
X111656Y84064D01*
X111695Y84144D01*
X111738Y84222D01*
X111784Y84298D01*
X111834Y84373D01*
X111887Y84445D01*
X111943Y84514D01*
X112002Y84581D01*
X112063Y84646D01*
X112128Y84707D01*
X112195Y84766D01*
X112264Y84822D01*
X112336Y84875D01*
X112411Y84925D01*
X112487Y84971D01*
X112565Y85014D01*
X112645Y85053D01*
X112727Y85089D01*
X112810Y85122D01*
X112895Y85150D01*
X112980Y85175D01*
X113067Y85197D01*
X113155Y85214D01*
X113243Y85227D01*
X113332Y85237D01*
X113421Y85243D01*
X113510Y85245D01*
X113599Y85243D01*
X113688Y85237D01*
X113777Y85227D01*
X113865Y85214D01*
X113953Y85197D01*
X114040Y85175D01*
X114125Y85150D01*
X114210Y85122D01*
X114293Y85089D01*
X114375Y85053D01*
X114455Y85014D01*
X114533Y84971D01*
X114609Y84925D01*
X114684Y84875D01*
X114756Y84822D01*
X114825Y84766D01*
X114892Y84707D01*
X114957Y84646D01*
X115018Y84581D01*
X115077Y84514D01*
X115133Y84445D01*
X115186Y84373D01*
X115236Y84298D01*
X115282Y84222D01*
X115325Y84144D01*
X115364Y84064D01*
X115400Y83982D01*
X115433Y83899D01*
X115461Y83814D01*
X115486Y83729D01*
X115508Y83642D01*
X115525Y83554D01*
X115538Y83466D01*
X115548Y83377D01*
X115554Y83288D01*
X115556Y83199D01*
X115554Y83110D01*
X115548Y83021D01*
X115538Y82932D01*
X115525Y82844D01*
X115508Y82756D01*
X115486Y82669D01*
X115461Y82584D01*
X115433Y82499D01*
X115400Y82416D01*
X115364Y82334D01*
X115325Y82254D01*
X115282Y82176D01*
X115236Y82100D01*
X115186Y82025D01*
X115133Y81953D01*
X115077Y81884D01*
X115018Y81817D01*
X114957Y81752D01*
X114892Y81691D01*
X114825Y81632D01*
X114756Y81576D01*
X114684Y81523D01*
X114609Y81473D01*
X114533Y81427D01*
X114455Y81384D01*
X114375Y81345D01*
X114293Y81309D01*
X114210Y81276D01*
X114125Y81248D01*
X114040Y81223D01*
X113953Y81201D01*
X113865Y81184D01*
X113777Y81171D01*
X113688Y81161D01*
X113599Y81155D01*
X113510Y81153D01*
X113421Y81155D01*
X113332Y81161D01*
X113243Y81171D01*
X113155Y81184D01*
X113067Y81201D01*
X112980Y81223D01*
X112895Y81248D01*
X112810Y81276D01*
X112727Y81309D01*
X112645Y81345D01*
X112565Y81384D01*
X112487Y81427D01*
X112411Y81473D01*
X112336Y81523D01*
X112264Y81576D01*
X112195Y81632D01*
X112128Y81691D01*
X112063Y81752D01*
X112002Y81817D01*
X111943Y81884D01*
X111887Y81953D01*
X111834Y82025D01*
X111784Y82100D01*
X111738Y82176D01*
X111695Y82254D01*
X111656Y82334D01*
X111620Y82416D01*
X111587Y82499D01*
X111559Y82584D01*
X111534Y82669D01*
X111512Y82756D01*
X111495Y82844D01*
X111482Y82932D01*
X111472Y83021D01*
X111466Y83110D01*
X111464Y83199D01*
X111873Y86882D02*
X111875Y86961D01*
X111881Y87040D01*
X111890Y87119D01*
X111903Y87197D01*
X111921Y87274D01*
X111941Y87350D01*
X111966Y87425D01*
X111994Y87499D01*
X112025Y87572D01*
X112061Y87643D01*
X112099Y87712D01*
X112141Y87779D01*
X112186Y87844D01*
X112234Y87907D01*
X112285Y87968D01*
X112339Y88025D01*
X112395Y88081D01*
X112454Y88133D01*
X112516Y88183D01*
X112580Y88229D01*
X112646Y88273D01*
X112714Y88313D01*
X112784Y88349D01*
X112856Y88383D01*
X112930Y88413D01*
X113004Y88439D01*
X113080Y88462D01*
X113157Y88480D01*
X113234Y88496D01*
X113313Y88507D01*
X113391Y88515D01*
X113470Y88519D01*
X113550Y88519D01*
X113629Y88515D01*
X113707Y88507D01*
X113786Y88496D01*
X113863Y88480D01*
X113940Y88462D01*
X114016Y88439D01*
X114090Y88413D01*
X114164Y88383D01*
X114236Y88349D01*
X114306Y88313D01*
X114374Y88273D01*
X114440Y88229D01*
X114504Y88183D01*
X114566Y88133D01*
X114625Y88081D01*
X114681Y88025D01*
X114735Y87968D01*
X114786Y87907D01*
X114834Y87844D01*
X114879Y87779D01*
X114921Y87712D01*
X114959Y87643D01*
X114995Y87572D01*
X115026Y87499D01*
X115054Y87425D01*
X115079Y87350D01*
X115099Y87274D01*
X115117Y87197D01*
X115130Y87119D01*
X115139Y87040D01*
X115145Y86961D01*
X115147Y86882D01*
X115145Y86803D01*
X115139Y86724D01*
X115130Y86645D01*
X115117Y86567D01*
X115099Y86490D01*
X115079Y86414D01*
X115054Y86339D01*
X115026Y86265D01*
X114995Y86192D01*
X114959Y86121D01*
X114921Y86052D01*
X114879Y85985D01*
X114834Y85920D01*
X114786Y85857D01*
X114735Y85796D01*
X114681Y85739D01*
X114625Y85683D01*
X114566Y85631D01*
X114504Y85581D01*
X114440Y85535D01*
X114374Y85491D01*
X114306Y85451D01*
X114236Y85415D01*
X114164Y85381D01*
X114090Y85351D01*
X114016Y85325D01*
X113940Y85302D01*
X113863Y85284D01*
X113786Y85268D01*
X113707Y85257D01*
X113629Y85249D01*
X113550Y85245D01*
X113470Y85245D01*
X113391Y85249D01*
X113313Y85257D01*
X113234Y85268D01*
X113157Y85284D01*
X113080Y85302D01*
X113004Y85325D01*
X112930Y85351D01*
X112856Y85381D01*
X112784Y85415D01*
X112714Y85451D01*
X112646Y85491D01*
X112580Y85535D01*
X112516Y85581D01*
X112454Y85631D01*
X112395Y85683D01*
X112339Y85739D01*
X112285Y85796D01*
X112234Y85857D01*
X112186Y85920D01*
X112141Y85985D01*
X112099Y86052D01*
X112061Y86121D01*
X112025Y86192D01*
X111994Y86265D01*
X111966Y86339D01*
X111941Y86414D01*
X111921Y86490D01*
X111903Y86567D01*
X111890Y86645D01*
X111881Y86724D01*
X111875Y86803D01*
X111873Y86882D01*
X118779Y86882D02*
X120825Y88519D01*
X120825Y81153D01*
X118779Y81153D02*
X122871Y81153D01*
X126094Y87701D02*
X126094Y88519D01*
X130186Y88519D01*
X128140Y81153D01*
D10*
X25400Y31750D02*
X25400Y19050D01*
X25400Y31750D02*
X31750Y38100D01*
X44450Y38100D01*
X50800Y31750D01*
X44450Y12700D02*
X31750Y12700D01*
X25400Y19050D01*
X44450Y12700D02*
X50800Y19050D01*
X50800Y31750D01*
X31750Y38100D02*
X25400Y44450D01*
X25400Y57150D01*
X31750Y63500D01*
X44450Y63500D01*
X50800Y57150D01*
X50800Y44450D01*
X44450Y38100D01*
D13*
X23495Y80010D02*
X23495Y85090D01*
X23497Y85201D01*
X23503Y85311D01*
X23512Y85422D01*
X23526Y85532D01*
X23543Y85641D01*
X23564Y85750D01*
X23589Y85858D01*
X23618Y85965D01*
X23650Y86071D01*
X23686Y86176D01*
X23726Y86279D01*
X23769Y86381D01*
X23816Y86482D01*
X23867Y86581D01*
X23920Y86677D01*
X23977Y86772D01*
X24038Y86865D01*
X24101Y86956D01*
X24168Y87045D01*
X24238Y87131D01*
X24311Y87214D01*
X24386Y87296D01*
X24464Y87374D01*
X24546Y87449D01*
X24629Y87522D01*
X24715Y87592D01*
X24804Y87659D01*
X24895Y87722D01*
X24988Y87783D01*
X25082Y87840D01*
X25179Y87893D01*
X25278Y87944D01*
X25379Y87991D01*
X25481Y88034D01*
X25584Y88074D01*
X25689Y88110D01*
X25795Y88142D01*
X25902Y88171D01*
X26010Y88196D01*
X26119Y88217D01*
X26228Y88234D01*
X26338Y88248D01*
X26449Y88257D01*
X26559Y88263D01*
X26670Y88265D01*
X26781Y88263D01*
X26891Y88257D01*
X27002Y88248D01*
X27112Y88234D01*
X27221Y88217D01*
X27330Y88196D01*
X27438Y88171D01*
X27545Y88142D01*
X27651Y88110D01*
X27756Y88074D01*
X27859Y88034D01*
X27961Y87991D01*
X28062Y87944D01*
X28161Y87893D01*
X28258Y87840D01*
X28352Y87783D01*
X28445Y87722D01*
X28536Y87659D01*
X28625Y87592D01*
X28711Y87522D01*
X28794Y87449D01*
X28876Y87374D01*
X28954Y87296D01*
X29029Y87214D01*
X29102Y87131D01*
X29172Y87045D01*
X29239Y86956D01*
X29302Y86865D01*
X29363Y86772D01*
X29420Y86678D01*
X29473Y86581D01*
X29524Y86482D01*
X29571Y86381D01*
X29614Y86279D01*
X29654Y86176D01*
X29690Y86071D01*
X29722Y85965D01*
X29751Y85858D01*
X29776Y85750D01*
X29797Y85641D01*
X29814Y85532D01*
X29828Y85422D01*
X29837Y85311D01*
X29843Y85201D01*
X29845Y85090D01*
X29845Y80010D01*
X29843Y79899D01*
X29837Y79789D01*
X29828Y79678D01*
X29814Y79568D01*
X29797Y79459D01*
X29776Y79350D01*
X29751Y79242D01*
X29722Y79135D01*
X29690Y79029D01*
X29654Y78924D01*
X29614Y78821D01*
X29571Y78719D01*
X29524Y78618D01*
X29473Y78519D01*
X29420Y78422D01*
X29363Y78328D01*
X29302Y78235D01*
X29239Y78144D01*
X29172Y78055D01*
X29102Y77969D01*
X29029Y77886D01*
X28954Y77804D01*
X28876Y77726D01*
X28794Y77651D01*
X28711Y77578D01*
X28625Y77508D01*
X28536Y77441D01*
X28445Y77378D01*
X28352Y77317D01*
X28257Y77260D01*
X28161Y77207D01*
X28062Y77156D01*
X27961Y77109D01*
X27859Y77066D01*
X27756Y77026D01*
X27651Y76990D01*
X27545Y76958D01*
X27438Y76929D01*
X27330Y76904D01*
X27221Y76883D01*
X27112Y76866D01*
X27002Y76852D01*
X26891Y76843D01*
X26781Y76837D01*
X26670Y76835D01*
X26559Y76837D01*
X26449Y76843D01*
X26338Y76852D01*
X26228Y76866D01*
X26119Y76883D01*
X26010Y76904D01*
X25902Y76929D01*
X25795Y76958D01*
X25689Y76990D01*
X25584Y77026D01*
X25481Y77066D01*
X25379Y77109D01*
X25278Y77156D01*
X25179Y77207D01*
X25082Y77260D01*
X24988Y77317D01*
X24895Y77378D01*
X24804Y77441D01*
X24715Y77508D01*
X24629Y77578D01*
X24546Y77651D01*
X24464Y77726D01*
X24386Y77804D01*
X24311Y77886D01*
X24238Y77969D01*
X24168Y78055D01*
X24101Y78144D01*
X24038Y78235D01*
X23977Y78328D01*
X23920Y78423D01*
X23867Y78519D01*
X23816Y78618D01*
X23769Y78719D01*
X23726Y78821D01*
X23686Y78924D01*
X23650Y79029D01*
X23618Y79135D01*
X23589Y79242D01*
X23564Y79350D01*
X23543Y79459D01*
X23526Y79568D01*
X23512Y79678D01*
X23503Y79789D01*
X23497Y79899D01*
X23495Y80010D01*
X35306Y80010D02*
X35306Y88265D01*
X35306Y80010D02*
X35308Y79899D01*
X35314Y79789D01*
X35323Y79678D01*
X35337Y79568D01*
X35354Y79459D01*
X35375Y79350D01*
X35400Y79242D01*
X35429Y79135D01*
X35461Y79029D01*
X35497Y78924D01*
X35537Y78821D01*
X35580Y78719D01*
X35627Y78618D01*
X35678Y78519D01*
X35731Y78423D01*
X35788Y78328D01*
X35849Y78235D01*
X35912Y78144D01*
X35979Y78055D01*
X36049Y77969D01*
X36122Y77886D01*
X36197Y77804D01*
X36275Y77726D01*
X36357Y77651D01*
X36440Y77578D01*
X36526Y77508D01*
X36615Y77441D01*
X36706Y77378D01*
X36799Y77317D01*
X36894Y77260D01*
X36990Y77207D01*
X37089Y77156D01*
X37190Y77109D01*
X37292Y77066D01*
X37395Y77026D01*
X37500Y76990D01*
X37606Y76958D01*
X37713Y76929D01*
X37821Y76904D01*
X37930Y76883D01*
X38039Y76866D01*
X38149Y76852D01*
X38260Y76843D01*
X38370Y76837D01*
X38481Y76835D01*
X38592Y76837D01*
X38702Y76843D01*
X38813Y76852D01*
X38923Y76866D01*
X39032Y76883D01*
X39141Y76904D01*
X39249Y76929D01*
X39356Y76958D01*
X39462Y76990D01*
X39567Y77026D01*
X39670Y77066D01*
X39772Y77109D01*
X39873Y77156D01*
X39972Y77207D01*
X40068Y77260D01*
X40163Y77317D01*
X40256Y77378D01*
X40347Y77441D01*
X40436Y77508D01*
X40522Y77578D01*
X40605Y77651D01*
X40687Y77726D01*
X40765Y77804D01*
X40840Y77886D01*
X40913Y77969D01*
X40983Y78055D01*
X41050Y78144D01*
X41113Y78235D01*
X41174Y78328D01*
X41231Y78422D01*
X41284Y78519D01*
X41335Y78618D01*
X41382Y78719D01*
X41425Y78821D01*
X41465Y78924D01*
X41501Y79029D01*
X41533Y79135D01*
X41562Y79242D01*
X41587Y79350D01*
X41608Y79459D01*
X41625Y79568D01*
X41639Y79678D01*
X41648Y79789D01*
X41654Y79899D01*
X41656Y80010D01*
X41656Y88265D01*
X49530Y88265D02*
X49530Y76835D01*
X46355Y88265D02*
X52705Y88265D01*
D12*
X10682Y21776D02*
X10760Y21774D01*
X10838Y21769D01*
X10915Y21759D01*
X10992Y21746D01*
X11068Y21730D01*
X11143Y21710D01*
X11217Y21686D01*
X11290Y21659D01*
X11362Y21628D01*
X11432Y21594D01*
X11501Y21557D01*
X11567Y21516D01*
X11632Y21472D01*
X11694Y21426D01*
X11754Y21376D01*
X11812Y21324D01*
X11867Y21269D01*
X11919Y21211D01*
X11969Y21151D01*
X12015Y21089D01*
X12059Y21024D01*
X12100Y20958D01*
X12137Y20889D01*
X12171Y20819D01*
X12202Y20747D01*
X12229Y20674D01*
X12253Y20600D01*
X12273Y20525D01*
X12289Y20449D01*
X12302Y20372D01*
X12312Y20295D01*
X12317Y20217D01*
X12319Y20139D01*
X12317Y20025D01*
X12312Y19912D01*
X12302Y19798D01*
X12289Y19685D01*
X12272Y19573D01*
X12252Y19461D01*
X12228Y19350D01*
X12200Y19239D01*
X12169Y19130D01*
X12134Y19022D01*
X12095Y18915D01*
X12053Y18809D01*
X12008Y18705D01*
X11959Y18602D01*
X11906Y18501D01*
X11851Y18402D01*
X11792Y18304D01*
X11730Y18209D01*
X11665Y18116D01*
X11597Y18024D01*
X11526Y17936D01*
X11452Y17849D01*
X11375Y17765D01*
X11296Y17684D01*
X6590Y17888D02*
X6512Y17890D01*
X6434Y17895D01*
X6357Y17905D01*
X6280Y17918D01*
X6204Y17934D01*
X6129Y17954D01*
X6055Y17978D01*
X5982Y18005D01*
X5910Y18036D01*
X5840Y18070D01*
X5771Y18107D01*
X5705Y18148D01*
X5640Y18192D01*
X5578Y18238D01*
X5518Y18288D01*
X5460Y18340D01*
X5405Y18395D01*
X5353Y18453D01*
X5303Y18513D01*
X5257Y18575D01*
X5213Y18640D01*
X5172Y18707D01*
X5135Y18775D01*
X5101Y18845D01*
X5070Y18917D01*
X5043Y18990D01*
X5019Y19064D01*
X4999Y19139D01*
X4983Y19215D01*
X4970Y19292D01*
X4960Y19369D01*
X4955Y19447D01*
X4953Y19525D01*
X4955Y19635D01*
X4961Y19744D01*
X4971Y19854D01*
X4984Y19962D01*
X5002Y20071D01*
X5023Y20178D01*
X5049Y20285D01*
X5078Y20391D01*
X5110Y20496D01*
X5147Y20599D01*
X5187Y20701D01*
X5231Y20802D01*
X5279Y20901D01*
X5329Y20998D01*
X5384Y21093D01*
X5442Y21186D01*
X5503Y21277D01*
X5567Y21366D01*
X8022Y18706D02*
X7980Y18640D01*
X7936Y18575D01*
X7888Y18513D01*
X7838Y18453D01*
X7785Y18395D01*
X7729Y18340D01*
X7671Y18287D01*
X7610Y18238D01*
X7547Y18191D01*
X7482Y18147D01*
X7415Y18107D01*
X7346Y18070D01*
X7275Y18036D01*
X7203Y18005D01*
X7129Y17978D01*
X7054Y17954D01*
X6979Y17934D01*
X6902Y17918D01*
X6825Y17905D01*
X6747Y17895D01*
X6668Y17890D01*
X6590Y17888D01*
X9249Y20957D02*
X9291Y21024D01*
X9335Y21089D01*
X9383Y21151D01*
X9433Y21211D01*
X9486Y21269D01*
X9542Y21324D01*
X9601Y21376D01*
X9661Y21426D01*
X9725Y21473D01*
X9790Y21516D01*
X9857Y21557D01*
X9926Y21594D01*
X9997Y21628D01*
X10069Y21659D01*
X10143Y21686D01*
X10217Y21710D01*
X10293Y21730D01*
X10370Y21746D01*
X10447Y21759D01*
X10525Y21769D01*
X10604Y21774D01*
X10682Y21776D01*
X9250Y20957D02*
X8022Y18706D01*
X6590Y24755D02*
X4953Y26801D01*
X12319Y26801D01*
X12319Y24755D02*
X12319Y28847D01*
X12319Y41486D02*
X12319Y43123D01*
X12319Y41486D02*
X12317Y41408D01*
X12312Y41330D01*
X12302Y41253D01*
X12289Y41176D01*
X12273Y41100D01*
X12253Y41025D01*
X12229Y40951D01*
X12202Y40878D01*
X12171Y40806D01*
X12137Y40736D01*
X12100Y40668D01*
X12059Y40601D01*
X12015Y40536D01*
X11969Y40474D01*
X11919Y40414D01*
X11867Y40356D01*
X11812Y40301D01*
X11754Y40249D01*
X11694Y40199D01*
X11632Y40153D01*
X11567Y40109D01*
X11501Y40068D01*
X11432Y40031D01*
X11362Y39997D01*
X11290Y39966D01*
X11217Y39939D01*
X11143Y39915D01*
X11068Y39895D01*
X10992Y39879D01*
X10915Y39866D01*
X10838Y39856D01*
X10760Y39851D01*
X10682Y39849D01*
X10682Y39850D02*
X6590Y39850D01*
X6510Y39852D01*
X6430Y39858D01*
X6350Y39868D01*
X6271Y39881D01*
X6192Y39899D01*
X6115Y39920D01*
X6039Y39946D01*
X5964Y39975D01*
X5890Y40007D01*
X5818Y40043D01*
X5748Y40083D01*
X5681Y40126D01*
X5615Y40172D01*
X5552Y40222D01*
X5491Y40274D01*
X5432Y40329D01*
X5377Y40388D01*
X5325Y40448D01*
X5275Y40512D01*
X5229Y40577D01*
X5186Y40645D01*
X5146Y40715D01*
X5110Y40787D01*
X5078Y40861D01*
X5049Y40935D01*
X5024Y41012D01*
X5002Y41089D01*
X4984Y41168D01*
X4971Y41247D01*
X4961Y41326D01*
X4955Y41407D01*
X4953Y41487D01*
X4953Y41486D02*
X4953Y43123D01*
X6999Y45969D02*
X10273Y45969D01*
X6999Y45969D02*
X6910Y45971D01*
X6821Y45977D01*
X6732Y45987D01*
X6644Y46000D01*
X6556Y46017D01*
X6469Y46039D01*
X6384Y46064D01*
X6299Y46092D01*
X6216Y46125D01*
X6134Y46161D01*
X6054Y46200D01*
X5976Y46243D01*
X5900Y46289D01*
X5825Y46339D01*
X5753Y46392D01*
X5684Y46448D01*
X5617Y46507D01*
X5552Y46568D01*
X5491Y46633D01*
X5432Y46700D01*
X5376Y46769D01*
X5323Y46841D01*
X5273Y46916D01*
X5227Y46992D01*
X5184Y47070D01*
X5145Y47150D01*
X5109Y47232D01*
X5076Y47315D01*
X5048Y47400D01*
X5023Y47485D01*
X5001Y47572D01*
X4984Y47660D01*
X4971Y47748D01*
X4961Y47837D01*
X4955Y47926D01*
X4953Y48015D01*
X4955Y48104D01*
X4961Y48193D01*
X4971Y48282D01*
X4984Y48370D01*
X5001Y48458D01*
X5023Y48545D01*
X5048Y48630D01*
X5076Y48715D01*
X5109Y48798D01*
X5145Y48880D01*
X5184Y48960D01*
X5227Y49038D01*
X5273Y49114D01*
X5323Y49189D01*
X5376Y49261D01*
X5432Y49330D01*
X5491Y49397D01*
X5552Y49462D01*
X5617Y49523D01*
X5684Y49582D01*
X5753Y49638D01*
X5825Y49691D01*
X5900Y49741D01*
X5976Y49787D01*
X6054Y49830D01*
X6134Y49869D01*
X6216Y49905D01*
X6299Y49938D01*
X6384Y49966D01*
X6469Y49991D01*
X6556Y50013D01*
X6644Y50030D01*
X6732Y50043D01*
X6821Y50053D01*
X6910Y50059D01*
X6999Y50061D01*
X10273Y50061D01*
X10362Y50059D01*
X10451Y50053D01*
X10540Y50043D01*
X10628Y50030D01*
X10716Y50013D01*
X10803Y49991D01*
X10888Y49966D01*
X10973Y49938D01*
X11056Y49905D01*
X11138Y49869D01*
X11218Y49830D01*
X11296Y49787D01*
X11372Y49741D01*
X11447Y49691D01*
X11519Y49638D01*
X11588Y49582D01*
X11655Y49523D01*
X11720Y49462D01*
X11781Y49397D01*
X11840Y49330D01*
X11896Y49261D01*
X11949Y49189D01*
X11999Y49114D01*
X12045Y49038D01*
X12088Y48960D01*
X12127Y48880D01*
X12163Y48798D01*
X12196Y48715D01*
X12224Y48630D01*
X12249Y48545D01*
X12271Y48458D01*
X12288Y48370D01*
X12301Y48282D01*
X12311Y48193D01*
X12317Y48104D01*
X12319Y48015D01*
X12317Y47926D01*
X12311Y47837D01*
X12301Y47748D01*
X12288Y47660D01*
X12271Y47572D01*
X12249Y47485D01*
X12224Y47400D01*
X12196Y47315D01*
X12163Y47232D01*
X12127Y47150D01*
X12088Y47070D01*
X12045Y46992D01*
X11999Y46916D01*
X11949Y46841D01*
X11896Y46769D01*
X11840Y46700D01*
X11781Y46633D01*
X11720Y46568D01*
X11655Y46507D01*
X11588Y46448D01*
X11519Y46392D01*
X11447Y46339D01*
X11372Y46289D01*
X11296Y46243D01*
X11218Y46200D01*
X11138Y46161D01*
X11056Y46125D01*
X10973Y46092D01*
X10888Y46064D01*
X10803Y46039D01*
X10716Y46017D01*
X10628Y46000D01*
X10540Y45987D01*
X10451Y45977D01*
X10362Y45971D01*
X10273Y45969D01*
X12319Y53606D02*
X4953Y53606D01*
X9045Y56061D01*
X4953Y58517D01*
X12319Y58517D01*
X360553Y101981D02*
X367919Y101981D01*
X360553Y101981D02*
X360553Y104027D01*
X360555Y104116D01*
X360561Y104205D01*
X360571Y104294D01*
X360584Y104382D01*
X360601Y104470D01*
X360623Y104557D01*
X360648Y104642D01*
X360676Y104727D01*
X360709Y104810D01*
X360745Y104892D01*
X360784Y104972D01*
X360827Y105050D01*
X360873Y105126D01*
X360923Y105201D01*
X360976Y105273D01*
X361032Y105342D01*
X361091Y105409D01*
X361152Y105474D01*
X361217Y105535D01*
X361284Y105594D01*
X361353Y105650D01*
X361425Y105703D01*
X361500Y105753D01*
X361576Y105799D01*
X361654Y105842D01*
X361734Y105881D01*
X361816Y105917D01*
X361899Y105950D01*
X361984Y105978D01*
X362069Y106003D01*
X362156Y106025D01*
X362244Y106042D01*
X362332Y106055D01*
X362421Y106065D01*
X362510Y106071D01*
X362599Y106073D01*
X362688Y106071D01*
X362777Y106065D01*
X362866Y106055D01*
X362954Y106042D01*
X363042Y106025D01*
X363129Y106003D01*
X363214Y105978D01*
X363299Y105950D01*
X363382Y105917D01*
X363464Y105881D01*
X363544Y105842D01*
X363622Y105799D01*
X363698Y105753D01*
X363773Y105703D01*
X363845Y105650D01*
X363914Y105594D01*
X363981Y105535D01*
X364046Y105474D01*
X364107Y105409D01*
X364166Y105342D01*
X364222Y105273D01*
X364275Y105201D01*
X364325Y105126D01*
X364371Y105050D01*
X364414Y104972D01*
X364453Y104892D01*
X364489Y104810D01*
X364522Y104727D01*
X364550Y104642D01*
X364575Y104557D01*
X364597Y104470D01*
X364614Y104382D01*
X364627Y104294D01*
X364637Y104205D01*
X364643Y104116D01*
X364645Y104027D01*
X364645Y101981D01*
X364645Y104436D02*
X367919Y106073D01*
X362190Y109245D02*
X360553Y111291D01*
X367919Y111291D01*
X367919Y109245D02*
X367919Y113337D01*
X366282Y126060D02*
X360553Y127697D01*
X366282Y126060D02*
X366282Y130152D01*
X364645Y128924D02*
X367919Y128924D01*
X367919Y133634D02*
X360553Y133634D01*
X363008Y136908D02*
X365464Y133634D01*
X364441Y135067D02*
X367919Y136908D01*
X361371Y139715D02*
X360553Y139715D01*
X360553Y143807D01*
X367919Y141761D01*
X363008Y147109D02*
X362912Y147111D01*
X362815Y147117D01*
X362719Y147126D01*
X362624Y147139D01*
X362529Y147156D01*
X362435Y147177D01*
X362342Y147201D01*
X362249Y147229D01*
X362158Y147261D01*
X362069Y147296D01*
X361980Y147334D01*
X361893Y147377D01*
X361808Y147422D01*
X361725Y147471D01*
X361644Y147523D01*
X361565Y147578D01*
X361488Y147636D01*
X361414Y147697D01*
X361342Y147761D01*
X361272Y147828D01*
X361205Y147898D01*
X361141Y147970D01*
X361080Y148044D01*
X361022Y148121D01*
X360967Y148200D01*
X360915Y148281D01*
X360866Y148364D01*
X360821Y148449D01*
X360779Y148536D01*
X360740Y148625D01*
X360705Y148714D01*
X360673Y148805D01*
X360645Y148898D01*
X360621Y148991D01*
X360600Y149085D01*
X360583Y149180D01*
X360570Y149275D01*
X360561Y149371D01*
X360555Y149468D01*
X360553Y149564D01*
X363008Y147108D02*
X363827Y147108D01*
X363920Y147110D01*
X364012Y147115D01*
X364105Y147125D01*
X364197Y147138D01*
X364288Y147154D01*
X364379Y147175D01*
X364468Y147198D01*
X364557Y147226D01*
X364645Y147257D01*
X364731Y147291D01*
X364815Y147329D01*
X364899Y147370D01*
X364980Y147415D01*
X365060Y147463D01*
X365137Y147514D01*
X365213Y147568D01*
X365286Y147625D01*
X365357Y147684D01*
X365426Y147747D01*
X365492Y147812D01*
X365555Y147880D01*
X365615Y147951D01*
X365673Y148023D01*
X365728Y148098D01*
X365779Y148176D01*
X365828Y148255D01*
X365873Y148336D01*
X367919Y148336D01*
X367919Y147108D01*
X363008Y152019D02*
X362912Y152017D01*
X362815Y152011D01*
X362719Y152002D01*
X362624Y151989D01*
X362529Y151972D01*
X362435Y151951D01*
X362342Y151927D01*
X362249Y151899D01*
X362158Y151867D01*
X362069Y151832D01*
X361980Y151794D01*
X361893Y151751D01*
X361808Y151706D01*
X361725Y151657D01*
X361644Y151605D01*
X361565Y151550D01*
X361488Y151492D01*
X361414Y151431D01*
X361342Y151367D01*
X361272Y151300D01*
X361205Y151230D01*
X361141Y151158D01*
X361080Y151084D01*
X361022Y151007D01*
X360967Y150928D01*
X360915Y150847D01*
X360866Y150764D01*
X360821Y150679D01*
X360779Y150592D01*
X360740Y150503D01*
X360705Y150414D01*
X360673Y150323D01*
X360645Y150230D01*
X360621Y150137D01*
X360600Y150043D01*
X360583Y149948D01*
X360570Y149853D01*
X360561Y149757D01*
X360555Y149660D01*
X360553Y149564D01*
X363008Y152019D02*
X363827Y152019D01*
X363920Y152017D01*
X364012Y152012D01*
X364105Y152002D01*
X364197Y151989D01*
X364288Y151973D01*
X364379Y151952D01*
X364468Y151929D01*
X364557Y151901D01*
X364645Y151870D01*
X364731Y151836D01*
X364815Y151798D01*
X364899Y151757D01*
X364980Y151712D01*
X365060Y151664D01*
X365137Y151613D01*
X365213Y151559D01*
X365286Y151502D01*
X365357Y151443D01*
X365426Y151380D01*
X365492Y151315D01*
X365555Y151247D01*
X365615Y151176D01*
X365673Y151104D01*
X365728Y151029D01*
X365779Y150951D01*
X365828Y150872D01*
X365873Y150791D01*
X367919Y150791D01*
X367919Y152019D01*
X178181Y71247D02*
X178181Y63881D01*
X178181Y71247D02*
X180227Y71247D01*
X180316Y71245D01*
X180405Y71239D01*
X180494Y71229D01*
X180582Y71216D01*
X180670Y71199D01*
X180757Y71177D01*
X180842Y71152D01*
X180927Y71124D01*
X181010Y71091D01*
X181092Y71055D01*
X181172Y71016D01*
X181250Y70973D01*
X181326Y70927D01*
X181401Y70877D01*
X181473Y70824D01*
X181542Y70768D01*
X181609Y70709D01*
X181674Y70648D01*
X181735Y70583D01*
X181794Y70516D01*
X181850Y70447D01*
X181903Y70375D01*
X181953Y70300D01*
X181999Y70224D01*
X182042Y70146D01*
X182081Y70066D01*
X182117Y69984D01*
X182150Y69901D01*
X182178Y69816D01*
X182203Y69731D01*
X182225Y69644D01*
X182242Y69556D01*
X182255Y69468D01*
X182265Y69379D01*
X182271Y69290D01*
X182273Y69201D01*
X182271Y69112D01*
X182265Y69023D01*
X182255Y68934D01*
X182242Y68846D01*
X182225Y68758D01*
X182203Y68671D01*
X182178Y68586D01*
X182150Y68501D01*
X182117Y68418D01*
X182081Y68336D01*
X182042Y68256D01*
X181999Y68178D01*
X181953Y68102D01*
X181903Y68027D01*
X181850Y67955D01*
X181794Y67886D01*
X181735Y67819D01*
X181674Y67754D01*
X181609Y67693D01*
X181542Y67634D01*
X181473Y67578D01*
X181401Y67525D01*
X181326Y67475D01*
X181250Y67429D01*
X181172Y67386D01*
X181092Y67347D01*
X181010Y67311D01*
X180927Y67278D01*
X180842Y67250D01*
X180757Y67225D01*
X180670Y67203D01*
X180582Y67186D01*
X180494Y67173D01*
X180405Y67163D01*
X180316Y67157D01*
X180227Y67155D01*
X178181Y67155D01*
X180636Y67155D02*
X182273Y63881D01*
X189538Y69406D02*
X189536Y69491D01*
X189530Y69576D01*
X189520Y69660D01*
X189507Y69744D01*
X189489Y69828D01*
X189468Y69910D01*
X189443Y69991D01*
X189414Y70071D01*
X189381Y70150D01*
X189345Y70227D01*
X189305Y70302D01*
X189262Y70376D01*
X189216Y70447D01*
X189166Y70516D01*
X189113Y70583D01*
X189057Y70647D01*
X188998Y70708D01*
X188937Y70767D01*
X188873Y70823D01*
X188806Y70876D01*
X188737Y70926D01*
X188666Y70972D01*
X188592Y71015D01*
X188517Y71055D01*
X188440Y71091D01*
X188361Y71124D01*
X188281Y71153D01*
X188200Y71178D01*
X188118Y71199D01*
X188034Y71217D01*
X187950Y71230D01*
X187866Y71240D01*
X187781Y71246D01*
X187696Y71248D01*
X187696Y71247D02*
X187600Y71245D01*
X187504Y71239D01*
X187409Y71229D01*
X187314Y71216D01*
X187219Y71198D01*
X187126Y71177D01*
X187033Y71152D01*
X186942Y71123D01*
X186851Y71091D01*
X186762Y71055D01*
X186675Y71015D01*
X186589Y70972D01*
X186505Y70926D01*
X186423Y70876D01*
X186343Y70822D01*
X186266Y70766D01*
X186191Y70706D01*
X186118Y70644D01*
X186048Y70578D01*
X185980Y70510D01*
X185915Y70439D01*
X185854Y70366D01*
X185795Y70290D01*
X185739Y70211D01*
X185687Y70131D01*
X185638Y70048D01*
X185592Y69964D01*
X185550Y69878D01*
X185512Y69790D01*
X185477Y69701D01*
X185445Y69610D01*
X188923Y67974D02*
X188983Y68033D01*
X189040Y68095D01*
X189095Y68159D01*
X189146Y68226D01*
X189195Y68295D01*
X189241Y68365D01*
X189284Y68438D01*
X189324Y68512D01*
X189360Y68588D01*
X189393Y68666D01*
X189423Y68745D01*
X189450Y68825D01*
X189473Y68906D01*
X189492Y68988D01*
X189508Y69070D01*
X189521Y69154D01*
X189530Y69238D01*
X189535Y69322D01*
X189537Y69406D01*
X188923Y67973D02*
X185445Y63881D01*
X189537Y63881D01*
X202260Y69610D02*
X204306Y71247D01*
X204306Y63881D01*
X202260Y63881D02*
X206352Y63881D01*
X209575Y67564D02*
X209577Y67717D01*
X209583Y67870D01*
X209592Y68022D01*
X209606Y68175D01*
X209623Y68327D01*
X209644Y68478D01*
X209669Y68629D01*
X209698Y68779D01*
X209730Y68929D01*
X209767Y69077D01*
X209807Y69225D01*
X209850Y69372D01*
X209898Y69517D01*
X209949Y69661D01*
X210003Y69804D01*
X210062Y69946D01*
X210123Y70085D01*
X210189Y70224D01*
X210215Y70294D01*
X210245Y70364D01*
X210278Y70431D01*
X210314Y70497D01*
X210353Y70561D01*
X210396Y70623D01*
X210442Y70682D01*
X210490Y70740D01*
X210541Y70794D01*
X210595Y70847D01*
X210652Y70896D01*
X210711Y70943D01*
X210772Y70986D01*
X210835Y71027D01*
X210900Y71064D01*
X210967Y71099D01*
X211036Y71129D01*
X211106Y71157D01*
X211177Y71180D01*
X211249Y71201D01*
X211322Y71217D01*
X211396Y71230D01*
X211471Y71240D01*
X211546Y71245D01*
X211621Y71247D01*
X211696Y71245D01*
X211771Y71240D01*
X211846Y71230D01*
X211920Y71217D01*
X211993Y71201D01*
X212065Y71180D01*
X212136Y71157D01*
X212206Y71129D01*
X212275Y71099D01*
X212342Y71064D01*
X212407Y71027D01*
X212470Y70986D01*
X212531Y70943D01*
X212590Y70896D01*
X212647Y70847D01*
X212701Y70794D01*
X212752Y70740D01*
X212801Y70682D01*
X212846Y70623D01*
X212889Y70561D01*
X212928Y70497D01*
X212965Y70431D01*
X212997Y70363D01*
X213027Y70294D01*
X213053Y70224D01*
X213118Y70086D01*
X213180Y69946D01*
X213238Y69804D01*
X213293Y69661D01*
X213344Y69517D01*
X213392Y69372D01*
X213435Y69225D01*
X213475Y69078D01*
X213512Y68929D01*
X213544Y68779D01*
X213573Y68629D01*
X213598Y68478D01*
X213619Y68327D01*
X213636Y68175D01*
X213650Y68022D01*
X213659Y67870D01*
X213665Y67717D01*
X213667Y67564D01*
X209574Y67564D02*
X209576Y67411D01*
X209582Y67258D01*
X209591Y67105D01*
X209605Y66953D01*
X209622Y66801D01*
X209643Y66650D01*
X209668Y66499D01*
X209697Y66348D01*
X209729Y66199D01*
X209766Y66050D01*
X209806Y65903D01*
X209849Y65756D01*
X209897Y65611D01*
X209948Y65466D01*
X210003Y65324D01*
X210061Y65182D01*
X210123Y65042D01*
X210188Y64904D01*
X210189Y64904D02*
X210215Y64833D01*
X210245Y64764D01*
X210278Y64697D01*
X210314Y64631D01*
X210353Y64567D01*
X210396Y64505D01*
X210442Y64446D01*
X210490Y64388D01*
X210541Y64334D01*
X210595Y64281D01*
X210652Y64232D01*
X210711Y64185D01*
X210772Y64142D01*
X210835Y64101D01*
X210900Y64064D01*
X210967Y64029D01*
X211036Y63999D01*
X211106Y63971D01*
X211177Y63948D01*
X211249Y63927D01*
X211322Y63911D01*
X211396Y63898D01*
X211471Y63888D01*
X211546Y63883D01*
X211621Y63881D01*
X213053Y64904D02*
X213118Y65042D01*
X213180Y65182D01*
X213238Y65324D01*
X213293Y65467D01*
X213344Y65611D01*
X213392Y65756D01*
X213435Y65903D01*
X213475Y66051D01*
X213512Y66199D01*
X213544Y66349D01*
X213573Y66499D01*
X213598Y66650D01*
X213619Y66801D01*
X213636Y66953D01*
X213650Y67106D01*
X213659Y67258D01*
X213665Y67411D01*
X213667Y67564D01*
X213053Y64904D02*
X213027Y64834D01*
X212997Y64764D01*
X212965Y64697D01*
X212928Y64631D01*
X212889Y64567D01*
X212846Y64505D01*
X212800Y64446D01*
X212752Y64388D01*
X212701Y64334D01*
X212647Y64281D01*
X212590Y64232D01*
X212531Y64185D01*
X212470Y64142D01*
X212407Y64101D01*
X212342Y64064D01*
X212275Y64029D01*
X212206Y63999D01*
X212136Y63971D01*
X212065Y63948D01*
X211993Y63927D01*
X211920Y63911D01*
X211846Y63898D01*
X211771Y63888D01*
X211696Y63883D01*
X211621Y63881D01*
X209984Y65518D02*
X213258Y69610D01*
X217150Y71247D02*
X217150Y63881D01*
X217150Y66336D02*
X220423Y68792D01*
X218582Y67359D02*
X220423Y63881D01*
X223309Y68792D02*
X223311Y68888D01*
X223317Y68985D01*
X223326Y69081D01*
X223339Y69176D01*
X223356Y69271D01*
X223377Y69365D01*
X223401Y69458D01*
X223429Y69551D01*
X223461Y69642D01*
X223496Y69731D01*
X223535Y69820D01*
X223577Y69907D01*
X223622Y69992D01*
X223671Y70075D01*
X223723Y70156D01*
X223778Y70235D01*
X223836Y70312D01*
X223897Y70386D01*
X223961Y70458D01*
X224028Y70528D01*
X224098Y70595D01*
X224170Y70659D01*
X224244Y70720D01*
X224321Y70778D01*
X224400Y70833D01*
X224481Y70885D01*
X224564Y70934D01*
X224649Y70979D01*
X224736Y71021D01*
X224825Y71060D01*
X224914Y71095D01*
X225005Y71127D01*
X225098Y71155D01*
X225191Y71179D01*
X225285Y71200D01*
X225380Y71217D01*
X225475Y71230D01*
X225571Y71239D01*
X225668Y71245D01*
X225764Y71247D01*
X223308Y68792D02*
X223308Y67973D01*
X223310Y67880D01*
X223315Y67788D01*
X223325Y67695D01*
X223338Y67603D01*
X223354Y67512D01*
X223375Y67421D01*
X223398Y67332D01*
X223426Y67243D01*
X223457Y67155D01*
X223491Y67069D01*
X223529Y66985D01*
X223570Y66901D01*
X223615Y66820D01*
X223663Y66740D01*
X223714Y66663D01*
X223768Y66587D01*
X223825Y66514D01*
X223884Y66443D01*
X223947Y66374D01*
X224012Y66308D01*
X224080Y66245D01*
X224151Y66185D01*
X224223Y66127D01*
X224298Y66072D01*
X224376Y66021D01*
X224455Y65972D01*
X224536Y65927D01*
X224536Y63881D01*
X223308Y63881D01*
X228219Y68792D02*
X228217Y68888D01*
X228211Y68985D01*
X228202Y69081D01*
X228189Y69176D01*
X228172Y69271D01*
X228151Y69365D01*
X228127Y69458D01*
X228099Y69551D01*
X228067Y69642D01*
X228032Y69731D01*
X227993Y69820D01*
X227951Y69907D01*
X227906Y69992D01*
X227857Y70075D01*
X227805Y70156D01*
X227750Y70235D01*
X227692Y70312D01*
X227631Y70386D01*
X227567Y70458D01*
X227500Y70528D01*
X227430Y70595D01*
X227358Y70659D01*
X227284Y70720D01*
X227207Y70778D01*
X227128Y70833D01*
X227047Y70885D01*
X226964Y70934D01*
X226879Y70979D01*
X226792Y71021D01*
X226703Y71060D01*
X226614Y71095D01*
X226523Y71127D01*
X226430Y71155D01*
X226337Y71179D01*
X226243Y71200D01*
X226148Y71217D01*
X226053Y71230D01*
X225957Y71239D01*
X225860Y71245D01*
X225764Y71247D01*
X228219Y68792D02*
X228219Y67973D01*
X228217Y67880D01*
X228212Y67788D01*
X228202Y67695D01*
X228189Y67603D01*
X228173Y67512D01*
X228152Y67421D01*
X228129Y67332D01*
X228101Y67243D01*
X228070Y67155D01*
X228036Y67069D01*
X227998Y66985D01*
X227957Y66901D01*
X227912Y66820D01*
X227864Y66740D01*
X227813Y66663D01*
X227759Y66587D01*
X227702Y66514D01*
X227643Y66443D01*
X227580Y66374D01*
X227515Y66308D01*
X227447Y66245D01*
X227376Y66185D01*
X227304Y66127D01*
X227229Y66072D01*
X227151Y66021D01*
X227072Y65972D01*
X226991Y65927D01*
X226991Y63881D01*
X228219Y63881D01*
X178181Y12319D02*
X178181Y4953D01*
X178181Y12319D02*
X180227Y12319D01*
X180316Y12317D01*
X180405Y12311D01*
X180494Y12301D01*
X180582Y12288D01*
X180670Y12271D01*
X180757Y12249D01*
X180842Y12224D01*
X180927Y12196D01*
X181010Y12163D01*
X181092Y12127D01*
X181172Y12088D01*
X181250Y12045D01*
X181326Y11999D01*
X181401Y11949D01*
X181473Y11896D01*
X181542Y11840D01*
X181609Y11781D01*
X181674Y11720D01*
X181735Y11655D01*
X181794Y11588D01*
X181850Y11519D01*
X181903Y11447D01*
X181953Y11372D01*
X181999Y11296D01*
X182042Y11218D01*
X182081Y11138D01*
X182117Y11056D01*
X182150Y10973D01*
X182178Y10888D01*
X182203Y10803D01*
X182225Y10716D01*
X182242Y10628D01*
X182255Y10540D01*
X182265Y10451D01*
X182271Y10362D01*
X182273Y10273D01*
X182271Y10184D01*
X182265Y10095D01*
X182255Y10006D01*
X182242Y9918D01*
X182225Y9830D01*
X182203Y9743D01*
X182178Y9658D01*
X182150Y9573D01*
X182117Y9490D01*
X182081Y9408D01*
X182042Y9328D01*
X181999Y9250D01*
X181953Y9174D01*
X181903Y9099D01*
X181850Y9027D01*
X181794Y8958D01*
X181735Y8891D01*
X181674Y8826D01*
X181609Y8765D01*
X181542Y8706D01*
X181473Y8650D01*
X181401Y8597D01*
X181326Y8547D01*
X181250Y8501D01*
X181172Y8458D01*
X181092Y8419D01*
X181010Y8383D01*
X180927Y8350D01*
X180842Y8322D01*
X180757Y8297D01*
X180670Y8275D01*
X180582Y8258D01*
X180494Y8245D01*
X180405Y8235D01*
X180316Y8229D01*
X180227Y8227D01*
X178181Y8227D01*
X180636Y8227D02*
X182273Y4953D01*
X185445Y4953D02*
X187491Y4953D01*
X187580Y4955D01*
X187669Y4961D01*
X187758Y4971D01*
X187846Y4984D01*
X187934Y5001D01*
X188021Y5023D01*
X188106Y5048D01*
X188191Y5076D01*
X188274Y5109D01*
X188356Y5145D01*
X188436Y5184D01*
X188514Y5227D01*
X188590Y5273D01*
X188665Y5323D01*
X188737Y5376D01*
X188806Y5432D01*
X188873Y5491D01*
X188938Y5552D01*
X188999Y5617D01*
X189058Y5684D01*
X189114Y5753D01*
X189167Y5825D01*
X189217Y5900D01*
X189263Y5976D01*
X189306Y6054D01*
X189345Y6134D01*
X189381Y6216D01*
X189414Y6299D01*
X189442Y6384D01*
X189467Y6469D01*
X189489Y6556D01*
X189506Y6644D01*
X189519Y6732D01*
X189529Y6821D01*
X189535Y6910D01*
X189537Y6999D01*
X189535Y7088D01*
X189529Y7177D01*
X189519Y7266D01*
X189506Y7354D01*
X189489Y7442D01*
X189467Y7529D01*
X189442Y7614D01*
X189414Y7699D01*
X189381Y7782D01*
X189345Y7864D01*
X189306Y7944D01*
X189263Y8022D01*
X189217Y8098D01*
X189167Y8173D01*
X189114Y8245D01*
X189058Y8314D01*
X188999Y8381D01*
X188938Y8446D01*
X188873Y8507D01*
X188806Y8566D01*
X188737Y8622D01*
X188665Y8675D01*
X188590Y8725D01*
X188514Y8771D01*
X188436Y8814D01*
X188356Y8853D01*
X188274Y8889D01*
X188191Y8922D01*
X188106Y8950D01*
X188021Y8975D01*
X187934Y8997D01*
X187846Y9014D01*
X187758Y9027D01*
X187669Y9037D01*
X187580Y9043D01*
X187491Y9045D01*
X187900Y12319D02*
X185445Y12319D01*
X187900Y12319D02*
X187979Y12317D01*
X188058Y12311D01*
X188137Y12302D01*
X188215Y12289D01*
X188292Y12271D01*
X188368Y12251D01*
X188443Y12226D01*
X188517Y12198D01*
X188590Y12167D01*
X188661Y12131D01*
X188730Y12093D01*
X188797Y12051D01*
X188862Y12006D01*
X188925Y11958D01*
X188986Y11907D01*
X189043Y11853D01*
X189099Y11797D01*
X189151Y11738D01*
X189201Y11676D01*
X189247Y11612D01*
X189291Y11546D01*
X189331Y11478D01*
X189367Y11408D01*
X189401Y11336D01*
X189431Y11262D01*
X189457Y11188D01*
X189480Y11112D01*
X189498Y11035D01*
X189514Y10958D01*
X189525Y10879D01*
X189533Y10801D01*
X189537Y10722D01*
X189537Y10642D01*
X189533Y10563D01*
X189525Y10485D01*
X189514Y10406D01*
X189498Y10329D01*
X189480Y10252D01*
X189457Y10176D01*
X189431Y10102D01*
X189401Y10028D01*
X189367Y9956D01*
X189331Y9886D01*
X189291Y9818D01*
X189247Y9752D01*
X189201Y9688D01*
X189151Y9626D01*
X189099Y9567D01*
X189043Y9511D01*
X188986Y9457D01*
X188925Y9406D01*
X188862Y9358D01*
X188797Y9313D01*
X188730Y9271D01*
X188661Y9233D01*
X188590Y9197D01*
X188517Y9166D01*
X188443Y9138D01*
X188368Y9113D01*
X188292Y9093D01*
X188215Y9075D01*
X188137Y9062D01*
X188058Y9053D01*
X187979Y9047D01*
X187900Y9045D01*
X186263Y9045D01*
X201284Y10682D02*
X203330Y12319D01*
X203330Y4953D01*
X201284Y4953D02*
X205376Y4953D01*
X208600Y8636D02*
X208602Y8789D01*
X208608Y8942D01*
X208617Y9094D01*
X208631Y9247D01*
X208648Y9399D01*
X208669Y9550D01*
X208694Y9701D01*
X208723Y9851D01*
X208755Y10001D01*
X208792Y10149D01*
X208832Y10297D01*
X208875Y10444D01*
X208923Y10589D01*
X208974Y10733D01*
X209028Y10876D01*
X209087Y11018D01*
X209148Y11157D01*
X209214Y11296D01*
X209240Y11366D01*
X209270Y11436D01*
X209303Y11503D01*
X209339Y11569D01*
X209378Y11633D01*
X209421Y11695D01*
X209467Y11754D01*
X209515Y11812D01*
X209566Y11866D01*
X209620Y11919D01*
X209677Y11968D01*
X209736Y12015D01*
X209797Y12058D01*
X209860Y12099D01*
X209925Y12136D01*
X209992Y12171D01*
X210061Y12201D01*
X210131Y12229D01*
X210202Y12252D01*
X210274Y12273D01*
X210347Y12289D01*
X210421Y12302D01*
X210496Y12312D01*
X210571Y12317D01*
X210646Y12319D01*
X210721Y12317D01*
X210796Y12312D01*
X210871Y12302D01*
X210945Y12289D01*
X211018Y12273D01*
X211090Y12252D01*
X211161Y12229D01*
X211231Y12201D01*
X211300Y12171D01*
X211367Y12136D01*
X211432Y12099D01*
X211495Y12058D01*
X211556Y12015D01*
X211615Y11968D01*
X211672Y11919D01*
X211726Y11866D01*
X211777Y11812D01*
X211826Y11754D01*
X211871Y11695D01*
X211914Y11633D01*
X211953Y11569D01*
X211990Y11503D01*
X212022Y11435D01*
X212052Y11366D01*
X212078Y11296D01*
X212143Y11158D01*
X212205Y11018D01*
X212263Y10876D01*
X212318Y10733D01*
X212369Y10589D01*
X212417Y10444D01*
X212460Y10297D01*
X212500Y10150D01*
X212537Y10001D01*
X212569Y9851D01*
X212598Y9701D01*
X212623Y9550D01*
X212644Y9399D01*
X212661Y9247D01*
X212675Y9094D01*
X212684Y8942D01*
X212690Y8789D01*
X212692Y8636D01*
X208599Y8636D02*
X208601Y8483D01*
X208607Y8330D01*
X208616Y8177D01*
X208630Y8025D01*
X208647Y7873D01*
X208668Y7722D01*
X208693Y7571D01*
X208722Y7420D01*
X208754Y7271D01*
X208791Y7122D01*
X208831Y6975D01*
X208874Y6828D01*
X208922Y6683D01*
X208973Y6538D01*
X209028Y6396D01*
X209086Y6254D01*
X209148Y6114D01*
X209213Y5976D01*
X209214Y5976D02*
X209240Y5905D01*
X209270Y5836D01*
X209303Y5769D01*
X209339Y5703D01*
X209378Y5639D01*
X209421Y5577D01*
X209467Y5518D01*
X209515Y5460D01*
X209566Y5406D01*
X209620Y5353D01*
X209677Y5304D01*
X209736Y5257D01*
X209797Y5214D01*
X209860Y5173D01*
X209925Y5136D01*
X209992Y5101D01*
X210061Y5071D01*
X210131Y5043D01*
X210202Y5020D01*
X210274Y4999D01*
X210347Y4983D01*
X210421Y4970D01*
X210496Y4960D01*
X210571Y4955D01*
X210646Y4953D01*
X212077Y5976D02*
X212142Y6114D01*
X212204Y6254D01*
X212262Y6396D01*
X212317Y6539D01*
X212368Y6683D01*
X212416Y6828D01*
X212459Y6975D01*
X212499Y7123D01*
X212536Y7271D01*
X212568Y7421D01*
X212597Y7571D01*
X212622Y7722D01*
X212643Y7873D01*
X212660Y8025D01*
X212674Y8178D01*
X212683Y8330D01*
X212689Y8483D01*
X212691Y8636D01*
X212078Y5976D02*
X212052Y5906D01*
X212022Y5836D01*
X211990Y5769D01*
X211953Y5703D01*
X211914Y5639D01*
X211871Y5577D01*
X211825Y5518D01*
X211777Y5460D01*
X211726Y5406D01*
X211672Y5353D01*
X211615Y5304D01*
X211556Y5257D01*
X211495Y5214D01*
X211432Y5173D01*
X211367Y5136D01*
X211300Y5101D01*
X211231Y5071D01*
X211161Y5043D01*
X211090Y5020D01*
X211018Y4999D01*
X210945Y4983D01*
X210871Y4970D01*
X210796Y4960D01*
X210721Y4955D01*
X210646Y4953D01*
X209009Y6590D02*
X212282Y10682D01*
X215915Y8636D02*
X215917Y8789D01*
X215923Y8942D01*
X215932Y9094D01*
X215946Y9247D01*
X215963Y9399D01*
X215984Y9550D01*
X216009Y9701D01*
X216038Y9851D01*
X216070Y10001D01*
X216107Y10149D01*
X216147Y10297D01*
X216190Y10444D01*
X216238Y10589D01*
X216289Y10733D01*
X216343Y10876D01*
X216402Y11018D01*
X216463Y11157D01*
X216529Y11296D01*
X216555Y11366D01*
X216585Y11436D01*
X216618Y11503D01*
X216654Y11569D01*
X216693Y11633D01*
X216736Y11695D01*
X216782Y11754D01*
X216830Y11812D01*
X216881Y11866D01*
X216935Y11919D01*
X216992Y11968D01*
X217051Y12015D01*
X217112Y12058D01*
X217175Y12099D01*
X217240Y12136D01*
X217307Y12171D01*
X217376Y12201D01*
X217446Y12229D01*
X217517Y12252D01*
X217589Y12273D01*
X217662Y12289D01*
X217736Y12302D01*
X217811Y12312D01*
X217886Y12317D01*
X217961Y12319D01*
X218036Y12317D01*
X218111Y12312D01*
X218186Y12302D01*
X218260Y12289D01*
X218333Y12273D01*
X218405Y12252D01*
X218476Y12229D01*
X218546Y12201D01*
X218615Y12171D01*
X218682Y12136D01*
X218747Y12099D01*
X218810Y12058D01*
X218871Y12015D01*
X218930Y11968D01*
X218987Y11919D01*
X219041Y11866D01*
X219092Y11812D01*
X219141Y11754D01*
X219186Y11695D01*
X219229Y11633D01*
X219268Y11569D01*
X219305Y11503D01*
X219337Y11435D01*
X219367Y11366D01*
X219393Y11296D01*
X219458Y11158D01*
X219520Y11018D01*
X219578Y10876D01*
X219633Y10733D01*
X219684Y10589D01*
X219732Y10444D01*
X219775Y10297D01*
X219815Y10150D01*
X219852Y10001D01*
X219884Y9851D01*
X219913Y9701D01*
X219938Y9550D01*
X219959Y9399D01*
X219976Y9247D01*
X219990Y9094D01*
X219999Y8942D01*
X220005Y8789D01*
X220007Y8636D01*
X215914Y8636D02*
X215916Y8483D01*
X215922Y8330D01*
X215931Y8177D01*
X215945Y8025D01*
X215962Y7873D01*
X215983Y7722D01*
X216008Y7571D01*
X216037Y7420D01*
X216069Y7271D01*
X216106Y7122D01*
X216146Y6975D01*
X216189Y6828D01*
X216237Y6683D01*
X216288Y6538D01*
X216343Y6396D01*
X216401Y6254D01*
X216463Y6114D01*
X216528Y5976D01*
X216529Y5976D02*
X216555Y5905D01*
X216585Y5836D01*
X216618Y5769D01*
X216654Y5703D01*
X216693Y5639D01*
X216736Y5577D01*
X216782Y5518D01*
X216830Y5460D01*
X216881Y5406D01*
X216935Y5353D01*
X216992Y5304D01*
X217051Y5257D01*
X217112Y5214D01*
X217175Y5173D01*
X217240Y5136D01*
X217307Y5101D01*
X217376Y5071D01*
X217446Y5043D01*
X217517Y5020D01*
X217589Y4999D01*
X217662Y4983D01*
X217736Y4970D01*
X217811Y4960D01*
X217886Y4955D01*
X217961Y4953D01*
X219393Y5976D02*
X219458Y6114D01*
X219520Y6254D01*
X219578Y6396D01*
X219633Y6539D01*
X219684Y6683D01*
X219732Y6828D01*
X219775Y6975D01*
X219815Y7123D01*
X219852Y7271D01*
X219884Y7421D01*
X219913Y7571D01*
X219938Y7722D01*
X219959Y7873D01*
X219976Y8025D01*
X219990Y8178D01*
X219999Y8330D01*
X220005Y8483D01*
X220007Y8636D01*
X219393Y5976D02*
X219367Y5906D01*
X219337Y5836D01*
X219305Y5769D01*
X219268Y5703D01*
X219229Y5639D01*
X219186Y5577D01*
X219140Y5518D01*
X219092Y5460D01*
X219041Y5406D01*
X218987Y5353D01*
X218930Y5304D01*
X218871Y5257D01*
X218810Y5214D01*
X218747Y5173D01*
X218682Y5136D01*
X218615Y5101D01*
X218546Y5071D01*
X218476Y5043D01*
X218405Y5020D01*
X218333Y4999D01*
X218260Y4983D01*
X218186Y4970D01*
X218111Y4960D01*
X218036Y4955D01*
X217961Y4953D01*
X216324Y6590D02*
X219598Y10682D01*
X223309Y9864D02*
X223311Y9960D01*
X223317Y10057D01*
X223326Y10153D01*
X223339Y10248D01*
X223356Y10343D01*
X223377Y10437D01*
X223401Y10530D01*
X223429Y10623D01*
X223461Y10714D01*
X223496Y10803D01*
X223535Y10892D01*
X223577Y10979D01*
X223622Y11064D01*
X223671Y11147D01*
X223723Y11228D01*
X223778Y11307D01*
X223836Y11384D01*
X223897Y11458D01*
X223961Y11530D01*
X224028Y11600D01*
X224098Y11667D01*
X224170Y11731D01*
X224244Y11792D01*
X224321Y11850D01*
X224400Y11905D01*
X224481Y11957D01*
X224564Y12006D01*
X224649Y12051D01*
X224736Y12093D01*
X224825Y12132D01*
X224914Y12167D01*
X225005Y12199D01*
X225098Y12227D01*
X225191Y12251D01*
X225285Y12272D01*
X225380Y12289D01*
X225475Y12302D01*
X225571Y12311D01*
X225668Y12317D01*
X225764Y12319D01*
X223308Y9864D02*
X223308Y9045D01*
X223310Y8952D01*
X223315Y8860D01*
X223325Y8767D01*
X223338Y8675D01*
X223354Y8584D01*
X223375Y8493D01*
X223398Y8404D01*
X223426Y8315D01*
X223457Y8227D01*
X223491Y8141D01*
X223529Y8057D01*
X223570Y7973D01*
X223615Y7892D01*
X223663Y7812D01*
X223714Y7735D01*
X223768Y7659D01*
X223825Y7586D01*
X223884Y7515D01*
X223947Y7446D01*
X224012Y7380D01*
X224080Y7317D01*
X224151Y7257D01*
X224223Y7199D01*
X224298Y7144D01*
X224376Y7093D01*
X224455Y7044D01*
X224536Y6999D01*
X224536Y4953D01*
X223308Y4953D01*
X228219Y9864D02*
X228217Y9960D01*
X228211Y10057D01*
X228202Y10153D01*
X228189Y10248D01*
X228172Y10343D01*
X228151Y10437D01*
X228127Y10530D01*
X228099Y10623D01*
X228067Y10714D01*
X228032Y10803D01*
X227993Y10892D01*
X227951Y10979D01*
X227906Y11064D01*
X227857Y11147D01*
X227805Y11228D01*
X227750Y11307D01*
X227692Y11384D01*
X227631Y11458D01*
X227567Y11530D01*
X227500Y11600D01*
X227430Y11667D01*
X227358Y11731D01*
X227284Y11792D01*
X227207Y11850D01*
X227128Y11905D01*
X227047Y11957D01*
X226964Y12006D01*
X226879Y12051D01*
X226792Y12093D01*
X226703Y12132D01*
X226614Y12167D01*
X226523Y12199D01*
X226430Y12227D01*
X226337Y12251D01*
X226243Y12272D01*
X226148Y12289D01*
X226053Y12302D01*
X225957Y12311D01*
X225860Y12317D01*
X225764Y12319D01*
X228219Y9864D02*
X228219Y9045D01*
X228217Y8952D01*
X228212Y8860D01*
X228202Y8767D01*
X228189Y8675D01*
X228173Y8584D01*
X228152Y8493D01*
X228129Y8404D01*
X228101Y8315D01*
X228070Y8227D01*
X228036Y8141D01*
X227998Y8057D01*
X227957Y7973D01*
X227912Y7892D01*
X227864Y7812D01*
X227813Y7735D01*
X227759Y7659D01*
X227702Y7586D01*
X227643Y7515D01*
X227580Y7446D01*
X227515Y7380D01*
X227447Y7317D01*
X227376Y7257D01*
X227304Y7199D01*
X227229Y7144D01*
X227151Y7093D01*
X227072Y7044D01*
X226991Y6999D01*
X226991Y4953D01*
X228219Y4953D01*
D14*
X277876Y33806D02*
X277876Y42394D01*
X306324Y42394D02*
X306324Y33806D01*
X307164Y48100D02*
X307166Y48175D01*
X307172Y48250D01*
X307182Y48325D01*
X307195Y48399D01*
X307213Y48472D01*
X307234Y48544D01*
X307259Y48615D01*
X307288Y48684D01*
X307321Y48752D01*
X307356Y48818D01*
X307396Y48882D01*
X307438Y48944D01*
X307484Y49004D01*
X307533Y49061D01*
X307585Y49115D01*
X307639Y49167D01*
X307696Y49216D01*
X307756Y49262D01*
X307818Y49304D01*
X307882Y49344D01*
X307948Y49379D01*
X308016Y49412D01*
X308085Y49441D01*
X308156Y49466D01*
X308228Y49487D01*
X308301Y49505D01*
X308375Y49518D01*
X308450Y49528D01*
X308525Y49534D01*
X308600Y49536D01*
X308675Y49534D01*
X308750Y49528D01*
X308825Y49518D01*
X308899Y49505D01*
X308972Y49487D01*
X309044Y49466D01*
X309115Y49441D01*
X309184Y49412D01*
X309252Y49379D01*
X309318Y49344D01*
X309382Y49304D01*
X309444Y49262D01*
X309504Y49216D01*
X309561Y49167D01*
X309615Y49115D01*
X309667Y49061D01*
X309716Y49004D01*
X309762Y48944D01*
X309804Y48882D01*
X309844Y48818D01*
X309879Y48752D01*
X309912Y48684D01*
X309941Y48615D01*
X309966Y48544D01*
X309987Y48472D01*
X310005Y48399D01*
X310018Y48325D01*
X310028Y48250D01*
X310034Y48175D01*
X310036Y48100D01*
X310034Y48025D01*
X310028Y47950D01*
X310018Y47875D01*
X310005Y47801D01*
X309987Y47728D01*
X309966Y47656D01*
X309941Y47585D01*
X309912Y47516D01*
X309879Y47448D01*
X309844Y47382D01*
X309804Y47318D01*
X309762Y47256D01*
X309716Y47196D01*
X309667Y47139D01*
X309615Y47085D01*
X309561Y47033D01*
X309504Y46984D01*
X309444Y46938D01*
X309382Y46896D01*
X309318Y46856D01*
X309252Y46821D01*
X309184Y46788D01*
X309115Y46759D01*
X309044Y46734D01*
X308972Y46713D01*
X308899Y46695D01*
X308825Y46682D01*
X308750Y46672D01*
X308675Y46666D01*
X308600Y46664D01*
X308525Y46666D01*
X308450Y46672D01*
X308375Y46682D01*
X308301Y46695D01*
X308228Y46713D01*
X308156Y46734D01*
X308085Y46759D01*
X308016Y46788D01*
X307948Y46821D01*
X307882Y46856D01*
X307818Y46896D01*
X307756Y46938D01*
X307696Y46984D01*
X307639Y47033D01*
X307585Y47085D01*
X307533Y47139D01*
X307484Y47196D01*
X307438Y47256D01*
X307396Y47318D01*
X307356Y47382D01*
X307321Y47448D01*
X307288Y47516D01*
X307259Y47585D01*
X307234Y47656D01*
X307213Y47728D01*
X307195Y47801D01*
X307182Y47875D01*
X307172Y47950D01*
X307166Y48025D01*
X307164Y48100D01*
D15*
X270002Y102870D02*
X270002Y113030D01*
X267180Y113030D02*
X272824Y113030D01*
X277848Y110208D02*
X277848Y105692D01*
X277848Y110208D02*
X277850Y110314D01*
X277856Y110419D01*
X277866Y110524D01*
X277880Y110629D01*
X277897Y110733D01*
X277919Y110836D01*
X277944Y110938D01*
X277973Y111040D01*
X278006Y111140D01*
X278043Y111239D01*
X278083Y111336D01*
X278127Y111432D01*
X278175Y111527D01*
X278226Y111619D01*
X278281Y111709D01*
X278338Y111798D01*
X278399Y111884D01*
X278464Y111967D01*
X278531Y112049D01*
X278601Y112127D01*
X278675Y112203D01*
X278751Y112277D01*
X278829Y112347D01*
X278911Y112414D01*
X278994Y112479D01*
X279080Y112540D01*
X279169Y112597D01*
X279259Y112652D01*
X279351Y112703D01*
X279446Y112751D01*
X279542Y112795D01*
X279639Y112835D01*
X279738Y112872D01*
X279838Y112905D01*
X279940Y112934D01*
X280042Y112959D01*
X280145Y112981D01*
X280249Y112998D01*
X280354Y113012D01*
X280459Y113022D01*
X280564Y113028D01*
X280670Y113030D01*
X280776Y113028D01*
X280881Y113022D01*
X280986Y113012D01*
X281091Y112998D01*
X281195Y112981D01*
X281298Y112959D01*
X281400Y112934D01*
X281502Y112905D01*
X281602Y112872D01*
X281701Y112835D01*
X281798Y112795D01*
X281894Y112751D01*
X281989Y112703D01*
X282081Y112652D01*
X282171Y112597D01*
X282260Y112540D01*
X282346Y112479D01*
X282429Y112414D01*
X282511Y112347D01*
X282589Y112277D01*
X282665Y112203D01*
X282739Y112127D01*
X282809Y112049D01*
X282876Y111967D01*
X282941Y111884D01*
X283002Y111798D01*
X283059Y111709D01*
X283114Y111619D01*
X283165Y111527D01*
X283213Y111432D01*
X283257Y111336D01*
X283297Y111239D01*
X283334Y111140D01*
X283367Y111040D01*
X283396Y110938D01*
X283421Y110836D01*
X283443Y110733D01*
X283460Y110629D01*
X283474Y110524D01*
X283484Y110419D01*
X283490Y110314D01*
X283492Y110208D01*
X283492Y105692D01*
X283490Y105586D01*
X283484Y105481D01*
X283474Y105376D01*
X283460Y105271D01*
X283443Y105167D01*
X283421Y105064D01*
X283396Y104962D01*
X283367Y104860D01*
X283334Y104760D01*
X283297Y104661D01*
X283257Y104564D01*
X283213Y104468D01*
X283165Y104373D01*
X283114Y104281D01*
X283059Y104191D01*
X283002Y104102D01*
X282941Y104016D01*
X282876Y103933D01*
X282809Y103851D01*
X282739Y103773D01*
X282665Y103697D01*
X282589Y103623D01*
X282511Y103553D01*
X282429Y103486D01*
X282346Y103421D01*
X282260Y103360D01*
X282171Y103303D01*
X282081Y103248D01*
X281989Y103197D01*
X281894Y103149D01*
X281798Y103105D01*
X281701Y103065D01*
X281602Y103028D01*
X281502Y102995D01*
X281400Y102966D01*
X281298Y102941D01*
X281195Y102919D01*
X281091Y102902D01*
X280986Y102888D01*
X280881Y102878D01*
X280776Y102872D01*
X280670Y102870D01*
X280564Y102872D01*
X280459Y102878D01*
X280354Y102888D01*
X280249Y102902D01*
X280145Y102919D01*
X280042Y102941D01*
X279940Y102966D01*
X279838Y102995D01*
X279738Y103028D01*
X279639Y103065D01*
X279542Y103105D01*
X279446Y103149D01*
X279351Y103197D01*
X279259Y103248D01*
X279169Y103303D01*
X279080Y103360D01*
X278994Y103421D01*
X278911Y103486D01*
X278829Y103553D01*
X278751Y103623D01*
X278675Y103697D01*
X278601Y103773D01*
X278531Y103851D01*
X278464Y103933D01*
X278399Y104016D01*
X278338Y104102D01*
X278281Y104191D01*
X278226Y104281D01*
X278175Y104373D01*
X278127Y104468D01*
X278083Y104564D01*
X278043Y104661D01*
X278006Y104760D01*
X277973Y104860D01*
X277944Y104962D01*
X277919Y105064D01*
X277897Y105167D01*
X277880Y105271D01*
X277866Y105376D01*
X277856Y105481D01*
X277850Y105586D01*
X277848Y105692D01*
X289659Y105692D02*
X289659Y113030D01*
X289659Y105692D02*
X289661Y105586D01*
X289667Y105481D01*
X289677Y105376D01*
X289691Y105271D01*
X289708Y105167D01*
X289730Y105064D01*
X289755Y104962D01*
X289784Y104860D01*
X289817Y104760D01*
X289854Y104661D01*
X289894Y104564D01*
X289938Y104468D01*
X289986Y104373D01*
X290037Y104281D01*
X290092Y104191D01*
X290149Y104102D01*
X290210Y104016D01*
X290275Y103933D01*
X290342Y103851D01*
X290412Y103773D01*
X290486Y103697D01*
X290562Y103623D01*
X290640Y103553D01*
X290722Y103486D01*
X290805Y103421D01*
X290891Y103360D01*
X290980Y103303D01*
X291070Y103248D01*
X291162Y103197D01*
X291257Y103149D01*
X291353Y103105D01*
X291450Y103065D01*
X291549Y103028D01*
X291649Y102995D01*
X291751Y102966D01*
X291853Y102941D01*
X291956Y102919D01*
X292060Y102902D01*
X292165Y102888D01*
X292270Y102878D01*
X292375Y102872D01*
X292481Y102870D01*
X292587Y102872D01*
X292692Y102878D01*
X292797Y102888D01*
X292902Y102902D01*
X293006Y102919D01*
X293109Y102941D01*
X293211Y102966D01*
X293313Y102995D01*
X293413Y103028D01*
X293512Y103065D01*
X293609Y103105D01*
X293705Y103149D01*
X293800Y103197D01*
X293892Y103248D01*
X293982Y103303D01*
X294071Y103360D01*
X294157Y103421D01*
X294240Y103486D01*
X294322Y103553D01*
X294400Y103623D01*
X294476Y103697D01*
X294550Y103773D01*
X294620Y103851D01*
X294687Y103933D01*
X294752Y104016D01*
X294813Y104102D01*
X294870Y104191D01*
X294925Y104281D01*
X294976Y104373D01*
X295024Y104468D01*
X295068Y104564D01*
X295108Y104661D01*
X295145Y104760D01*
X295178Y104860D01*
X295207Y104962D01*
X295232Y105064D01*
X295254Y105167D01*
X295271Y105271D01*
X295285Y105376D01*
X295295Y105481D01*
X295301Y105586D01*
X295303Y105692D01*
X295303Y113030D01*
X303669Y102870D02*
X305927Y102870D01*
X303669Y102870D02*
X303576Y102872D01*
X303483Y102878D01*
X303390Y102887D01*
X303297Y102901D01*
X303206Y102918D01*
X303115Y102939D01*
X303025Y102964D01*
X302936Y102992D01*
X302848Y103024D01*
X302762Y103060D01*
X302677Y103099D01*
X302594Y103142D01*
X302513Y103188D01*
X302434Y103238D01*
X302357Y103290D01*
X302282Y103346D01*
X302210Y103405D01*
X302140Y103467D01*
X302072Y103531D01*
X302008Y103599D01*
X301946Y103669D01*
X301887Y103741D01*
X301831Y103816D01*
X301779Y103893D01*
X301729Y103972D01*
X301683Y104053D01*
X301640Y104136D01*
X301601Y104221D01*
X301565Y104307D01*
X301533Y104395D01*
X301505Y104484D01*
X301480Y104574D01*
X301459Y104665D01*
X301442Y104756D01*
X301428Y104849D01*
X301419Y104942D01*
X301413Y105035D01*
X301411Y105128D01*
X301412Y105128D02*
X301412Y110772D01*
X301411Y110772D02*
X301413Y110865D01*
X301419Y110958D01*
X301428Y111051D01*
X301442Y111144D01*
X301459Y111235D01*
X301480Y111326D01*
X301505Y111416D01*
X301533Y111505D01*
X301565Y111593D01*
X301601Y111679D01*
X301640Y111764D01*
X301683Y111847D01*
X301729Y111928D01*
X301779Y112007D01*
X301831Y112084D01*
X301887Y112159D01*
X301946Y112231D01*
X302008Y112301D01*
X302072Y112369D01*
X302140Y112433D01*
X302210Y112495D01*
X302282Y112554D01*
X302357Y112610D01*
X302434Y112662D01*
X302513Y112712D01*
X302594Y112758D01*
X302677Y112801D01*
X302762Y112840D01*
X302848Y112876D01*
X302936Y112908D01*
X303025Y112936D01*
X303115Y112961D01*
X303206Y112982D01*
X303297Y112999D01*
X303390Y113013D01*
X303483Y113022D01*
X303576Y113028D01*
X303669Y113030D01*
X305927Y113030D01*
X311376Y113030D02*
X311376Y102870D01*
X311376Y108514D02*
X317020Y108514D01*
X317020Y113030D02*
X317020Y102870D01*
D10*
X242662Y88138D02*
X240461Y81534D01*
X244863Y81534D02*
X242662Y88138D01*
X244313Y83185D02*
X241011Y83185D01*
X249490Y81534D02*
X249490Y88138D01*
X251324Y88138D02*
X247655Y88138D01*
X255950Y88138D02*
X254483Y83002D01*
X258152Y83002D01*
X257051Y84469D02*
X257051Y81534D01*
X263816Y88138D02*
X263895Y88136D01*
X263973Y88131D01*
X264051Y88121D01*
X264128Y88108D01*
X264205Y88091D01*
X264281Y88071D01*
X264356Y88047D01*
X264430Y88020D01*
X264502Y87989D01*
X264573Y87954D01*
X264642Y87917D01*
X264709Y87876D01*
X264774Y87832D01*
X264837Y87785D01*
X264897Y87735D01*
X264955Y87682D01*
X265011Y87626D01*
X265064Y87568D01*
X265114Y87508D01*
X265161Y87445D01*
X265205Y87380D01*
X265246Y87313D01*
X265283Y87244D01*
X265318Y87173D01*
X265349Y87101D01*
X265376Y87027D01*
X265400Y86952D01*
X265420Y86876D01*
X265437Y86799D01*
X265450Y86722D01*
X265460Y86644D01*
X265465Y86566D01*
X265467Y86487D01*
X263816Y88138D02*
X263727Y88136D01*
X263638Y88131D01*
X263550Y88121D01*
X263462Y88108D01*
X263375Y88092D01*
X263288Y88071D01*
X263203Y88047D01*
X263118Y88020D01*
X263035Y87989D01*
X262953Y87954D01*
X262872Y87916D01*
X262793Y87875D01*
X262717Y87831D01*
X262641Y87783D01*
X262568Y87732D01*
X262498Y87679D01*
X262429Y87622D01*
X262363Y87562D01*
X262300Y87500D01*
X262239Y87435D01*
X262181Y87368D01*
X262126Y87298D01*
X262073Y87226D01*
X262024Y87152D01*
X261978Y87076D01*
X261936Y86998D01*
X261896Y86918D01*
X261860Y86837D01*
X261827Y86754D01*
X261798Y86670D01*
X264916Y85203D02*
X264972Y85259D01*
X265026Y85318D01*
X265077Y85379D01*
X265126Y85443D01*
X265171Y85508D01*
X265214Y85576D01*
X265253Y85645D01*
X265290Y85716D01*
X265323Y85789D01*
X265352Y85863D01*
X265379Y85938D01*
X265402Y86014D01*
X265421Y86092D01*
X265437Y86170D01*
X265450Y86248D01*
X265459Y86328D01*
X265464Y86407D01*
X265466Y86487D01*
X264916Y85203D02*
X261798Y81534D01*
X265467Y81534D01*
X269827Y83368D02*
X269827Y86304D01*
X269829Y86389D01*
X269835Y86473D01*
X269845Y86557D01*
X269858Y86641D01*
X269876Y86724D01*
X269897Y86806D01*
X269922Y86887D01*
X269951Y86967D01*
X269983Y87045D01*
X270019Y87121D01*
X270059Y87196D01*
X270102Y87269D01*
X270148Y87340D01*
X270197Y87409D01*
X270250Y87476D01*
X270306Y87540D01*
X270364Y87601D01*
X270425Y87659D01*
X270489Y87715D01*
X270556Y87768D01*
X270625Y87817D01*
X270696Y87863D01*
X270769Y87906D01*
X270844Y87946D01*
X270920Y87982D01*
X270998Y88014D01*
X271078Y88043D01*
X271159Y88068D01*
X271241Y88089D01*
X271324Y88107D01*
X271408Y88120D01*
X271492Y88130D01*
X271576Y88136D01*
X271661Y88138D01*
X271746Y88136D01*
X271830Y88130D01*
X271914Y88120D01*
X271998Y88107D01*
X272081Y88089D01*
X272163Y88068D01*
X272244Y88043D01*
X272324Y88014D01*
X272402Y87982D01*
X272478Y87946D01*
X272553Y87906D01*
X272626Y87863D01*
X272697Y87817D01*
X272766Y87768D01*
X272833Y87715D01*
X272897Y87659D01*
X272958Y87601D01*
X273016Y87540D01*
X273072Y87476D01*
X273125Y87409D01*
X273174Y87340D01*
X273220Y87269D01*
X273263Y87196D01*
X273303Y87121D01*
X273339Y87045D01*
X273371Y86967D01*
X273400Y86887D01*
X273425Y86806D01*
X273446Y86724D01*
X273464Y86641D01*
X273477Y86557D01*
X273487Y86473D01*
X273493Y86389D01*
X273495Y86304D01*
X273496Y86304D02*
X273496Y83368D01*
X273495Y83368D02*
X273493Y83283D01*
X273487Y83199D01*
X273477Y83115D01*
X273464Y83031D01*
X273446Y82948D01*
X273425Y82866D01*
X273400Y82785D01*
X273371Y82705D01*
X273339Y82627D01*
X273303Y82551D01*
X273263Y82476D01*
X273220Y82403D01*
X273174Y82332D01*
X273125Y82263D01*
X273072Y82196D01*
X273016Y82132D01*
X272958Y82071D01*
X272897Y82013D01*
X272833Y81957D01*
X272766Y81904D01*
X272697Y81855D01*
X272626Y81809D01*
X272553Y81766D01*
X272478Y81726D01*
X272402Y81690D01*
X272324Y81658D01*
X272244Y81629D01*
X272163Y81604D01*
X272081Y81583D01*
X271998Y81565D01*
X271914Y81552D01*
X271830Y81542D01*
X271746Y81536D01*
X271661Y81534D01*
X271576Y81536D01*
X271492Y81542D01*
X271408Y81552D01*
X271324Y81565D01*
X271241Y81583D01*
X271159Y81604D01*
X271078Y81629D01*
X270998Y81658D01*
X270920Y81690D01*
X270844Y81726D01*
X270769Y81766D01*
X270696Y81809D01*
X270625Y81855D01*
X270556Y81904D01*
X270489Y81957D01*
X270425Y82013D01*
X270364Y82071D01*
X270306Y82132D01*
X270250Y82196D01*
X270197Y82263D01*
X270148Y82332D01*
X270102Y82403D01*
X270059Y82476D01*
X270019Y82551D01*
X269983Y82627D01*
X269951Y82705D01*
X269922Y82785D01*
X269897Y82866D01*
X269876Y82948D01*
X269858Y83031D01*
X269845Y83115D01*
X269835Y83199D01*
X269829Y83283D01*
X269827Y83368D01*
X272762Y83002D02*
X274229Y81534D01*
X278019Y81534D02*
X278019Y88138D01*
X279853Y88138D02*
X276184Y88138D01*
X283012Y86670D02*
X284846Y88138D01*
X284846Y81534D01*
X283012Y81534D02*
X286681Y81534D01*
X290327Y84836D02*
X290329Y84981D01*
X290335Y85126D01*
X290344Y85271D01*
X290358Y85416D01*
X290375Y85560D01*
X290397Y85703D01*
X290422Y85847D01*
X290451Y85989D01*
X290483Y86130D01*
X290520Y86271D01*
X290560Y86410D01*
X290604Y86549D01*
X290651Y86686D01*
X290702Y86822D01*
X290757Y86956D01*
X290815Y87089D01*
X290877Y87221D01*
X290903Y87290D01*
X290932Y87357D01*
X290965Y87423D01*
X291001Y87486D01*
X291041Y87548D01*
X291084Y87607D01*
X291130Y87664D01*
X291179Y87718D01*
X291231Y87770D01*
X291286Y87819D01*
X291343Y87864D01*
X291403Y87907D01*
X291465Y87946D01*
X291528Y87982D01*
X291594Y88015D01*
X291661Y88043D01*
X291730Y88069D01*
X291800Y88090D01*
X291871Y88108D01*
X291943Y88121D01*
X292016Y88131D01*
X292089Y88137D01*
X292162Y88139D01*
X292162Y88138D02*
X292235Y88136D01*
X292308Y88130D01*
X292381Y88120D01*
X292453Y88107D01*
X292524Y88089D01*
X292594Y88068D01*
X292662Y88042D01*
X292730Y88014D01*
X292795Y87981D01*
X292859Y87945D01*
X292921Y87906D01*
X292980Y87864D01*
X293037Y87818D01*
X293092Y87769D01*
X293144Y87718D01*
X293193Y87663D01*
X293239Y87606D01*
X293282Y87547D01*
X293322Y87486D01*
X293358Y87422D01*
X293391Y87357D01*
X293420Y87290D01*
X293446Y87221D01*
X293508Y87089D01*
X293566Y86956D01*
X293621Y86822D01*
X293672Y86686D01*
X293719Y86549D01*
X293763Y86410D01*
X293803Y86271D01*
X293840Y86130D01*
X293872Y85989D01*
X293901Y85847D01*
X293926Y85704D01*
X293948Y85560D01*
X293965Y85416D01*
X293979Y85271D01*
X293988Y85126D01*
X293994Y84981D01*
X293996Y84836D01*
X290328Y84836D02*
X290330Y84691D01*
X290336Y84546D01*
X290345Y84401D01*
X290359Y84256D01*
X290376Y84112D01*
X290398Y83969D01*
X290423Y83826D01*
X290451Y83683D01*
X290484Y83542D01*
X290521Y83401D01*
X290561Y83262D01*
X290605Y83123D01*
X290652Y82986D01*
X290703Y82850D01*
X290758Y82716D01*
X290816Y82583D01*
X290878Y82451D01*
X290877Y82452D02*
X290903Y82383D01*
X290932Y82316D01*
X290965Y82250D01*
X291001Y82187D01*
X291041Y82125D01*
X291084Y82066D01*
X291130Y82009D01*
X291179Y81955D01*
X291231Y81903D01*
X291286Y81854D01*
X291343Y81809D01*
X291403Y81766D01*
X291465Y81727D01*
X291528Y81691D01*
X291594Y81658D01*
X291661Y81630D01*
X291730Y81604D01*
X291800Y81583D01*
X291871Y81565D01*
X291943Y81552D01*
X292016Y81542D01*
X292089Y81536D01*
X292162Y81534D01*
X293446Y82451D02*
X293508Y82583D01*
X293566Y82716D01*
X293621Y82850D01*
X293672Y82986D01*
X293719Y83123D01*
X293763Y83262D01*
X293803Y83401D01*
X293840Y83542D01*
X293872Y83683D01*
X293901Y83825D01*
X293926Y83968D01*
X293948Y84112D01*
X293965Y84256D01*
X293979Y84401D01*
X293988Y84546D01*
X293994Y84691D01*
X293996Y84836D01*
X293446Y82451D02*
X293420Y82382D01*
X293391Y82315D01*
X293358Y82250D01*
X293322Y82186D01*
X293282Y82125D01*
X293239Y82066D01*
X293193Y82009D01*
X293144Y81954D01*
X293092Y81903D01*
X293037Y81854D01*
X292980Y81808D01*
X292921Y81766D01*
X292859Y81727D01*
X292795Y81691D01*
X292730Y81658D01*
X292662Y81630D01*
X292594Y81604D01*
X292524Y81583D01*
X292452Y81565D01*
X292381Y81552D01*
X292308Y81542D01*
X292235Y81536D01*
X292162Y81534D01*
X290694Y83002D02*
X293629Y86670D01*
X297642Y86670D02*
X299477Y88138D01*
X299477Y81534D01*
X301311Y81534D02*
X297642Y81534D01*
X304958Y84836D02*
X304960Y84981D01*
X304966Y85126D01*
X304975Y85271D01*
X304989Y85416D01*
X305006Y85560D01*
X305028Y85703D01*
X305053Y85847D01*
X305082Y85989D01*
X305114Y86130D01*
X305151Y86271D01*
X305191Y86410D01*
X305235Y86549D01*
X305282Y86686D01*
X305333Y86822D01*
X305388Y86956D01*
X305446Y87089D01*
X305508Y87221D01*
X305507Y87221D02*
X305533Y87290D01*
X305562Y87357D01*
X305595Y87423D01*
X305631Y87486D01*
X305671Y87548D01*
X305714Y87607D01*
X305760Y87664D01*
X305809Y87718D01*
X305861Y87770D01*
X305916Y87819D01*
X305973Y87864D01*
X306033Y87907D01*
X306095Y87946D01*
X306158Y87982D01*
X306224Y88015D01*
X306291Y88043D01*
X306360Y88069D01*
X306430Y88090D01*
X306501Y88108D01*
X306573Y88121D01*
X306646Y88131D01*
X306719Y88137D01*
X306792Y88139D01*
X306792Y88138D02*
X306865Y88136D01*
X306938Y88130D01*
X307011Y88120D01*
X307083Y88107D01*
X307154Y88089D01*
X307224Y88068D01*
X307292Y88042D01*
X307360Y88014D01*
X307425Y87981D01*
X307489Y87945D01*
X307551Y87906D01*
X307610Y87864D01*
X307667Y87818D01*
X307722Y87769D01*
X307774Y87718D01*
X307823Y87663D01*
X307869Y87606D01*
X307912Y87547D01*
X307952Y87486D01*
X307988Y87422D01*
X308021Y87357D01*
X308050Y87290D01*
X308076Y87221D01*
X308138Y87089D01*
X308196Y86956D01*
X308251Y86822D01*
X308302Y86686D01*
X308349Y86549D01*
X308393Y86410D01*
X308433Y86271D01*
X308470Y86130D01*
X308502Y85989D01*
X308531Y85847D01*
X308556Y85704D01*
X308578Y85560D01*
X308595Y85416D01*
X308609Y85271D01*
X308618Y85126D01*
X308624Y84981D01*
X308626Y84836D01*
X304958Y84836D02*
X304960Y84691D01*
X304966Y84546D01*
X304975Y84401D01*
X304989Y84256D01*
X305006Y84112D01*
X305028Y83969D01*
X305053Y83826D01*
X305081Y83683D01*
X305114Y83542D01*
X305151Y83401D01*
X305191Y83262D01*
X305235Y83123D01*
X305282Y82986D01*
X305333Y82850D01*
X305388Y82716D01*
X305446Y82583D01*
X305508Y82451D01*
X305507Y82452D02*
X305533Y82383D01*
X305562Y82316D01*
X305595Y82250D01*
X305631Y82187D01*
X305671Y82125D01*
X305714Y82066D01*
X305760Y82009D01*
X305809Y81955D01*
X305861Y81903D01*
X305916Y81854D01*
X305973Y81809D01*
X306033Y81766D01*
X306095Y81727D01*
X306158Y81691D01*
X306224Y81658D01*
X306291Y81630D01*
X306360Y81604D01*
X306430Y81583D01*
X306501Y81565D01*
X306573Y81552D01*
X306646Y81542D01*
X306719Y81536D01*
X306792Y81534D01*
X308076Y82451D02*
X308138Y82583D01*
X308196Y82716D01*
X308251Y82850D01*
X308302Y82986D01*
X308349Y83123D01*
X308393Y83262D01*
X308433Y83401D01*
X308470Y83542D01*
X308502Y83683D01*
X308531Y83825D01*
X308556Y83968D01*
X308578Y84112D01*
X308595Y84256D01*
X308609Y84401D01*
X308618Y84546D01*
X308624Y84691D01*
X308626Y84836D01*
X308076Y82451D02*
X308050Y82382D01*
X308021Y82315D01*
X307988Y82250D01*
X307952Y82186D01*
X307912Y82125D01*
X307869Y82066D01*
X307823Y82009D01*
X307774Y81954D01*
X307722Y81903D01*
X307667Y81854D01*
X307610Y81808D01*
X307551Y81766D01*
X307489Y81727D01*
X307425Y81691D01*
X307360Y81658D01*
X307292Y81630D01*
X307224Y81604D01*
X307154Y81583D01*
X307082Y81565D01*
X307011Y81552D01*
X306938Y81542D01*
X306865Y81536D01*
X306792Y81534D01*
X305324Y83002D02*
X308259Y86670D01*
X314230Y81534D02*
X314304Y81536D01*
X314378Y81542D01*
X314452Y81551D01*
X314525Y81564D01*
X314598Y81581D01*
X314669Y81601D01*
X314740Y81625D01*
X314809Y81653D01*
X314876Y81684D01*
X314942Y81718D01*
X315007Y81756D01*
X315069Y81797D01*
X315129Y81841D01*
X315186Y81888D01*
X315241Y81938D01*
X315294Y81991D01*
X315344Y82046D01*
X315391Y82103D01*
X315435Y82163D01*
X315476Y82225D01*
X315514Y82290D01*
X315548Y82355D01*
X315579Y82423D01*
X315607Y82492D01*
X315631Y82563D01*
X315651Y82634D01*
X315668Y82706D01*
X315681Y82780D01*
X315690Y82853D01*
X315696Y82928D01*
X315698Y83002D01*
X314230Y81534D02*
X314119Y81536D01*
X314008Y81542D01*
X313897Y81552D01*
X313786Y81566D01*
X313677Y81584D01*
X313568Y81606D01*
X313459Y81631D01*
X313352Y81661D01*
X313246Y81694D01*
X313141Y81732D01*
X313038Y81772D01*
X312936Y81817D01*
X312836Y81865D01*
X312737Y81917D01*
X312641Y81972D01*
X312546Y82031D01*
X312454Y82093D01*
X312364Y82159D01*
X312276Y82227D01*
X312191Y82299D01*
X312109Y82374D01*
X312029Y82451D01*
X312212Y86670D02*
X312214Y86744D01*
X312220Y86819D01*
X312229Y86892D01*
X312242Y86966D01*
X312259Y87038D01*
X312279Y87109D01*
X312303Y87180D01*
X312331Y87249D01*
X312362Y87316D01*
X312396Y87382D01*
X312434Y87447D01*
X312475Y87509D01*
X312519Y87569D01*
X312566Y87626D01*
X312616Y87681D01*
X312669Y87734D01*
X312724Y87784D01*
X312781Y87831D01*
X312841Y87875D01*
X312903Y87916D01*
X312968Y87954D01*
X313034Y87988D01*
X313101Y88019D01*
X313170Y88047D01*
X313241Y88071D01*
X313312Y88091D01*
X313384Y88108D01*
X313458Y88121D01*
X313531Y88130D01*
X313606Y88136D01*
X313680Y88138D01*
X313784Y88136D01*
X313888Y88130D01*
X313992Y88120D01*
X314095Y88107D01*
X314198Y88089D01*
X314300Y88067D01*
X314401Y88042D01*
X314501Y88013D01*
X314600Y87980D01*
X314697Y87943D01*
X314793Y87903D01*
X314888Y87859D01*
X314980Y87811D01*
X315071Y87761D01*
X315160Y87706D01*
X315247Y87649D01*
X315331Y87588D01*
X312946Y85385D02*
X312883Y85424D01*
X312823Y85466D01*
X312765Y85511D01*
X312708Y85559D01*
X312655Y85610D01*
X312604Y85663D01*
X312555Y85718D01*
X312510Y85776D01*
X312467Y85836D01*
X312427Y85898D01*
X312391Y85962D01*
X312357Y86028D01*
X312327Y86096D01*
X312300Y86164D01*
X312277Y86234D01*
X312257Y86305D01*
X312241Y86377D01*
X312228Y86450D01*
X312219Y86523D01*
X312214Y86596D01*
X312212Y86670D01*
X314964Y84287D02*
X315027Y84248D01*
X315087Y84206D01*
X315146Y84161D01*
X315202Y84113D01*
X315255Y84062D01*
X315306Y84009D01*
X315355Y83954D01*
X315400Y83896D01*
X315443Y83836D01*
X315483Y83774D01*
X315519Y83710D01*
X315553Y83644D01*
X315583Y83576D01*
X315610Y83508D01*
X315633Y83438D01*
X315653Y83367D01*
X315669Y83295D01*
X315682Y83222D01*
X315691Y83149D01*
X315696Y83076D01*
X315698Y83002D01*
X314964Y84286D02*
X312946Y85386D01*
X319100Y86304D02*
X319100Y83368D01*
X319101Y86304D02*
X319103Y86389D01*
X319109Y86473D01*
X319119Y86557D01*
X319132Y86641D01*
X319150Y86724D01*
X319171Y86806D01*
X319196Y86887D01*
X319225Y86967D01*
X319257Y87045D01*
X319293Y87121D01*
X319333Y87196D01*
X319376Y87269D01*
X319422Y87340D01*
X319471Y87409D01*
X319524Y87476D01*
X319580Y87540D01*
X319638Y87601D01*
X319699Y87659D01*
X319763Y87715D01*
X319830Y87768D01*
X319899Y87817D01*
X319970Y87863D01*
X320043Y87906D01*
X320118Y87946D01*
X320194Y87982D01*
X320272Y88014D01*
X320352Y88043D01*
X320433Y88068D01*
X320515Y88089D01*
X320598Y88107D01*
X320682Y88120D01*
X320766Y88130D01*
X320850Y88136D01*
X320935Y88138D01*
X321020Y88136D01*
X321104Y88130D01*
X321188Y88120D01*
X321272Y88107D01*
X321355Y88089D01*
X321437Y88068D01*
X321518Y88043D01*
X321598Y88014D01*
X321676Y87982D01*
X321752Y87946D01*
X321827Y87906D01*
X321900Y87863D01*
X321971Y87817D01*
X322040Y87768D01*
X322107Y87715D01*
X322171Y87659D01*
X322232Y87601D01*
X322290Y87540D01*
X322346Y87476D01*
X322399Y87409D01*
X322448Y87340D01*
X322494Y87269D01*
X322537Y87196D01*
X322577Y87121D01*
X322613Y87045D01*
X322645Y86967D01*
X322674Y86887D01*
X322699Y86806D01*
X322720Y86724D01*
X322738Y86641D01*
X322751Y86557D01*
X322761Y86473D01*
X322767Y86389D01*
X322769Y86304D01*
X322769Y83368D01*
X322767Y83283D01*
X322761Y83199D01*
X322751Y83115D01*
X322738Y83031D01*
X322720Y82948D01*
X322699Y82866D01*
X322674Y82785D01*
X322645Y82705D01*
X322613Y82627D01*
X322577Y82551D01*
X322537Y82476D01*
X322494Y82403D01*
X322448Y82332D01*
X322399Y82263D01*
X322346Y82196D01*
X322290Y82132D01*
X322232Y82071D01*
X322171Y82013D01*
X322107Y81957D01*
X322040Y81904D01*
X321971Y81855D01*
X321900Y81809D01*
X321827Y81766D01*
X321752Y81726D01*
X321676Y81690D01*
X321598Y81658D01*
X321518Y81629D01*
X321437Y81604D01*
X321355Y81583D01*
X321272Y81565D01*
X321188Y81552D01*
X321104Y81542D01*
X321020Y81536D01*
X320935Y81534D01*
X320850Y81536D01*
X320766Y81542D01*
X320682Y81552D01*
X320598Y81565D01*
X320515Y81583D01*
X320433Y81604D01*
X320352Y81629D01*
X320272Y81658D01*
X320194Y81690D01*
X320118Y81726D01*
X320043Y81766D01*
X319970Y81809D01*
X319899Y81855D01*
X319830Y81904D01*
X319763Y81957D01*
X319699Y82013D01*
X319638Y82071D01*
X319580Y82132D01*
X319524Y82196D01*
X319471Y82263D01*
X319422Y82332D01*
X319376Y82403D01*
X319333Y82476D01*
X319293Y82551D01*
X319257Y82627D01*
X319225Y82705D01*
X319196Y82785D01*
X319171Y82866D01*
X319150Y82948D01*
X319132Y83031D01*
X319119Y83115D01*
X319109Y83199D01*
X319103Y83283D01*
X319101Y83368D01*
X327762Y81534D02*
X327762Y88138D01*
X325928Y88138D02*
X329597Y88138D01*
X334773Y88138D02*
X334852Y88136D01*
X334930Y88131D01*
X335008Y88121D01*
X335085Y88108D01*
X335162Y88091D01*
X335238Y88071D01*
X335313Y88047D01*
X335387Y88020D01*
X335459Y87989D01*
X335530Y87954D01*
X335599Y87917D01*
X335666Y87876D01*
X335731Y87832D01*
X335794Y87785D01*
X335854Y87735D01*
X335912Y87682D01*
X335968Y87626D01*
X336021Y87568D01*
X336071Y87508D01*
X336118Y87445D01*
X336162Y87380D01*
X336203Y87313D01*
X336240Y87244D01*
X336275Y87173D01*
X336306Y87101D01*
X336333Y87027D01*
X336357Y86952D01*
X336377Y86876D01*
X336394Y86799D01*
X336407Y86722D01*
X336417Y86644D01*
X336422Y86566D01*
X336424Y86487D01*
X334773Y88138D02*
X334684Y88136D01*
X334595Y88131D01*
X334507Y88121D01*
X334419Y88108D01*
X334332Y88092D01*
X334245Y88071D01*
X334160Y88047D01*
X334075Y88020D01*
X333992Y87989D01*
X333910Y87954D01*
X333829Y87916D01*
X333750Y87875D01*
X333674Y87831D01*
X333598Y87783D01*
X333525Y87732D01*
X333455Y87679D01*
X333386Y87622D01*
X333320Y87562D01*
X333257Y87500D01*
X333196Y87435D01*
X333138Y87368D01*
X333083Y87298D01*
X333030Y87226D01*
X332981Y87152D01*
X332935Y87076D01*
X332893Y86998D01*
X332853Y86918D01*
X332817Y86837D01*
X332784Y86754D01*
X332755Y86670D01*
X335874Y85203D02*
X335930Y85259D01*
X335984Y85318D01*
X336035Y85379D01*
X336084Y85443D01*
X336129Y85508D01*
X336172Y85576D01*
X336211Y85645D01*
X336248Y85716D01*
X336281Y85789D01*
X336310Y85863D01*
X336337Y85938D01*
X336360Y86014D01*
X336379Y86092D01*
X336395Y86170D01*
X336408Y86248D01*
X336417Y86328D01*
X336422Y86407D01*
X336424Y86487D01*
X335874Y85203D02*
X332755Y81534D01*
X336424Y81534D01*
X340070Y81534D02*
X341905Y81534D01*
X341990Y81536D01*
X342074Y81542D01*
X342158Y81552D01*
X342242Y81565D01*
X342325Y81583D01*
X342407Y81604D01*
X342488Y81629D01*
X342568Y81658D01*
X342646Y81690D01*
X342722Y81726D01*
X342797Y81766D01*
X342870Y81809D01*
X342941Y81855D01*
X343010Y81904D01*
X343077Y81957D01*
X343141Y82013D01*
X343202Y82071D01*
X343260Y82132D01*
X343316Y82196D01*
X343369Y82263D01*
X343418Y82332D01*
X343464Y82403D01*
X343507Y82476D01*
X343547Y82551D01*
X343583Y82627D01*
X343615Y82705D01*
X343644Y82785D01*
X343669Y82866D01*
X343690Y82948D01*
X343708Y83031D01*
X343721Y83115D01*
X343731Y83199D01*
X343737Y83283D01*
X343739Y83368D01*
X343737Y83453D01*
X343731Y83537D01*
X343721Y83621D01*
X343708Y83705D01*
X343690Y83788D01*
X343669Y83870D01*
X343644Y83951D01*
X343615Y84031D01*
X343583Y84109D01*
X343547Y84185D01*
X343507Y84260D01*
X343464Y84333D01*
X343418Y84404D01*
X343369Y84473D01*
X343316Y84540D01*
X343260Y84604D01*
X343202Y84665D01*
X343141Y84723D01*
X343077Y84779D01*
X343010Y84832D01*
X342941Y84881D01*
X342870Y84927D01*
X342797Y84970D01*
X342722Y85010D01*
X342646Y85046D01*
X342568Y85078D01*
X342488Y85107D01*
X342407Y85132D01*
X342325Y85153D01*
X342242Y85171D01*
X342158Y85184D01*
X342074Y85194D01*
X341990Y85200D01*
X341905Y85202D01*
X342272Y88138D02*
X340070Y88138D01*
X342272Y88138D02*
X342348Y88136D01*
X342423Y88130D01*
X342498Y88121D01*
X342572Y88107D01*
X342646Y88090D01*
X342718Y88068D01*
X342790Y88044D01*
X342860Y88015D01*
X342928Y87983D01*
X342995Y87948D01*
X343060Y87909D01*
X343123Y87866D01*
X343183Y87821D01*
X343241Y87773D01*
X343297Y87721D01*
X343349Y87667D01*
X343399Y87610D01*
X343446Y87551D01*
X343490Y87490D01*
X343531Y87426D01*
X343568Y87360D01*
X343602Y87292D01*
X343632Y87223D01*
X343659Y87152D01*
X343682Y87080D01*
X343701Y87007D01*
X343716Y86933D01*
X343728Y86858D01*
X343736Y86783D01*
X343740Y86708D01*
X343740Y86632D01*
X343736Y86557D01*
X343728Y86482D01*
X343716Y86407D01*
X343701Y86333D01*
X343682Y86260D01*
X343659Y86188D01*
X343632Y86117D01*
X343602Y86048D01*
X343568Y85980D01*
X343531Y85914D01*
X343490Y85850D01*
X343446Y85789D01*
X343399Y85730D01*
X343349Y85673D01*
X343297Y85619D01*
X343241Y85567D01*
X343183Y85519D01*
X343123Y85474D01*
X343060Y85431D01*
X342995Y85392D01*
X342928Y85357D01*
X342860Y85325D01*
X342790Y85296D01*
X342718Y85272D01*
X342646Y85250D01*
X342572Y85233D01*
X342498Y85219D01*
X342423Y85210D01*
X342348Y85204D01*
X342272Y85202D01*
X342272Y85203D02*
X340804Y85203D01*
D13*
X175990Y102235D02*
X175990Y113665D01*
X179165Y113665D01*
X179276Y113663D01*
X179386Y113657D01*
X179497Y113648D01*
X179607Y113634D01*
X179716Y113617D01*
X179825Y113596D01*
X179933Y113571D01*
X180040Y113542D01*
X180146Y113510D01*
X180251Y113474D01*
X180354Y113434D01*
X180456Y113391D01*
X180557Y113344D01*
X180656Y113293D01*
X180753Y113240D01*
X180847Y113183D01*
X180940Y113122D01*
X181031Y113059D01*
X181120Y112992D01*
X181206Y112922D01*
X181289Y112849D01*
X181371Y112774D01*
X181449Y112696D01*
X181524Y112614D01*
X181597Y112531D01*
X181667Y112445D01*
X181734Y112356D01*
X181797Y112265D01*
X181858Y112172D01*
X181915Y112077D01*
X181968Y111981D01*
X182019Y111882D01*
X182066Y111781D01*
X182109Y111679D01*
X182149Y111576D01*
X182185Y111471D01*
X182217Y111365D01*
X182246Y111258D01*
X182271Y111150D01*
X182292Y111041D01*
X182309Y110932D01*
X182323Y110822D01*
X182332Y110711D01*
X182338Y110601D01*
X182340Y110490D01*
X182338Y110379D01*
X182332Y110269D01*
X182323Y110158D01*
X182309Y110048D01*
X182292Y109939D01*
X182271Y109830D01*
X182246Y109722D01*
X182217Y109615D01*
X182185Y109509D01*
X182149Y109404D01*
X182109Y109301D01*
X182066Y109199D01*
X182019Y109098D01*
X181968Y108999D01*
X181915Y108902D01*
X181858Y108808D01*
X181797Y108715D01*
X181734Y108624D01*
X181667Y108535D01*
X181597Y108449D01*
X181524Y108366D01*
X181449Y108284D01*
X181371Y108206D01*
X181289Y108131D01*
X181206Y108058D01*
X181120Y107988D01*
X181031Y107921D01*
X180940Y107858D01*
X180847Y107797D01*
X180752Y107740D01*
X180656Y107687D01*
X180557Y107636D01*
X180456Y107589D01*
X180354Y107546D01*
X180251Y107506D01*
X180146Y107470D01*
X180040Y107438D01*
X179933Y107409D01*
X179825Y107384D01*
X179716Y107363D01*
X179607Y107346D01*
X179497Y107332D01*
X179386Y107323D01*
X179276Y107317D01*
X179165Y107315D01*
X175990Y107315D01*
X186214Y102235D02*
X190024Y113665D01*
X193834Y102235D01*
X192881Y105093D02*
X187166Y105093D01*
X198660Y102235D02*
X198660Y113665D01*
X201835Y113665D01*
X201946Y113663D01*
X202056Y113657D01*
X202167Y113648D01*
X202277Y113634D01*
X202386Y113617D01*
X202495Y113596D01*
X202603Y113571D01*
X202710Y113542D01*
X202816Y113510D01*
X202921Y113474D01*
X203024Y113434D01*
X203126Y113391D01*
X203227Y113344D01*
X203326Y113293D01*
X203423Y113240D01*
X203517Y113183D01*
X203610Y113122D01*
X203701Y113059D01*
X203790Y112992D01*
X203876Y112922D01*
X203959Y112849D01*
X204041Y112774D01*
X204119Y112696D01*
X204194Y112614D01*
X204267Y112531D01*
X204337Y112445D01*
X204404Y112356D01*
X204467Y112265D01*
X204528Y112172D01*
X204585Y112078D01*
X204638Y111981D01*
X204689Y111882D01*
X204736Y111781D01*
X204779Y111679D01*
X204819Y111576D01*
X204855Y111471D01*
X204887Y111365D01*
X204916Y111258D01*
X204941Y111150D01*
X204962Y111041D01*
X204979Y110932D01*
X204993Y110822D01*
X205002Y110711D01*
X205008Y110601D01*
X205010Y110490D01*
X205010Y105410D01*
X205008Y105299D01*
X205002Y105189D01*
X204993Y105078D01*
X204979Y104968D01*
X204962Y104859D01*
X204941Y104750D01*
X204916Y104642D01*
X204887Y104535D01*
X204855Y104429D01*
X204819Y104324D01*
X204779Y104221D01*
X204736Y104119D01*
X204689Y104018D01*
X204638Y103919D01*
X204585Y103822D01*
X204528Y103728D01*
X204467Y103635D01*
X204404Y103544D01*
X204337Y103455D01*
X204267Y103369D01*
X204194Y103286D01*
X204119Y103204D01*
X204041Y103126D01*
X203959Y103051D01*
X203876Y102978D01*
X203790Y102908D01*
X203701Y102841D01*
X203610Y102778D01*
X203517Y102717D01*
X203422Y102660D01*
X203326Y102607D01*
X203227Y102556D01*
X203126Y102509D01*
X203024Y102466D01*
X202921Y102426D01*
X202816Y102390D01*
X202710Y102358D01*
X202603Y102329D01*
X202495Y102304D01*
X202386Y102283D01*
X202277Y102266D01*
X202167Y102252D01*
X202056Y102243D01*
X201946Y102237D01*
X201835Y102235D01*
X198660Y102235D01*
D16*
X190571Y76454D02*
X190571Y76200D01*
X190500Y76454D02*
X190641Y76454D01*
X190723Y76454D02*
X190723Y76200D01*
X190723Y76454D02*
X190793Y76454D01*
X190809Y76452D01*
X190824Y76447D01*
X190837Y76439D01*
X190849Y76427D01*
X190857Y76414D01*
X190862Y76399D01*
X190864Y76383D01*
X190862Y76367D01*
X190857Y76352D01*
X190849Y76339D01*
X190837Y76327D01*
X190824Y76319D01*
X190809Y76314D01*
X190793Y76312D01*
X190793Y76313D02*
X190723Y76313D01*
X191019Y76200D02*
X191031Y76201D01*
X191043Y76206D01*
X191054Y76212D01*
X191063Y76221D01*
X191069Y76232D01*
X191074Y76244D01*
X191075Y76256D01*
X191019Y76200D02*
X191000Y76201D01*
X190982Y76206D01*
X190965Y76213D01*
X190949Y76223D01*
X190935Y76235D01*
X190942Y76398D02*
X190943Y76410D01*
X190948Y76422D01*
X190954Y76433D01*
X190963Y76442D01*
X190974Y76448D01*
X190986Y76453D01*
X190998Y76454D01*
X191015Y76453D01*
X191032Y76449D01*
X191047Y76442D01*
X191062Y76433D01*
X190970Y76349D02*
X190958Y76358D01*
X190950Y76370D01*
X190944Y76383D01*
X190942Y76398D01*
X191047Y76305D02*
X191059Y76296D01*
X191067Y76284D01*
X191073Y76271D01*
X191075Y76256D01*
X191047Y76306D02*
X190970Y76348D01*
X191162Y76383D02*
X191162Y76271D01*
X191162Y76383D02*
X191164Y76399D01*
X191169Y76414D01*
X191177Y76427D01*
X191189Y76439D01*
X191202Y76447D01*
X191217Y76452D01*
X191233Y76454D01*
X191249Y76452D01*
X191264Y76447D01*
X191277Y76439D01*
X191289Y76427D01*
X191297Y76414D01*
X191302Y76399D01*
X191304Y76383D01*
X191303Y76383D02*
X191303Y76271D01*
X191304Y76271D02*
X191302Y76255D01*
X191297Y76240D01*
X191289Y76227D01*
X191277Y76215D01*
X191264Y76207D01*
X191249Y76202D01*
X191233Y76200D01*
X191217Y76202D01*
X191202Y76207D01*
X191189Y76215D01*
X191177Y76227D01*
X191169Y76240D01*
X191164Y76255D01*
X191162Y76271D01*
X191275Y76256D02*
X191331Y76200D01*
X191401Y76200D02*
X191401Y76454D01*
X191471Y76454D01*
X191487Y76452D01*
X191502Y76447D01*
X191515Y76439D01*
X191527Y76427D01*
X191535Y76414D01*
X191540Y76399D01*
X191542Y76383D01*
X191540Y76367D01*
X191535Y76352D01*
X191527Y76339D01*
X191515Y76327D01*
X191502Y76319D01*
X191487Y76314D01*
X191471Y76312D01*
X191471Y76313D02*
X191401Y76313D01*
X191606Y76200D02*
X191691Y76454D01*
X191775Y76200D01*
X191754Y76264D02*
X191627Y76264D01*
X191856Y76200D02*
X191856Y76454D01*
X191927Y76454D01*
X191943Y76452D01*
X191958Y76447D01*
X191971Y76439D01*
X191983Y76427D01*
X191991Y76414D01*
X191996Y76399D01*
X191998Y76383D01*
X191997Y76383D02*
X191997Y76271D01*
X191998Y76271D02*
X191996Y76255D01*
X191991Y76240D01*
X191983Y76227D01*
X191971Y76215D01*
X191958Y76207D01*
X191943Y76202D01*
X191927Y76200D01*
X191856Y76200D01*
X192093Y76398D02*
X192163Y76454D01*
X192163Y76200D01*
X192093Y76200D02*
X192234Y76200D01*
X192322Y76299D02*
X192492Y76299D01*
X192580Y76398D02*
X192651Y76454D01*
X192651Y76200D01*
X192721Y76200D02*
X192580Y76200D01*
X192809Y76200D02*
X192879Y76200D01*
X192895Y76202D01*
X192910Y76207D01*
X192923Y76215D01*
X192935Y76227D01*
X192943Y76240D01*
X192948Y76255D01*
X192950Y76271D01*
X192948Y76287D01*
X192943Y76302D01*
X192935Y76315D01*
X192923Y76327D01*
X192910Y76335D01*
X192895Y76340D01*
X192879Y76342D01*
X192893Y76454D02*
X192809Y76454D01*
X192893Y76454D02*
X192906Y76452D01*
X192919Y76448D01*
X192930Y76440D01*
X192939Y76430D01*
X192945Y76418D01*
X192949Y76405D01*
X192949Y76391D01*
X192945Y76378D01*
X192939Y76366D01*
X192930Y76356D01*
X192919Y76348D01*
X192906Y76344D01*
X192893Y76342D01*
X192893Y76341D02*
X192837Y76341D01*
M02*
