G04 EAGLE Gerber RS-274X export*
G75*
%MOMM*%
%FSLAX34Y34*%
%LPD*%
%INSoldermask Top*%
%IPPOS*%
%AMOC8*
5,1,8,0,0,1.08239X$1,22.5*%
G01*
%ADD10C,4.203200*%
%ADD11R,2.003200X1.803200*%
%ADD12C,1.727200*%
%ADD13P,1.869504X8X22.500000*%
%ADD14C,1.524000*%
%ADD15R,2.006200X1.803200*%
%ADD16R,1.803200X2.006200*%
%ADD17R,0.753200X1.553200*%
%ADD18P,2.556822X8X22.500000*%
%ADD19C,0.959600*%


D10*
X203200Y203200D03*
D11*
X330200Y24100D03*
X330200Y52100D03*
X254000Y52100D03*
X254000Y24100D03*
D12*
X360680Y25400D02*
X375920Y25400D01*
X375920Y50800D02*
X360680Y50800D01*
D13*
X381000Y190500D03*
X381000Y215900D03*
D14*
X165608Y25400D02*
X152400Y25400D01*
X152400Y50800D02*
X165608Y50800D01*
X76200Y50800D02*
X62992Y50800D01*
X62992Y25400D02*
X76200Y25400D01*
D12*
X45720Y25400D02*
X30480Y25400D01*
X30480Y50800D02*
X45720Y50800D01*
D15*
X381000Y141220D03*
X381000Y112780D03*
D16*
X188980Y50800D03*
X217420Y50800D03*
X188980Y25400D03*
X217420Y25400D03*
D17*
X301600Y51851D03*
X292100Y51851D03*
X282600Y51851D03*
X282600Y24349D03*
X292100Y24349D03*
X301600Y24349D03*
D18*
X190500Y76200D03*
D19*
X381000Y88900D03*
X393700Y50800D03*
X393700Y25400D03*
X234950Y25400D03*
X311150Y38100D03*
M02*
