M48
;GenerationSoftware,Autodesk,EAGLE,9.4.2*%
;CreationDate,2019-07-17T16:21:23Z*%
FMAT,2
ICI,OFF
METRIC,TZ,000.000
T4C0.350
T3C0.813
T2C1.016
T1C4.000
%
G90
M71
T1
X20320Y20320
T2
X2540Y5080
X2540Y2540
X21590Y7620
X19050Y7620
X38100Y5080
X38100Y2540
X15240Y7620
T3
X5080Y5080
X5080Y2540
X12700Y2540
X12700Y5080
X27940Y5080
X27940Y2540
X35560Y2540
X35560Y5080
X16510Y5080
X24130Y5080
X5080Y7620
X12700Y7620
X16510Y2540
X24130Y2540
T4
X9906Y3556
M30